SplineFontDB: 3.0
FontName: Oswald-Regular
FullName: Oswald Regular
FamilyName: Oswald
Weight: Book
Copyright: Copyright (c) 2011-12 by vernon adams. All rights reserved.
Version: 2.002
ItalicAngle: 0
UnderlinePosition: 0
UnderlineWidth: 0
Ascent: 1638
Descent: 410
sfntRevision: 0x00020000
LayerCount: 2
Layer: 0 1 "Back"  1
Layer: 1 1 "Fore"  0
XUID: [1021 332 1330122705 4557986]
FSType: 0
OS2Version: 1
OS2_WeightWidthSlopeOnly: 0
OS2_UseTypoMetrics: 1
CreationTime: 1345470276
ModificationTime: 1349110726
PfmFamily: 17
TTFWeight: 400
TTFWidth: 5
LineGap: 0
VLineGap: 0
Panose: 2 0 5 3 0 0 0 0 0 0
OS2TypoAscent: 2444
OS2TypoAOffset: 0
OS2TypoDescent: -591
OS2TypoDOffset: 0
OS2TypoLinegap: 0
OS2WinAscent: 2444
OS2WinAOffset: 0
OS2WinDescent: 591
OS2WinDOffset: 0
HheadAscent: 2444
HheadAOffset: 0
HheadDescent: -591
HheadDOffset: 0
OS2SubXSize: 1331
OS2SubYSize: 1433
OS2SubXOff: 0
OS2SubYOff: 286
OS2SupXSize: 1331
OS2SupYSize: 1433
OS2SupXOff: 0
OS2SupYOff: 983
OS2StrikeYSize: 102
OS2StrikeYPos: 530
OS2Vendor: 'newt'
OS2CodePages: 00000093.00000000
OS2UnicodeRanges: a000006f.4000004b.00000000.00000000
Lookup: 258 0 0 "'kern' Horizontal Kerning in Latin lookup 0"  {"'kern' Horizontal Kerning in Latin lookup 0 per glyph data 0"  "'kern' Horizontal Kerning in Latin lookup 0 kerning class 1"  } ['kern' ('DFLT' <'dflt' > 'latn' <'dflt' > ) ]
MarkAttachClasses: 1
DEI: 91125
KernClass2: 34 26 "'kern' Horizontal Kerning in Latin lookup 0 kerning class 1" 
 81 A Agrave Aacute Acircumflex Atilde Adieresis Aring Amacron Abreve Aogonek uni0202
 75 D O Q Eth Ograve Oacute Ocircumflex Otilde Odieresis Oslash uni020C uni020E
 1 F
 1 J
 11 Jcircumflex
 1 K
 1 L
 1 P
 44 R Racute Rcommaaccent Rcaron uni0210 uni0212
 22 T uni021A Tcommaaccent
 6 Tcaron
 45 U Ugrave Uacute Ucircumflex Udieresis uni0216
 1 V
 1 W
 18 Y Yacute Ydieresis
 69 b o p ograve oacute ocircumflex otilde odieresis oslash thorn uni020F
 1 d
 6 dcaron
 1 f
 1 g
 6 gbreve
 11 gcircumflex
 10 gdotaccent

StartChar: .notdef
Encoding: 65536 -1 0
Width: 748
Flags: W
LayerCount: 2
Fore
SplineSet
68 0 m 1,0,-1
 68 1365 l 1,1,-1
 612 1365 l 1,2,-1
 612 0 l 1,3,-1
 68 0 l 1,0,-1
136 68 m 1,4,-1
 544 68 l 1,5,-1
 544 1297 l 1,6,-1
 136 1297 l 1,7,-1
 136 68 l 1,4,-1
EndSplineSet
EndChar

StartChar: exclam
Encoding: 33 33 4
Width: 375
Flags: W
LayerCount: 2
Fore
SplineSet
128 384 m 1,0,-1
 64 1792 l 1,1,-1
 320 1792 l 1,2,-1
 274 384 l 1,3,-1
 128 384 l 1,0,-1
64 0 m 1,4,-1
 64 256 l 1,5,-1
 320 256 l 1,6,-1
 320 0 l 1,7,-1
 64 0 l 1,4,-1
EndSplineSet
EndChar

StartChar: quotedbl
Encoding: 34 34 5
Width: 704
Flags: W
LayerCount: 2
Fore
SplineSet
449 1328 m 1,0,-1
 385 1792 l 1,1,-1
 641 1792 l 1,2,-1
 577 1328 l 1,3,-1
 449 1328 l 1,0,-1
126 1328 m 1,4,-1
 62 1792 l 1,5,-1
 318 1792 l 1,6,-1
 254 1328 l 1,7,-1
 126 1328 l 1,4,-1
EndSplineSet
EndChar

StartChar: numbersign
Encoding: 35 35 6
Width: 1088
Flags: W
LayerCount: 2
Fore
SplineSet
437 832 m 1,0,-1
 630 832 l 1,1,-1
 657 1024 l 1,2,-1
 465 1024 l 1,3,-1
 437 832 l 1,0,-1
64 0 m 1,4,-1
 154 640 l 1,5,-1
 64 640 l 1,6,-1
 64 832 l 1,7,-1
 181 832 l 1,8,-1
 209 1024 l 1,9,-1
 64 1024 l 1,10,-1
 64 1216 l 1,11,-1
 236 1216 l 1,12,-1
 318 1792 l 1,13,-1
 574 1792 l 1,14,-1
 492 1216 l 1,15,-1
 684 1216 l 1,16,-1
 766 1792 l 1,17,-1
 1022 1792 l 1,18,-1
 940 1216 l 1,19,-1
 1024 1216 l 1,20,-1
 1024 1024 l 1,21,-1
 913 1024 l 1,22,-1
 885 832 l 1,23,-1
 1024 832 l 1,24,-1
 1024 640 l 1,25,-1
 858 640 l 1,26,-1
 768 0 l 1,27,-1
 512 0 l 1,28,-1
 602 640 l 1,29,-1
 410 640 l 1,30,-1
 320 0 l 1,31,-1
 64 0 l 1,4,-1
EndSplineSet
EndChar

StartChar: dollar
Encoding: 36 36 7
Width: 1216
Flags: W
LayerCount: 2
Fore
SplineSet
704 198 m 1,0,1
 832 227 832 227 832 384 c 0,2,3
 832 462 832 462 804 519 c 128,-1,4
 776 576 776 576 724 628 c 2,5,-1
 704 648 l 1,6,-1
 704 198 l 1,0,1
576 1101 m 1,7,-1
 576 1600 l 1,8,9
 484 1600 484 1600 434 1548 c 128,-1,10
 384 1496 384 1496 384 1405 c 0,11,12
 384 1253 384 1253 512 1152 c 2,13,-1
 576 1101 l 1,7,-1
576 -128 m 1,14,-1
 576 -15 l 1,15,16
 368 0 368 0 254.5 142.5 c 128,-1,17
 141 285 141 285 128 512 c 1,18,-1
 384 576 l 1,19,20
 394 283 394 283 555 208 c 1,21,-1
 576 200 l 1,22,-1
 576 755 l 1,23,-1
 320 960 l 2,24,25
 232 1031 232 1031 179.5 1136.5 c 128,-1,26
 127 1242 127 1242 127 1378 c 0,27,28
 127 1576 127 1576 250 1693 c 128,-1,29
 373 1810 373 1810 576 1810 c 1,30,-1
 576 1920 l 1,31,-1
 704 1920 l 1,32,-1
 704 1799 l 1,33,-1
 745 1790 l 1,34,35
 1061 1704 1061 1704 1088 1344 c 1,36,-1
 832 1280 l 1,37,38
 823 1468 823 1468 724 1549 c 1,39,-1
 704 1564 l 1,40,-1
 704 998 l 1,41,-1
 832 896 l 1,42,43
 945 808 945 808 1016.5 683.5 c 128,-1,44
 1088 559 1088 559 1088 401 c 0,45,46
 1088 220 1088 220 984 112 c 128,-1,47
 880 4 880 4 704 -15 c 1,48,-1
 704 -128 l 1,49,-1
 576 -128 l 1,14,-1
EndSplineSet
EndChar

StartChar: percent
Encoding: 37 37 8
Width: 1999
Flags: W
LayerCount: 2
Fore
SplineSet
1554 0 m 128,-1,1
 1459 0 1459 0 1387.5 38.5 c 128,-1,2
 1316 77 1316 77 1273 145.5 c 128,-1,3
 1230 214 1230 214 1209 301 c 128,-1,4
 1188 388 1188 388 1188 492 c 0,5,6
 1188 598 1188 598 1208.5 683.5 c 128,-1,7
 1229 769 1229 769 1271.5 835.5 c 128,-1,8
 1314 902 1314 902 1385.5 938.5 c 128,-1,9
 1457 975 1457 975 1554 975 c 128,-1,10
 1651 975 1651 975 1723 938.5 c 128,-1,11
 1795 902 1795 902 1837.5 835.5 c 128,-1,12
 1880 769 1880 769 1900.5 683.5 c 128,-1,13
 1921 598 1921 598 1921 492 c 0,14,15
 1921 387 1921 387 1900 300 c 128,-1,16
 1879 213 1879 213 1836 144.5 c 128,-1,17
 1793 76 1793 76 1721 38 c 128,-1,0
 1649 0 1649 0 1554 0 c 128,-1,1
1554 195 m 0,18,19
 1688 195 1688 195 1688 492 c 0,20,21
 1688 780 1688 780 1554 780 c 0,22,23
 1421 780 1421 780 1421 492 c 0,24,25
 1421 440 1421 440 1426 395 c 128,-1,26
 1431 350 1431 350 1444 301 c 128,-1,27
 1457 252 1457 252 1485 223.5 c 128,-1,28
 1513 195 1513 195 1554 195 c 0,18,19
751 0 m 1,29,-1
 1034 1518 l 1,30,-1
 1253 1518 l 1,31,-1
 971 0 l 1,32,-1
 751 0 l 1,29,-1
444 541 m 128,-1,34
 349 541 349 541 277.5 579.5 c 128,-1,35
 206 618 206 618 163 686 c 128,-1,36
 120 754 120 754 99 841 c 128,-1,37
 78 928 78 928 78 1032 c 0,38,39
 78 1138 78 1138 98 1224 c 128,-1,40
 118 1310 118 1310 160.5 1376.5 c 128,-1,41
 203 1443 203 1443 275 1479.5 c 128,-1,42
 347 1516 347 1516 444 1516 c 0,43,44
 522 1516 522 1516 584 1491.5 c 128,-1,45
 646 1467 646 1467 688 1424 c 128,-1,46
 730 1381 730 1381 758 1320 c 128,-1,47
 786 1259 786 1259 798.5 1187.5 c 128,-1,48
 811 1116 811 1116 811 1032 c 0,49,50
 811 928 811 928 789.5 840.5 c 128,-1,51
 768 753 768 753 725 685 c 128,-1,52
 682 617 682 617 610.5 579 c 128,-1,33
 539 541 539 541 444 541 c 128,-1,34
444 735 m 0,53,54
 578 735 578 735 578 1032 c 0,55,56
 578 1321 578 1321 444 1321 c 0,57,58
 311 1321 311 1321 311 1032 c 0,59,60
 311 980 311 980 316 934.5 c 128,-1,61
 321 889 321 889 334 840.5 c 128,-1,62
 347 792 347 792 375 763.5 c 128,-1,63
 403 735 403 735 444 735 c 0,53,54
EndSplineSet
EndChar

StartChar: ampersand
Encoding: 38 38 9
Width: 1344
Flags: W
LayerCount: 2
Fore
SplineSet
545 1024 m 1,0,1
 609 1104 609 1104 656.5 1229.5 c 128,-1,2
 704 1355 704 1355 704 1472 c 0,3,4
 704 1530 704 1530 669 1565 c 128,-1,5
 634 1600 634 1600 576 1600 c 0,6,7
 511 1600 511 1600 479.5 1543.5 c 128,-1,8
 448 1487 448 1487 448 1408 c 0,9,10
 448 1343 448 1343 465 1267 c 128,-1,11
 482 1191 482 1191 499 1142.5 c 128,-1,12
 516 1094 516 1094 545 1024 c 1,0,1
512 192 m 0,13,14
 634 192 634 192 736 320 c 1,15,-1
 613 503 l 2,16,17
 600 524 600 524 568.5 564.5 c 128,-1,18
 537 605 537 605 514 639.5 c 128,-1,19
 491 674 491 674 481 704 c 1,20,21
 437 646 437 646 410.5 561 c 128,-1,22
 384 476 384 476 384 384 c 0,23,24
 384 300 384 300 414 246 c 128,-1,25
 444 192 444 192 512 192 c 0,13,14
512 -18 m 0,26,27
 334 -18 334 -18 231 92 c 128,-1,28
 128 202 128 202 128 384 c 0,29,30
 128 670 128 670 384 896 c 1,31,32
 370 925 370 925 326 1005.5 c 128,-1,33
 282 1086 282 1086 259 1134.5 c 128,-1,34
 236 1183 236 1183 214 1260.5 c 128,-1,35
 192 1338 192 1338 192 1408 c 0,36,37
 192 1588 192 1588 296 1699 c 128,-1,38
 400 1810 400 1810 576 1810 c 0,39,40
 741 1810 741 1810 850.5 1718.5 c 128,-1,41
 960 1627 960 1627 960 1472 c 0,42,43
 960 1402 960 1402 938 1330 c 128,-1,44
 916 1258 916 1258 885.5 1202 c 128,-1,45
 855 1146 855 1146 807 1083.5 c 128,-1,46
 759 1021 759 1021 723.5 982.5 c 128,-1,47
 688 944 688 944 640 896 c 1,48,-1
 896 512 l 1,49,50
 914 552 914 552 927 612 c 128,-1,51
 940 672 940 672 944.5 705.5 c 128,-1,52
 949 739 949 739 960 832 c 1,53,-1
 1216 832 l 1,54,55
 1216 710 1216 710 1169 579 c 128,-1,56
 1122 448 1122 448 1057 350 c 1,57,58
 1132 256 1132 256 1216 256 c 1,59,-1
 1216 -18 l 1,60,61
 1191 -18 1191 -18 1168.5 -15.5 c 128,-1,62
 1146 -13 1146 -13 1123 -4.5 c 128,-1,63
 1100 4 1100 4 1084 9.5 c 128,-1,64
 1068 15 1068 15 1045.5 30.5 c 128,-1,65
 1023 46 1023 46 1013 51.5 c 128,-1,66
 1003 57 1003 57 980 78 c 128,-1,67
 957 99 957 99 952 103 c 128,-1,68
 947 107 947 107 922 131.5 c 128,-1,69
 897 156 897 156 896 157 c 1,70,71
 833 77 833 77 735.5 29.5 c 128,-1,72
 638 -18 638 -18 512 -18 c 0,26,27
EndSplineSet
EndChar

StartChar: quotesingle
Encoding: 39 39 10
Width: 384
Flags: W
LayerCount: 2
Fore
SplineSet
126 1328 m 1,0,-1
 62 1792 l 1,1,-1
 318 1792 l 1,2,-1
 254 1328 l 1,3,-1
 126 1328 l 1,0,-1
EndSplineSet
EndChar

StartChar: parenleft
Encoding: 40 40 11
Width: 640
Flags: W
LayerCount: 2
Fore
SplineSet
576 -64 m 1,0,1
 496 -64 496 -64 431 -42.5 c 128,-1,2
 366 -21 366 -21 320.5 24.5 c 128,-1,3
 275 70 275 70 241.5 120 c 128,-1,4
 208 170 208 170 187.5 249.5 c 128,-1,5
 167 329 167 329 154 393.5 c 128,-1,6
 141 458 141 458 136 558.5 c 128,-1,7
 131 659 131 659 129.5 724.5 c 128,-1,8
 128 790 128 790 128 896 c 0,9,10
 128 1018 128 1018 129.5 1092.5 c 128,-1,11
 131 1167 131 1167 140 1280.5 c 128,-1,12
 149 1394 149 1394 166 1464.5 c 128,-1,13
 183 1535 183 1535 215.5 1617.5 c 128,-1,14
 248 1700 248 1700 295 1746.5 c 128,-1,15
 342 1793 342 1793 413.5 1824.5 c 128,-1,16
 485 1856 485 1856 576 1856 c 1,17,-1
 576 1664 l 1,18,19
 526 1664 526 1664 489.5 1632.5 c 128,-1,20
 453 1601 453 1601 432.5 1553 c 128,-1,21
 412 1505 412 1505 400 1432 c 128,-1,22
 388 1359 388 1359 384.5 1293 c 128,-1,23
 381 1227 381 1227 381 1143 c 0,24,25
 381 1095 381 1095 382.5 1011.5 c 128,-1,26
 384 928 384 928 384 896 c 128,-1,27
 384 864 384 864 382.5 779 c 128,-1,28
 381 694 381 694 381 645 c 0,29,30
 381 561 381 561 384.5 495.5 c 128,-1,31
 388 430 388 430 400 358 c 128,-1,32
 412 286 412 286 432.5 238 c 128,-1,33
 453 190 453 190 489.5 159 c 128,-1,34
 526 128 526 128 576 128 c 1,35,-1
 576 -64 l 1,0,1
EndSplineSet
EndChar

StartChar: parenright
Encoding: 41 41 12
Width: 640
Flags: W
LayerCount: 2
Fore
SplineSet
64 -64 m 1,0,-1
 64 128 l 1,1,2
 114 128 114 128 150.5 159.5 c 128,-1,3
 187 191 187 191 207.5 239 c 128,-1,4
 228 287 228 287 240 360 c 128,-1,5
 252 433 252 433 255.5 499 c 128,-1,6
 259 565 259 565 259 649 c 0,7,8
 259 697 259 697 257.5 780.5 c 128,-1,9
 256 864 256 864 256 896 c 128,-1,10
 256 928 256 928 257.5 1013 c 128,-1,11
 259 1098 259 1098 259 1147 c 0,12,13
 259 1231 259 1231 255.5 1296.5 c 128,-1,14
 252 1362 252 1362 240 1434 c 128,-1,15
 228 1506 228 1506 207.5 1554 c 128,-1,16
 187 1602 187 1602 150.5 1633 c 128,-1,17
 114 1664 114 1664 64 1664 c 1,18,-1
 64 1856 l 1,19,20
 144 1856 144 1856 209 1834.5 c 128,-1,21
 274 1813 274 1813 319.5 1767.5 c 128,-1,22
 365 1722 365 1722 398.5 1672 c 128,-1,23
 432 1622 432 1622 452.5 1542.5 c 128,-1,24
 473 1463 473 1463 486 1398.5 c 128,-1,25
 499 1334 499 1334 504 1233.5 c 128,-1,26
 509 1133 509 1133 510.5 1067.5 c 128,-1,27
 512 1002 512 1002 512 896 c 0,28,29
 512 774 512 774 510.5 699.5 c 128,-1,30
 509 625 509 625 500 511.5 c 128,-1,31
 491 398 491 398 474 327.5 c 128,-1,32
 457 257 457 257 424.5 174.5 c 128,-1,33
 392 92 392 92 345 45.5 c 128,-1,34
 298 -1 298 -1 226.5 -32.5 c 128,-1,35
 155 -64 155 -64 64 -64 c 1,0,-1
EndSplineSet
EndChar

StartChar: asterisk
Encoding: 42 42 13
Width: 896
Flags: W
LayerCount: 2
Fore
SplineSet
343 904 m 1,0,-1
 191 994 l 1,1,-1
 363 1237 l 1,2,-1
 106 1335 l 1,3,-1
 167 1496 l 1,4,-1
 412 1364 l 1,5,-1
 384 1664 l 1,6,-1
 576 1664 l 1,7,-1
 547 1364 l 1,8,-1
 793 1496 l 1,9,-1
 854 1335 l 1,10,-1
 597 1236 l 1,11,-1
 769 994 l 1,12,-1
 617 904 l 1,13,-1
 480 1181 l 1,14,-1
 343 904 l 1,0,-1
EndSplineSet
EndChar

StartChar: plus
Encoding: 43 43 14
Width: 704
Flags: W
LayerCount: 2
Fore
SplineSet
256 384 m 1,0,-1
 256 576 l 1,1,-1
 64 576 l 1,2,-1
 64 768 l 1,3,-1
 256 768 l 1,4,-1
 256 960 l 1,5,-1
 448 960 l 1,6,-1
 448 768 l 1,7,-1
 640 768 l 1,8,-1
 640 576 l 1,9,-1
 448 576 l 1,10,-1
 448 384 l 1,11,-1
 256 384 l 1,0,-1
EndSplineSet
EndChar

StartChar: comma
Encoding: 44 44 15
Width: 408
Flags: W
LayerCount: 2
Fore
SplineSet
140 -256 m 1,0,-1
 76 -128 l 1,1,2
 145 -128 145 -128 174.5 -98 c 128,-1,3
 204 -68 204 -68 204 0 c 1,4,-1
 76 0 l 1,5,-1
 76 256 l 1,6,-1
 332 256 l 1,7,8
 332 112 332 112 329 14 c 0,9,10
 327 -40 327 -40 323 -77 c 128,-1,11
 319 -114 319 -114 307 -150.5 c 128,-1,12
 295 -187 295 -187 275 -208.5 c 128,-1,13
 255 -230 255 -230 221.5 -243 c 128,-1,14
 188 -256 188 -256 140 -256 c 1,0,-1
EndSplineSet
EndChar

StartChar: hyphen
Encoding: 45 45 16
Width: 384
Flags: W
LayerCount: 2
Fore
SplineSet
0 448 m 1,0,-1
 0 640 l 1,1,-1
 384 640 l 1,2,-1
 384 448 l 1,3,-1
 0 448 l 1,0,-1
EndSplineSet
EndChar

StartChar: period
Encoding: 46 46 17
Width: 384
Flags: W
LayerCount: 2
Fore
SplineSet
64 0 m 1,0,-1
 64 256 l 1,1,-1
 320 256 l 1,2,-1
 320 0 l 1,3,-1
 64 0 l 1,0,-1
EndSplineSet
EndChar

StartChar: slash
Encoding: 47 47 18
Width: 832
Flags: W
LayerCount: 2
Fore
SplineSet
0 0 m 1,0,-1
 575 1792 l 1,1,-1
 832 1792 l 1,2,-1
 256 0 l 1,3,-1
 0 0 l 1,0,-1
EndSplineSet
EndChar

StartChar: zero
Encoding: 48 48 19
Width: 1088
Flags: W
LayerCount: 2
Fore
SplineSet
544 -18 m 0,0,1
 398 -18 398 -18 295.5 51 c 128,-1,2
 193 120 193 120 144.5 237.5 c 128,-1,3
 96 355 96 355 96 512 c 2,4,-1
 96 1280 l 2,5,6
 96 1527 96 1527 208 1668.5 c 128,-1,7
 320 1810 320 1810 544 1810 c 0,8,9
 767 1810 767 1810 879.5 1668 c 128,-1,10
 992 1526 992 1526 992 1280 c 2,11,-1
 992 512 l 2,12,13
 992 271 992 271 877.5 126.5 c 128,-1,14
 763 -18 763 -18 544 -18 c 0,0,1
544 192 m 0,15,16
 736 192 736 192 736 512 c 2,17,-1
 736 1280 l 2,18,19
 736 1334 736 1334 732 1376.5 c 128,-1,20
 728 1419 728 1419 715.5 1462.5 c 128,-1,21
 703 1506 703 1506 682.5 1535 c 128,-1,22
 662 1564 662 1564 627 1582 c 128,-1,23
 592 1600 592 1600 544 1600 c 128,-1,24
 496 1600 496 1600 461 1582 c 128,-1,25
 426 1564 426 1564 405.5 1535 c 128,-1,26
 385 1506 385 1506 372.5 1462.5 c 128,-1,27
 360 1419 360 1419 356 1376.5 c 128,-1,28
 352 1334 352 1334 352 1280 c 2,29,-1
 352 512 l 2,30,31
 352 449 352 449 360.5 396 c 128,-1,32
 369 343 369 343 389.5 295 c 128,-1,33
 410 247 410 247 449 219.5 c 128,-1,34
 488 192 488 192 544 192 c 0,15,16
EndSplineSet
EndChar

StartChar: one
Encoding: 49 49 20
Width: 640
Flags: W
LayerCount: 2
Fore
SplineSet
256 0 m 1,0,-1
 256 1408 l 1,1,-1
 64 1408 l 1,2,-1
 64 1600 l 1,3,4
 257 1669 257 1669 320 1792 c 1,5,-1
 512 1792 l 1,6,-1
 512 0 l 1,7,-1
 256 0 l 1,0,-1
EndSplineSet
EndChar

StartChar: two
Encoding: 50 50 21
Width: 1020
Flags: W
LayerCount: 2
Fore
SplineSet
71 0 m 1,0,-1
 71 256 l 1,1,-1
 520 896 l 2,2,3
 528 907 528 907 555 944.5 c 128,-1,4
 582 982 582 982 591 995.5 c 128,-1,5
 600 1009 600 1009 622 1043.5 c 128,-1,6
 644 1078 644 1078 652.5 1096.5 c 128,-1,7
 661 1115 661 1115 675.5 1149 c 128,-1,8
 690 1183 690 1183 696 1209.5 c 128,-1,9
 702 1236 702 1236 707 1271.5 c 128,-1,10
 712 1307 712 1307 712 1344 c 0,11,12
 712 1451 712 1451 662.5 1525.5 c 128,-1,13
 613 1600 613 1600 520 1600 c 0,14,15
 465 1600 465 1600 426 1573 c 128,-1,16
 387 1546 387 1546 366.5 1498 c 128,-1,17
 346 1450 346 1450 337 1396.5 c 128,-1,18
 328 1343 328 1343 328 1280 c 2,19,-1
 328 1216 l 1,20,-1
 72 1216 l 1,21,-1
 72 1280 l 2,22,23
 72 1532 72 1532 180 1671 c 128,-1,24
 288 1810 288 1810 520 1810 c 0,25,26
 738 1810 738 1810 853 1687.5 c 128,-1,27
 968 1565 968 1565 968 1344 c 0,28,29
 968 1261 968 1261 953.5 1189 c 128,-1,30
 939 1117 939 1117 907.5 1051 c 128,-1,31
 876 985 876 985 849.5 942 c 128,-1,32
 823 899 823 899 776 832 c 1,33,-1
 328 256 l 1,34,-1
 968 256 l 1,35,-1
 968 0 l 1,36,-1
 71 0 l 1,0,-1
EndSplineSet
EndChar

StartChar: three
Encoding: 51 51 22
Width: 1027
Flags: W
LayerCount: 2
Fore
SplineSet
526 -18 m 0,0,1
 308 -18 308 -18 193 104.5 c 128,-1,2
 78 227 78 227 78 448 c 2,3,-1
 78 512 l 1,4,-1
 334 512 l 1,5,6
 334 452 334 452 337.5 409.5 c 128,-1,7
 341 367 341 367 352.5 323 c 128,-1,8
 364 279 364 279 384 252.5 c 128,-1,9
 404 226 404 226 440 209 c 128,-1,10
 476 192 476 192 526 192 c 128,-1,11
 576 192 576 192 612 209 c 128,-1,12
 648 226 648 226 668 252.5 c 128,-1,13
 688 279 688 279 699.5 323 c 128,-1,14
 711 367 711 367 714.5 409.5 c 128,-1,15
 718 452 718 452 718 512 c 0,16,17
 718 666 718 666 658.5 749 c 128,-1,18
 599 832 599 832 462 832 c 1,19,-1
 462 1088 l 1,20,21
 602 1088 602 1088 660 1145.5 c 128,-1,22
 718 1203 718 1203 718 1344 c 0,23,24
 718 1471 718 1471 676 1535.5 c 128,-1,25
 634 1600 634 1600 526 1600 c 0,26,27
 476 1600 476 1600 440 1583 c 128,-1,28
 404 1566 404 1566 384 1539.5 c 128,-1,29
 364 1513 364 1513 352.5 1469 c 128,-1,30
 341 1425 341 1425 337.5 1382.5 c 128,-1,31
 334 1340 334 1340 334 1280 c 1,32,-1
 78 1280 l 1,33,-1
 78 1344 l 2,34,35
 78 1564 78 1564 193.5 1687 c 128,-1,36
 309 1810 309 1810 526 1810 c 0,37,38
 744 1810 744 1810 859 1687.5 c 128,-1,39
 974 1565 974 1565 974 1344 c 0,40,41
 974 1192 974 1192 906 1094.5 c 128,-1,42
 838 997 838 997 718 960 c 1,43,44
 843 918 843 918 908.5 803 c 128,-1,45
 974 688 974 688 974 512 c 0,46,47
 974 260 974 260 866 121 c 128,-1,48
 758 -18 758 -18 526 -18 c 0,0,1
EndSplineSet
EndChar

StartChar: four
Encoding: 52 52 23
Width: 1087
Flags: W
LayerCount: 2
Fore
SplineSet
339 702 m 1,0,-1
 595 702 l 1,1,-1
 595 1472 l 1,2,-1
 339 702 l 1,0,-1
595 0 m 1,3,-1
 595 460 l 1,4,-1
 83 460 l 1,5,-1
 83 745 l 1,6,-1
 531 1793 l 1,7,-1
 851 1793 l 1,8,-1
 851 702 l 1,9,-1
 1049 702 l 1,10,-1
 1049 460 l 1,11,-1
 851 460 l 1,12,-1
 851 0 l 1,13,-1
 595 0 l 1,3,-1
EndSplineSet
EndChar

StartChar: five
Encoding: 53 53 24
Width: 1050
Flags: W
LayerCount: 2
Fore
SplineSet
535 -18 m 0,0,1
 296 -18 296 -18 194 116.5 c 128,-1,2
 92 251 92 251 92 512 c 1,3,-1
 348 512 l 1,4,-1
 348 472 l 2,5,6
 348 421 348 421 351.5 383.5 c 128,-1,7
 355 346 355 346 365.5 306.5 c 128,-1,8
 376 267 376 267 394.5 242.5 c 128,-1,9
 413 218 413 218 445 202 c 128,-1,10
 477 186 477 186 521 186 c 0,11,12
 556 186 556 186 584.5 194.5 c 128,-1,13
 613 203 613 203 633.5 215.5 c 128,-1,14
 654 228 654 228 670 252 c 128,-1,15
 686 276 686 276 696.5 296.5 c 128,-1,16
 707 317 707 317 714 353 c 128,-1,17
 721 389 721 389 724.5 413.5 c 128,-1,18
 728 438 728 438 730 482.5 c 128,-1,19
 732 527 732 527 732 551.5 c 128,-1,20
 732 576 732 576 732 625 c 0,21,22
 732 647 732 647 732 658 c 0,23,24
 732 701 732 701 731 731.5 c 128,-1,25
 730 762 730 762 725.5 797.5 c 128,-1,26
 721 833 721 833 713 857 c 128,-1,27
 705 881 705 881 691 905 c 128,-1,28
 677 929 677 929 657 943 c 128,-1,29
 637 957 637 957 607.5 965.5 c 128,-1,30
 578 974 578 974 541 974 c 0,31,32
 473 974 473 974 423 930 c 128,-1,33
 373 886 373 886 350 826 c 1,34,-1
 132 826 l 1,35,-1
 132 1792 l 1,36,-1
 924 1792 l 1,37,-1
 924 1536 l 1,38,-1
 364 1536 l 1,39,-1
 348 1102 l 1,40,41
 456 1166 456 1166 604 1166 c 0,42,43
 691 1166 691 1166 757.5 1139.5 c 128,-1,44
 824 1113 824 1113 867 1067 c 128,-1,45
 910 1021 910 1021 937.5 953 c 128,-1,46
 965 885 965 885 976.5 809 c 128,-1,47
 988 733 988 733 988 640 c 0,48,49
 988 525 988 525 976 432 c 128,-1,50
 964 339 964 339 933 253 c 128,-1,51
 902 167 902 167 852 109 c 128,-1,52
 802 51 802 51 721.5 16.5 c 128,-1,53
 641 -18 641 -18 535 -18 c 0,0,1
EndSplineSet
EndChar

StartChar: six
Encoding: 54 54 25
Width: 1083
Flags: W
LayerCount: 2
Fore
SplineSet
560 192 m 128,-1,1
 615 192 615 192 654 219 c 128,-1,2
 693 246 693 246 713.5 294 c 128,-1,3
 734 342 734 342 743 395.5 c 128,-1,4
 752 449 752 449 752 512 c 0,5,6
 752 550 752 550 752 569.5 c 128,-1,7
 752 589 752 589 750.5 625 c 128,-1,8
 749 661 749 661 746.5 680.5 c 128,-1,9
 744 700 744 700 739.5 730 c 128,-1,10
 735 760 735 760 728 776.5 c 128,-1,11
 721 793 721 793 710.5 815.5 c 128,-1,12
 700 838 700 838 686 850 c 128,-1,13
 672 862 672 862 654 874 c 128,-1,14
 636 886 636 886 612 891 c 128,-1,15
 588 896 588 896 560 896 c 0,16,17
 436 896 436 896 368 768 c 1,18,-1
 368 512 l 2,19,20
 368 448 368 448 377 395 c 128,-1,21
 386 342 386 342 406.5 294 c 128,-1,22
 427 246 427 246 466 219 c 128,-1,0
 505 192 505 192 560 192 c 128,-1,1
560 -18 m 0,23,24
 468 -18 468 -18 393 13 c 128,-1,25
 318 44 318 44 266.5 98 c 128,-1,26
 215 152 215 152 179.5 227.5 c 128,-1,27
 144 303 144 303 128 390.5 c 128,-1,28
 112 478 112 478 112 576 c 2,29,-1
 112 1152 l 2,30,31
 112 1262 112 1262 125 1355.5 c 128,-1,32
 138 1449 138 1449 170 1534.5 c 128,-1,33
 202 1620 202 1620 252 1680 c 128,-1,34
 302 1740 302 1740 380.5 1775 c 128,-1,35
 459 1810 459 1810 560 1810 c 0,36,37
 776 1810 776 1810 892 1687.5 c 128,-1,38
 1008 1565 1008 1565 1008 1344 c 1,39,-1
 752 1344 l 1,40,41
 752 1472 752 1472 710.5 1536 c 128,-1,42
 669 1600 669 1600 560 1600 c 0,43,44
 368 1600 368 1600 368 1216 c 2,45,-1
 368 960 l 1,46,47
 442 1088 442 1088 624 1088 c 0,48,49
 732 1088 732 1088 808.5 1050.5 c 128,-1,50
 885 1013 885 1013 927.5 941.5 c 128,-1,51
 970 870 970 870 989 781 c 128,-1,52
 1008 692 1008 692 1008 576 c 0,53,54
 1008 450 1008 450 983 345.5 c 128,-1,55
 958 241 958 241 906 158 c 128,-1,56
 854 75 854 75 766 28.5 c 128,-1,57
 678 -18 678 -18 560 -18 c 0,23,24
EndSplineSet
EndChar

StartChar: seven
Encoding: 55 55 26
Width: 826
Flags: W
LayerCount: 2
Fore
SplineSet
190 0 m 1,0,-1
 518 1579 l 1,1,-1
 45 1579 l 1,2,-1
 45 1792 l 1,3,-1
 762 1792 l 1,4,-1
 762 1669 l 1,5,-1
 436 0 l 1,6,-1
 190 0 l 1,0,-1
EndSplineSet
EndChar

StartChar: eight
Encoding: 56 56 27
Width: 1024
Flags: W
LayerCount: 2
Fore
SplineSet
513 1063 m 0,0,1
 563 1063 563 1063 596.5 1086 c 128,-1,2
 630 1109 630 1109 646 1152.5 c 128,-1,3
 662 1196 662 1196 667.5 1240 c 128,-1,4
 673 1284 673 1284 673 1344 c 0,5,6
 673 1600 673 1600 513 1600 c 0,7,8
 351 1600 351 1600 351 1344 c 0,9,10
 351 1284 351 1284 357 1239.5 c 128,-1,11
 363 1195 363 1195 379 1152 c 128,-1,12
 395 1109 395 1109 428.5 1086 c 128,-1,13
 462 1063 462 1063 513 1063 c 0,0,1
513 192 m 128,-1,15
 563 192 563 192 599 210 c 128,-1,16
 635 228 635 228 655 255 c 128,-1,17
 675 282 675 282 686.5 326.5 c 128,-1,18
 698 371 698 371 701 412 c 128,-1,19
 704 453 704 453 704 511 c 0,20,21
 704 575 704 575 696 625.5 c 128,-1,22
 688 676 688 676 668 722 c 128,-1,23
 648 768 648 768 609 793 c 128,-1,24
 570 818 570 818 513 818 c 128,-1,25
 456 818 456 818 416.5 793 c 128,-1,26
 377 768 377 768 356.5 722.5 c 128,-1,27
 336 677 336 677 328 626.5 c 128,-1,28
 320 576 320 576 320 511 c 0,29,30
 320 453 320 453 323.5 411.5 c 128,-1,31
 327 370 327 370 338.5 325.5 c 128,-1,32
 350 281 350 281 370.5 254 c 128,-1,33
 391 227 391 227 427 209.5 c 128,-1,14
 463 192 463 192 513 192 c 128,-1,15
513 -18 m 0,34,35
 277 -18 277 -18 170.5 118.5 c 128,-1,36
 64 255 64 255 64 511 c 0,37,38
 64 678 64 678 110 779.5 c 128,-1,39
 156 881 156 881 258 946 c 1,40,41
 172 1011 172 1011 131 1106 c 128,-1,42
 90 1201 90 1201 90 1344 c 0,43,44
 90 1566 90 1566 196 1688 c 128,-1,45
 302 1810 302 1810 513 1810 c 0,46,47
 723 1810 723 1810 828.5 1687.5 c 128,-1,48
 934 1565 934 1565 934 1344 c 0,49,50
 934 1200 934 1200 893.5 1105.5 c 128,-1,51
 853 1011 853 1011 767 946 c 1,52,53
 868 880 868 880 914 778 c 128,-1,54
 960 676 960 676 960 511 c 0,55,56
 960 255 960 255 854 118.5 c 128,-1,57
 748 -18 748 -18 513 -18 c 0,34,35
EndSplineSet
EndChar

StartChar: nine
Encoding: 57 57 28
Width: 1083
Flags: W
LayerCount: 2
Fore
SplineSet
540 896 m 0,0,1
 662 896 662 896 732 1024 c 1,2,-1
 732 1280 l 2,3,4
 732 1344 732 1344 723 1397 c 128,-1,5
 714 1450 714 1450 693.5 1498 c 128,-1,6
 673 1546 673 1546 634 1573 c 128,-1,7
 595 1600 595 1600 540 1600 c 128,-1,8
 485 1600 485 1600 446 1573 c 128,-1,9
 407 1546 407 1546 386.5 1498 c 128,-1,10
 366 1450 366 1450 357 1396.5 c 128,-1,11
 348 1343 348 1343 348 1280 c 0,12,13
 348 1242 348 1242 348 1222.5 c 128,-1,14
 348 1203 348 1203 349.5 1167 c 128,-1,15
 351 1131 351 1131 353.5 1111.5 c 128,-1,16
 356 1092 356 1092 360.5 1062 c 128,-1,17
 365 1032 365 1032 372 1015.5 c 128,-1,18
 379 999 379 999 389.5 976.5 c 128,-1,19
 400 954 400 954 414 942 c 128,-1,20
 428 930 428 930 446 918 c 128,-1,21
 464 906 464 906 488 901 c 128,-1,22
 512 896 512 896 540 896 c 0,0,1
540 -18 m 0,23,24
 324 -18 324 -18 208 104.5 c 128,-1,25
 92 227 92 227 92 448 c 1,26,-1
 348 448 l 1,27,28
 348 320 348 320 389.5 256 c 128,-1,29
 431 192 431 192 540 192 c 0,30,31
 732 192 732 192 732 576 c 2,32,-1
 732 832 l 1,33,34
 656 704 656 704 476 704 c 0,35,36
 368 704 368 704 291.5 741.5 c 128,-1,37
 215 779 215 779 172.5 850.5 c 128,-1,38
 130 922 130 922 111 1011 c 128,-1,39
 92 1100 92 1100 92 1216 c 0,40,41
 92 1342 92 1342 117 1446.5 c 128,-1,42
 142 1551 142 1551 194 1634 c 128,-1,43
 246 1717 246 1717 334 1763.5 c 128,-1,44
 422 1810 422 1810 540 1810 c 0,45,46
 632 1810 632 1810 707 1779 c 128,-1,47
 782 1748 782 1748 833.5 1694 c 128,-1,48
 885 1640 885 1640 920.5 1564.5 c 128,-1,49
 956 1489 956 1489 972 1401.5 c 128,-1,50
 988 1314 988 1314 988 1216 c 2,51,-1
 988 640 l 2,52,53
 988 530 988 530 975 436.5 c 128,-1,54
 962 343 962 343 930 257.5 c 128,-1,55
 898 172 898 172 848 112 c 128,-1,56
 798 52 798 52 719.5 17 c 128,-1,57
 641 -18 641 -18 540 -18 c 0,23,24
EndSplineSet
EndChar

StartChar: colon
Encoding: 58 58 29
Width: 439
Flags: W
LayerCount: 2
Fore
SplineSet
128 832 m 1,0,-1
 128 1088 l 1,1,-1
 384 1088 l 1,2,-1
 384 832 l 1,3,-1
 128 832 l 1,0,-1
128 256 m 1,4,-1
 128 512 l 1,5,-1
 384 512 l 1,6,-1
 384 256 l 1,7,-1
 128 256 l 1,4,-1
EndSplineSet
EndChar

StartChar: semicolon
Encoding: 59 59 30
Width: 384
Flags: W
LayerCount: 2
Fore
SplineSet
64 832 m 1,0,-1
 64 1088 l 1,1,-1
 320 1088 l 1,2,-1
 320 832 l 1,3,-1
 64 832 l 1,0,-1
128 0 m 1,4,-1
 64 128 l 1,5,6
 133 128 133 128 162.5 158 c 128,-1,7
 192 188 192 188 192 256 c 1,8,-1
 64 256 l 1,9,-1
 64 512 l 1,10,-1
 320 512 l 1,11,12
 320 368 320 368 317 270 c 0,13,14
 315 216 315 216 311 179 c 128,-1,15
 307 142 307 142 295 105.5 c 128,-1,16
 283 69 283 69 263 47.5 c 128,-1,17
 243 26 243 26 209.5 13 c 128,-1,18
 176 0 176 0 128 0 c 1,4,-1
EndSplineSet
EndChar

StartChar: less
Encoding: 60 60 31
Width: 832
Flags: W
LayerCount: 2
Fore
SplineSet
704 64 m 1,0,-1
 64 512 l 1,1,-1
 64 768 l 1,2,-1
 704 1216 l 1,3,-1
 704 960 l 1,4,-1
 256 641 l 1,5,-1
 704 320 l 1,6,-1
 704 64 l 1,0,-1
EndSplineSet
EndChar

StartChar: equal
Encoding: 61 61 32
Width: 704
Flags: W
LayerCount: 2
Fore
SplineSet
64 576 m 1,0,-1
 64 768 l 1,1,-1
 640 768 l 1,2,-1
 640 576 l 1,3,-1
 64 576 l 1,0,-1
64 255 m 1,4,-1
 64 447 l 1,5,-1
 640 447 l 1,6,-1
 640 255 l 1,7,-1
 64 255 l 1,4,-1
EndSplineSet
EndChar

StartChar: greater
Encoding: 62 62 33
Width: 832
Flags: W
LayerCount: 2
Fore
SplineSet
128 64 m 1,0,-1
 128 320 l 1,1,-1
 576 641 l 1,2,-1
 128 960 l 1,3,-1
 128 1216 l 1,4,-1
 768 768 l 1,5,-1
 768 512 l 1,6,-1
 128 64 l 1,0,-1
EndSplineSet
EndChar

StartChar: question
Encoding: 63 63 34
Width: 1152
Flags: W
LayerCount: 2
Fore
SplineSet
384 0 m 1,0,-1
 384 256 l 1,1,-1
 640 256 l 1,2,-1
 640 0 l 1,3,-1
 384 0 l 1,0,-1
384 384 m 1,4,-1
 384 704 l 1,5,6
 447 742 447 742 493.5 774 c 128,-1,7
 540 806 540 806 595.5 855.5 c 128,-1,8
 651 905 651 905 685.5 955 c 128,-1,9
 720 1005 720 1005 744 1073 c 128,-1,10
 768 1141 768 1141 768 1216 c 0,11,12
 768 1408 768 1408 576 1408 c 0,13,14
 468 1408 468 1408 426 1343.5 c 128,-1,15
 384 1279 384 1279 384 1152 c 1,16,-1
 128 1152 l 1,17,-1
 128 1216 l 2,18,19
 128 1435 128 1435 243.5 1549.5 c 128,-1,20
 359 1664 359 1664 576 1664 c 0,21,22
 795 1664 795 1664 910 1548.5 c 128,-1,23
 1025 1433 1025 1433 1025 1216 c 0,24,25
 1025 1004 1025 1004 923.5 865.5 c 128,-1,26
 822 727 822 727 640 640 c 1,27,-1
 640 384 l 1,28,-1
 384 384 l 1,4,-1
EndSplineSet
EndChar

StartChar: at
Encoding: 64 64 35
Width: 1782
Flags: W
LayerCount: 2
Fore
SplineSet
884 502 m 0,0,1
 953 502 953 502 958 542 c 1,2,-1
 958 945 l 1,3,4
 951 996 951 996 904 996 c 0,5,6
 884 996 884 996 867 992 c 128,-1,7
 850 988 850 988 837 977.5 c 128,-1,8
 824 967 824 967 814 957.5 c 128,-1,9
 804 948 804 948 796.5 929 c 128,-1,10
 789 910 789 910 784 897.5 c 128,-1,11
 779 885 779 885 776 859.5 c 128,-1,12
 773 834 773 834 771.5 820.5 c 128,-1,13
 770 807 770 807 769 777.5 c 128,-1,14
 768 748 768 748 768 736 c 128,-1,15
 768 724 768 724 768 693 c 0,16,17
 768 502 768 502 884 502 c 0,0,1
958 -128 m 0,18,19
 524 -128 524 -128 326 93.5 c 128,-1,20
 128 315 128 315 128 768 c 0,21,22
 128 1140 128 1140 331 1356 c 128,-1,23
 534 1572 534 1572 896 1572 c 0,24,25
 1267 1572 1267 1572 1460.5 1360.5 c 128,-1,26
 1654 1149 1654 1149 1654 768 c 0,27,28
 1654 667 1654 667 1632 581.5 c 128,-1,29
 1610 496 1610 496 1566 431 c 128,-1,30
 1522 366 1522 366 1450.5 329 c 128,-1,31
 1379 292 1379 292 1286 292 c 0,32,33
 1190 292 1190 292 1118.5 326 c 128,-1,34
 1047 360 1047 360 1011 420 c 1,35,36
 954 292 954 292 840 292 c 0,37,38
 734 292 734 292 658.5 348 c 128,-1,39
 583 404 583 404 547.5 493 c 128,-1,40
 512 582 512 582 512 693 c 0,41,42
 512 770 512 770 521 839.5 c 128,-1,43
 530 909 530 909 552.5 975.5 c 128,-1,44
 575 1042 575 1042 609 1090 c 128,-1,45
 643 1138 643 1138 696 1167.5 c 128,-1,46
 749 1197 749 1197 816 1197 c 0,47,48
 882 1197 882 1197 918.5 1160.5 c 128,-1,49
 955 1124 955 1124 958 1061 c 1,50,-1
 958 1188 l 1,51,-1
 1214 1188 l 1,52,-1
 1214 620 l 2,53,54
 1214 582 1214 582 1217 560 c 128,-1,55
 1220 538 1220 538 1236 520 c 128,-1,56
 1252 502 1252 502 1282 502 c 0,57,58
 1398 502 1398 502 1398 768 c 0,59,60
 1398 916 1398 916 1372 1025.5 c 128,-1,61
 1346 1135 1346 1135 1288 1216.5 c 128,-1,62
 1230 1298 1230 1298 1132 1339 c 128,-1,63
 1034 1380 1034 1380 896 1380 c 0,64,65
 767 1380 767 1380 668 1335 c 128,-1,66
 569 1290 569 1290 507.5 1208 c 128,-1,67
 446 1126 446 1126 415 1015 c 128,-1,68
 384 904 384 904 384 768 c 0,69,70
 384 596 384 596 413 470.5 c 128,-1,71
 442 345 442 345 507 251.5 c 128,-1,72
 572 158 572 158 684.5 111 c 128,-1,73
 797 64 797 64 958 64 c 0,74,75
 1083 64 1083 64 1254 119 c 1,76,-1
 1348 -77 l 1,77,78
 1125 -128 1125 -128 958 -128 c 0,18,19
EndSplineSet
EndChar

StartChar: A
Encoding: 65 65 36
Width: 1056
Flags: W
LayerCount: 2
Fore
SplineSet
400 640 m 1,0,-1
 656 640 l 1,1,-1
 528 1408 l 1,2,-1
 400 640 l 1,0,-1
16 0 m 1,3,-1
 400 1792 l 1,4,-1
 656 1792 l 1,5,-1
 1040 0 l 1,6,-1
 784 0 l 1,7,-1
 688 448 l 1,8,-1
 368 448 l 1,9,-1
 272 0 l 1,10,-1
 16 0 l 1,3,-1
EndSplineSet
EndChar

StartChar: B
Encoding: 66 66 37
Width: 1146
Flags: W
LayerCount: 2
Fore
SplineSet
384 1024 m 1,0,-1
 512 1024 l 2,1,2
 832 1024 832 1024 832 1344 c 0,3,4
 832 1397 832 1397 819 1437.5 c 128,-1,5
 806 1478 806 1478 788 1505 c 128,-1,6
 770 1532 770 1532 733.5 1550.5 c 128,-1,7
 697 1569 697 1569 667 1579 c 128,-1,8
 637 1589 637 1589 581.5 1593.5 c 128,-1,9
 526 1598 526 1598 489 1599 c 128,-1,10
 452 1600 452 1600 384 1600 c 1,11,-1
 384 1024 l 1,0,-1
384 192 m 1,12,-1
 512 192 l 2,13,14
 678 192 678 192 755 268.5 c 128,-1,15
 832 345 832 345 832 512 c 128,-1,16
 832 679 832 679 755 755.5 c 128,-1,17
 678 832 678 832 512 832 c 2,18,-1
 384 832 l 1,19,-1
 384 192 l 1,12,-1
128 0 m 1,20,-1
 128 1792 l 1,21,-1
 512 1792 l 2,22,23
 636 1792 636 1792 734 1766 c 128,-1,24
 832 1740 832 1740 905.5 1687 c 128,-1,25
 979 1634 979 1634 1018.5 1547 c 128,-1,26
 1058 1460 1058 1460 1058 1344 c 0,27,28
 1058 1176 1058 1176 987 1088.5 c 128,-1,29
 916 1001 916 1001 768 960 c 1,30,31
 928 907 928 907 1008 804.5 c 128,-1,32
 1088 702 1088 702 1088 512 c 0,33,34
 1088 275 1088 275 950.5 137.5 c 128,-1,35
 813 0 813 0 576 0 c 2,36,-1
 128 0 l 1,20,-1
EndSplineSet
EndChar

StartChar: C
Encoding: 67 67 38
Width: 1107
Flags: W
LayerCount: 2
Fore
SplineSet
588 -18 m 0,0,1
 475 -18 475 -18 389 14 c 128,-1,2
 303 46 303 46 248 102.5 c 128,-1,3
 193 159 193 159 158.5 243.5 c 128,-1,4
 124 328 124 328 110 424 c 128,-1,5
 96 520 96 520 96 641 c 2,6,-1
 96 1152 l 2,7,8
 96 1273 96 1273 110 1369 c 128,-1,9
 124 1465 124 1465 158.5 1549.5 c 128,-1,10
 193 1634 193 1634 248 1690 c 128,-1,11
 303 1746 303 1746 389 1778 c 128,-1,12
 475 1810 475 1810 588 1810 c 0,13,14
 713 1810 713 1810 804 1773 c 128,-1,15
 895 1736 895 1736 949.5 1664 c 128,-1,16
 1004 1592 1004 1592 1031.5 1497 c 128,-1,17
 1059 1402 1059 1402 1064 1275 c 0,18,19
 1065 1256 1065 1256 1065 1216 c 1,20,-1
 809 1216 l 1,21,-1
 809 1273 l 1,22,23
 808 1326 808 1326 805 1363.5 c 128,-1,24
 802 1401 802 1401 794 1441 c 128,-1,25
 786 1481 786 1481 770.5 1507.5 c 128,-1,26
 755 1534 755 1534 731.5 1556.5 c 128,-1,27
 708 1579 708 1579 672 1589.5 c 128,-1,28
 636 1600 636 1600 588 1600 c 0,29,30
 526 1600 526 1600 481.5 1580 c 128,-1,31
 437 1560 437 1560 412 1528.5 c 128,-1,32
 387 1497 387 1497 373.5 1444 c 128,-1,33
 360 1391 360 1391 356 1340.5 c 128,-1,34
 352 1290 352 1290 352 1216 c 2,35,-1
 352 576 l 2,36,37
 352 512 352 512 357.5 460 c 128,-1,38
 363 408 363 408 379 356.5 c 128,-1,39
 395 305 395 305 420.5 270 c 128,-1,40
 446 235 446 235 488.5 213.5 c 128,-1,41
 531 192 531 192 588 192 c 128,-1,42
 645 192 645 192 686 214 c 128,-1,43
 727 236 727 236 750.5 270 c 128,-1,44
 774 304 774 304 787.5 357 c 128,-1,45
 801 410 801 410 805 460 c 128,-1,46
 809 510 809 510 809 576 c 2,47,-1
 809 640 l 1,48,-1
 1065 640 l 1,49,-1
 1065 576 l 2,50,51
 1065 437 1065 437 1040.5 332 c 128,-1,52
 1016 227 1016 227 961.5 146.5 c 128,-1,53
 907 66 907 66 813.5 24 c 128,-1,54
 720 -18 720 -18 588 -18 c 0,0,1
EndSplineSet
EndChar

StartChar: D
Encoding: 68 68 39
Width: 1133
Flags: W
LayerCount: 2
Fore
SplineSet
128 0 m 1,0,-1
 128 1792 l 1,1,-1
 525 1792 l 2,2,3
 806 1792 806 1792 921.5 1677 c 128,-1,4
 1037 1562 1037 1562 1037 1280 c 2,5,-1
 1037 576 l 2,6,7
 1037 281 1037 281 919.5 140.5 c 128,-1,8
 802 0 802 0 523 0 c 2,9,-1
 128 0 l 1,0,-1
384 192 m 1,10,-1
 525 192 l 2,11,12
 588 192 588 192 633 203.5 c 128,-1,13
 678 215 678 215 706 245.5 c 128,-1,14
 734 276 734 276 750 303.5 c 128,-1,15
 766 331 766 331 772.5 389 c 128,-1,16
 779 447 779 447 780 484.5 c 128,-1,17
 781 522 781 522 781 601 c 0,18,19
 781 627 781 627 781 640 c 2,20,-1
 781 1216 l 2,21,22
 781 1265 781 1265 780.5 1294 c 128,-1,23
 780 1323 780 1323 777.5 1362.5 c 128,-1,24
 775 1402 775 1402 770 1425 c 128,-1,25
 765 1448 765 1448 756 1476.5 c 128,-1,26
 747 1505 747 1505 733.5 1521 c 128,-1,27
 720 1537 720 1537 700.5 1554.5 c 128,-1,28
 681 1572 681 1572 655.5 1580.5 c 128,-1,29
 630 1589 630 1589 596 1594.5 c 128,-1,30
 562 1600 562 1600 520 1600 c 2,31,-1
 384 1600 l 1,32,-1
 384 192 l 1,10,-1
EndSplineSet
EndChar

StartChar: E
Encoding: 69 69 40
Width: 861
Flags: W
LayerCount: 2
Fore
SplineSet
128 0 m 1,0,-1
 128 1792 l 1,1,-1
 832 1792 l 1,2,-1
 832 1600 l 1,3,-1
 384 1600 l 1,4,-1
 384 1024 l 1,5,-1
 704 1024 l 1,6,-1
 704 832 l 1,7,-1
 384 832 l 1,8,-1
 384 192 l 1,9,-1
 832 192 l 1,10,-1
 832 0 l 1,11,-1
 128 0 l 1,0,-1
EndSplineSet
EndChar

StartChar: F
Encoding: 70 70 41
Width: 821
Flags: W
LayerCount: 2
Fore
SplineSet
128 0 m 1,0,-1
 128 1792 l 1,1,-1
 832 1792 l 1,2,-1
 832 1600 l 1,3,-1
 384 1600 l 1,4,-1
 384 1024 l 1,5,-1
 704 1024 l 1,6,-1
 704 832 l 1,7,-1
 384 832 l 1,8,-1
 384 0 l 1,9,-1
 128 0 l 1,0,-1
EndSplineSet
EndChar

StartChar: G
Encoding: 71 71 42
Width: 1199
Flags: W
LayerCount: 2
Fore
SplineSet
608 -18 m 0,0,1
 485 -18 485 -18 394.5 17 c 128,-1,2
 304 52 304 52 247 112 c 128,-1,3
 190 172 190 172 156 265 c 128,-1,4
 122 358 122 358 109 461 c 128,-1,5
 96 564 96 564 96 698 c 2,6,-1
 96 1152 l 2,7,8
 96 1810 96 1810 618 1810 c 0,9,10
 743 1810 743 1810 835 1772.5 c 128,-1,11
 927 1735 927 1735 984 1663 c 128,-1,12
 1041 1591 1041 1591 1070 1494.5 c 128,-1,13
 1099 1398 1099 1398 1104 1271 c 0,14,15
 1105 1253 1105 1253 1105 1216 c 1,16,-1
 849 1216 l 1,17,-1
 849 1270 l 1,18,19
 848 1333 848 1333 842.5 1378.5 c 128,-1,20
 837 1424 837 1424 822.5 1468 c 128,-1,21
 808 1512 808 1512 783 1539.5 c 128,-1,22
 758 1567 758 1567 716.5 1583.5 c 128,-1,23
 675 1600 675 1600 618 1600 c 0,24,25
 540 1600 540 1600 486.5 1571.5 c 128,-1,26
 433 1543 433 1543 404.5 1488.5 c 128,-1,27
 376 1434 376 1434 364 1368.5 c 128,-1,28
 352 1303 352 1303 352 1216 c 2,29,-1
 352 640 l 2,30,31
 352 576 352 576 356 524.5 c 128,-1,32
 360 473 360 473 369.5 419.5 c 128,-1,33
 379 366 379 366 397.5 327 c 128,-1,34
 416 288 416 288 443.5 256.5 c 128,-1,35
 471 225 471 225 512.5 208.5 c 128,-1,36
 554 192 554 192 608 192 c 0,37,38
 672 192 672 192 719 217 c 128,-1,39
 766 242 766 242 793.5 281.5 c 128,-1,40
 821 321 821 321 837 382 c 128,-1,41
 853 443 853 443 858.5 503 c 128,-1,42
 864 563 864 563 864 640 c 2,43,-1
 864 704 l 1,44,-1
 608 704 l 1,45,-1
 608 894 l 1,46,-1
 1120 894 l 1,47,-1
 1120 0 l 1,48,-1
 928 0 l 1,49,-1
 864 192 l 1,50,51
 789 -18 789 -18 608 -18 c 0,0,1
EndSplineSet
EndChar

StartChar: H
Encoding: 72 72 43
Width: 1216
Flags: W
LayerCount: 2
Fore
SplineSet
128 0 m 1,0,-1
 128 1792 l 1,1,-1
 384 1792 l 1,2,-1
 384 1024 l 1,3,-1
 832 1024 l 1,4,-1
 832 1792 l 1,5,-1
 1088 1792 l 1,6,-1
 1088 0 l 1,7,-1
 832 0 l 1,8,-1
 832 832 l 1,9,-1
 384 832 l 1,10,-1
 384 0 l 1,11,-1
 128 0 l 1,0,-1
EndSplineSet
EndChar

StartChar: I
Encoding: 73 73 44
Width: 542
Flags: W
LayerCount: 2
Fore
SplineSet
140 0 m 1,0,-1
 140 1792 l 1,1,-1
 396 1792 l 1,2,-1
 396 0 l 1,3,-1
 140 0 l 1,0,-1
EndSplineSet
EndChar

StartChar: J
Encoding: 74 74 45
Width: 640
Flags: W
LayerCount: 2
Fore
SplineSet
0 0 m 1,0,-1
 0 192 l 1,1,2
 83 192 83 192 129.5 201 c 128,-1,3
 176 210 176 210 206 239.5 c 128,-1,4
 236 269 236 269 246 316.5 c 128,-1,5
 256 364 256 364 256 448 c 2,6,-1
 256 1792 l 1,7,-1
 512 1792 l 1,8,-1
 512 448 l 2,9,10
 512 326 512 326 496 246.5 c 128,-1,11
 480 167 480 167 437.5 109 c 128,-1,12
 395 51 395 51 319.5 25.5 c 128,-1,13
 244 0 244 0 128 0 c 2,14,-1
 0 0 l 1,0,-1
EndSplineSet
EndChar

StartChar: K
Encoding: 75 75 46
Width: 1118
Flags: W
LayerCount: 2
Fore
SplineSet
128 0 m 1,0,-1
 128 1792 l 1,1,-1
 384 1792 l 1,2,-1
 384 1024 l 1,3,-1
 768 1792 l 1,4,-1
 1088 1792 l 1,5,-1
 703 1088 l 1,6,-1
 1152 0 l 1,7,-1
 832 0 l 1,8,-1
 512 832 l 1,9,-1
 384 576 l 1,10,-1
 384 0 l 1,11,-1
 128 0 l 1,0,-1
EndSplineSet
EndChar

StartChar: L
Encoding: 76 76 47
Width: 823
Flags: W
LayerCount: 2
Fore
SplineSet
128 0 m 1,0,-1
 128 1792 l 1,1,-1
 384 1792 l 1,2,-1
 384 192 l 1,3,-1
 832 192 l 1,4,-1
 832 0 l 1,5,-1
 128 0 l 1,0,-1
EndSplineSet
EndChar

StartChar: M
Encoding: 77 77 48
Width: 1472
Flags: W
LayerCount: 2
Fore
SplineSet
128 0 m 1,0,-1
 128 1792 l 1,1,-1
 482 1792 l 1,2,-1
 736 420 l 1,3,-1
 990 1792 l 1,4,-1
 1344 1792 l 1,5,-1
 1344 0 l 1,6,-1
 1088 0 l 1,7,-1
 1088 1414 l 1,8,-1
 832 0 l 1,9,-1
 640 0 l 1,10,-1
 384 1414 l 1,11,-1
 384 0 l 1,12,-1
 128 0 l 1,0,-1
EndSplineSet
EndChar

StartChar: N
Encoding: 78 78 49
Width: 1152
Flags: W
LayerCount: 2
Fore
SplineSet
128 0 m 1,0,-1
 128 1792 l 1,1,-1
 320 1792 l 1,2,-1
 768 684 l 1,3,-1
 768 1792 l 1,4,-1
 1024 1792 l 1,5,-1
 1024 0 l 1,6,-1
 842 0 l 1,7,-1
 384 1192 l 1,8,-1
 384 0 l 1,9,-1
 128 0 l 1,0,-1
EndSplineSet
EndChar

StartChar: O
Encoding: 79 79 50
Width: 1180
Flags: W
LayerCount: 2
Fore
SplineSet
590 -18 m 0,0,1
 455 -18 455 -18 358.5 23 c 128,-1,2
 262 64 262 64 205 143 c 128,-1,3
 148 222 148 222 122 328.5 c 128,-1,4
 96 435 96 435 96 576 c 2,5,-1
 96 1226 l 2,6,7
 96 1367 96 1367 122 1472 c 128,-1,8
 148 1577 148 1577 205 1654.5 c 128,-1,9
 262 1732 262 1732 358.5 1771 c 128,-1,10
 455 1810 455 1810 590 1810 c 0,11,12
 852 1810 852 1810 968 1660 c 128,-1,13
 1084 1510 1084 1510 1084 1226 c 2,14,-1
 1084 576 l 2,15,16
 1084 437 1084 437 1057.5 330.5 c 128,-1,17
 1031 224 1031 224 974 144.5 c 128,-1,18
 917 65 917 65 820.5 23.5 c 128,-1,19
 724 -18 724 -18 590 -18 c 0,0,1
590 192 m 128,-1,21
 725 192 725 192 776.5 273 c 128,-1,22
 828 354 828 354 828 512 c 2,23,-1
 828 1290 l 2,24,25
 828 1446 828 1446 777 1523 c 128,-1,26
 726 1600 726 1600 590 1600 c 128,-1,27
 454 1600 454 1600 403 1523 c 128,-1,28
 352 1446 352 1446 352 1290 c 2,29,-1
 352 512 l 2,30,31
 352 354 352 354 403.5 273 c 128,-1,20
 455 192 455 192 590 192 c 128,-1,21
EndSplineSet
EndChar

StartChar: P
Encoding: 80 80 51
Width: 1041
Flags: W
LayerCount: 2
Fore
SplineSet
384 1024 m 1,0,-1
 448 1024 l 2,1,2
 535 1024 535 1024 590.5 1034 c 128,-1,3
 646 1044 646 1044 688.5 1071.5 c 128,-1,4
 731 1099 731 1099 749.5 1150 c 128,-1,5
 768 1201 768 1201 768 1280 c 0,6,7
 768 1376 768 1376 754 1435.5 c 128,-1,8
 740 1495 740 1495 702.5 1533 c 128,-1,9
 665 1571 665 1571 605.5 1585.5 c 128,-1,10
 546 1600 546 1600 448 1600 c 2,11,-1
 384 1600 l 1,12,-1
 384 1024 l 1,0,-1
128 0 m 1,13,-1
 128 1792 l 1,14,-1
 576 1792 l 2,15,16
 1024 1792 1024 1792 1024 1280 c 0,17,18
 1024 1061 1024 1061 908.5 946.5 c 128,-1,19
 793 832 793 832 576 832 c 2,20,-1
 384 832 l 1,21,-1
 384 0 l 1,22,-1
 128 0 l 1,13,-1
EndSplineSet
EndChar

StartChar: Q
Encoding: 81 81 52
Width: 1180
Flags: W
LayerCount: 2
Fore
SplineSet
590 192 m 128,-1,1
 725 192 725 192 776.5 273 c 128,-1,2
 828 354 828 354 828 512 c 2,3,-1
 828 1290 l 2,4,5
 828 1446 828 1446 777 1523 c 128,-1,6
 726 1600 726 1600 590 1600 c 128,-1,7
 454 1600 454 1600 403 1523 c 128,-1,8
 352 1446 352 1446 352 1290 c 2,9,-1
 352 512 l 2,10,11
 352 354 352 354 403.5 273 c 128,-1,0
 455 192 455 192 590 192 c 128,-1,1
1063 -256 m 1,12,13
 954 -256 954 -256 846.5 -180 c 128,-1,14
 739 -104 739 -104 690 -11 c 1,15,16
 647 -18 647 -18 590 -18 c 0,17,18
 455 -18 455 -18 358.5 23 c 128,-1,19
 262 64 262 64 205 143 c 128,-1,20
 148 222 148 222 122 328.5 c 128,-1,21
 96 435 96 435 96 576 c 2,22,-1
 96 1226 l 2,23,24
 96 1367 96 1367 122 1472 c 128,-1,25
 148 1577 148 1577 205 1654.5 c 128,-1,26
 262 1732 262 1732 358.5 1771 c 128,-1,27
 455 1810 455 1810 590 1810 c 0,28,29
 852 1810 852 1810 968 1660 c 128,-1,30
 1084 1510 1084 1510 1084 1226 c 2,31,-1
 1084 576 l 2,32,33
 1084 180 1084 180 869 49 c 1,34,35
 898 7 898 7 956.5 -19.5 c 128,-1,36
 1015 -46 1015 -46 1063 -46 c 1,37,-1
 1063 -256 l 1,12,13
EndSplineSet
EndChar

StartChar: R
Encoding: 82 82 53
Width: 1108
Flags: W
LayerCount: 2
Fore
SplineSet
384 1024 m 1,0,-1
 448 1024 l 2,1,2
 608 1024 608 1024 688 1091.5 c 128,-1,3
 768 1159 768 1159 768 1312 c 128,-1,4
 768 1465 768 1465 688 1532.5 c 128,-1,5
 608 1600 608 1600 448 1600 c 2,6,-1
 384 1600 l 1,7,-1
 384 1024 l 1,0,-1
128 0 m 1,8,-1
 128 1792 l 1,9,-1
 448 1792 l 2,10,11
 734 1792 734 1792 879 1681 c 128,-1,12
 1024 1570 1024 1570 1024 1312 c 0,13,14
 1024 1152 1024 1152 967 1044 c 128,-1,15
 910 936 910 936 800 896 c 1,16,-1
 1088 0 l 1,17,-1
 834 0 l 1,18,-1
 576 832 l 1,19,-1
 384 832 l 1,20,-1
 384 0 l 1,21,-1
 128 0 l 1,8,-1
EndSplineSet
EndChar

StartChar: S
Encoding: 83 83 54
Width: 1102
Flags: W
LayerCount: 2
Fore
SplineSet
595 -18 m 0,0,1
 353 -18 353 -18 225.5 124 c 128,-1,2
 98 266 98 266 83 512 c 1,3,-1
 339 576 l 1,4,5
 358 192 358 192 595 192 c 0,6,7
 787 192 787 192 787 384 c 0,8,9
 787 441 787 441 771.5 489.5 c 128,-1,10
 756 538 756 538 724 578.5 c 128,-1,11
 692 619 692 619 666 643.5 c 128,-1,12
 640 668 640 668 595 704 c 2,13,-1
 275 960 l 1,14,15
 187 1029 187 1029 134.5 1135.5 c 128,-1,16
 82 1242 82 1242 82 1378 c 0,17,18
 82 1576 82 1576 205 1693 c 128,-1,19
 328 1810 328 1810 531 1810 c 0,20,21
 749 1810 749 1810 877.5 1703.5 c 128,-1,22
 1006 1597 1006 1597 1036 1402 c 0,23,24
 1039 1381 1039 1381 1043 1344 c 1,25,-1
 787 1280 l 1,26,27
 786 1297 786 1297 782 1331 c 0,28,29
 765 1453 765 1453 705.5 1526.5 c 128,-1,30
 646 1600 646 1600 531 1600 c 0,31,32
 439 1600 439 1600 389 1548.5 c 128,-1,33
 339 1497 339 1497 339 1405 c 0,34,35
 339 1254 339 1254 467 1152 c 2,36,-1
 787 896 l 1,37,38
 1043 689 1043 689 1043 401 c 0,39,40
 1043 204 1043 204 921.5 93 c 128,-1,41
 800 -18 800 -18 595 -18 c 0,0,1
EndSplineSet
EndChar

StartChar: T
Encoding: 84 84 55
Width: 894
Flags: W
LayerCount: 2
Fore
SplineSet
319 0 m 1,0,-1
 319 1564 l 1,1,-1
 -1 1564 l 1,2,-1
 -1 1792 l 1,3,-1
 895 1792 l 1,4,-1
 895 1564 l 1,5,-1
 575 1564 l 1,6,-1
 575 0 l 1,7,-1
 319 0 l 1,0,-1
EndSplineSet
EndChar

StartChar: U
Encoding: 85 85 56
Width: 1252
Flags: W
LayerCount: 2
Fore
SplineSet
626 -19 m 128,-1,1
 509 -19 509 -19 420 12 c 128,-1,2
 331 43 331 43 273.5 98.5 c 128,-1,3
 216 154 216 154 180 238 c 128,-1,4
 144 322 144 322 129 419.5 c 128,-1,5
 114 517 114 517 114 640 c 2,6,-1
 114 1792 l 1,7,-1
 370 1792 l 1,8,-1
 370 640 l 2,9,10
 370 557 370 557 373.5 501 c 128,-1,11
 377 445 377 445 392 381.5 c 128,-1,12
 407 318 407 318 433.5 280 c 128,-1,13
 460 242 460 242 508.5 217 c 128,-1,14
 557 192 557 192 626 192 c 128,-1,15
 695 192 695 192 743.5 217 c 128,-1,16
 792 242 792 242 818.5 280 c 128,-1,17
 845 318 845 318 860 381.5 c 128,-1,18
 875 445 875 445 878.5 501 c 128,-1,19
 882 557 882 557 882 640 c 2,20,-1
 882 1792 l 1,21,-1
 1138 1792 l 1,22,-1
 1138 640 l 2,23,24
 1138 517 1138 517 1123 419.5 c 128,-1,25
 1108 322 1108 322 1072 238 c 128,-1,26
 1036 154 1036 154 978.5 98.5 c 128,-1,27
 921 43 921 43 832 12 c 128,-1,0
 743 -19 743 -19 626 -19 c 128,-1,1
EndSplineSet
EndChar

StartChar: V
Encoding: 86 86 57
Width: 1048
Flags: W
LayerCount: 2
Fore
SplineSet
396 0 m 1,0,-1
 12 1792 l 1,1,-1
 268 1792 l 1,2,-1
 457 832 l 1,3,-1
 523 384 l 1,4,-1
 591 832 l 1,5,-1
 780 1792 l 1,6,-1
 1036 1792 l 1,7,-1
 652 0 l 1,8,-1
 396 0 l 1,0,-1
EndSplineSet
EndChar

StartChar: W
Encoding: 87 87 58
Width: 1558
Flags: W
LayerCount: 2
Fore
SplineSet
331 0 m 1,0,-1
 11 1792 l 1,1,-1
 267 1792 l 1,2,-1
 395 960 l 1,3,-1
 460 448 l 1,4,-1
 523 960 l 1,5,-1
 651 1792 l 1,6,-1
 907 1792 l 1,7,-1
 1035 960 l 1,8,-1
 1098 448 l 1,9,-1
 1163 960 l 1,10,-1
 1291 1792 l 1,11,-1
 1547 1792 l 1,12,-1
 1227 0 l 1,13,-1
 971 0 l 1,14,-1
 843 832 l 1,15,-1
 779 1344 l 1,16,-1
 715 832 l 1,17,-1
 587 0 l 1,18,-1
 331 0 l 1,0,-1
EndSplineSet
EndChar

StartChar: X
Encoding: 88 88 59
Width: 1070
Flags: W
LayerCount: 2
Fore
SplineSet
25 0 m 1,0,-1
 343 929 l 1,1,-1
 23 1792 l 1,2,-1
 279 1792 l 1,3,-1
 535 1088 l 1,4,-1
 791 1792 l 1,5,-1
 1047 1792 l 1,6,-1
 727 933 l 1,7,-1
 1043 0 l 1,8,-1
 789 0 l 1,9,-1
 535 768 l 1,10,-1
 281 0 l 1,11,-1
 25 0 l 1,0,-1
EndSplineSet
EndChar

StartChar: Y
Encoding: 89 89 60
Width: 1018
Flags: W
LayerCount: 2
Fore
SplineSet
381 0 m 1,0,-1
 381 576 l 1,1,-1
 -3 1792 l 1,2,-1
 253 1792 l 1,3,-1
 509 896 l 1,4,-1
 765 1792 l 1,5,-1
 1021 1792 l 1,6,-1
 637 576 l 1,7,-1
 637 0 l 1,8,-1
 381 0 l 1,0,-1
EndSplineSet
EndChar

StartChar: Z
Encoding: 90 90 61
Width: 951
Flags: W
LayerCount: 2
Fore
SplineSet
62 0 m 1,0,-1
 62 192 l 1,1,-1
 638 1600 l 1,2,-1
 126 1600 l 1,3,-1
 126 1792 l 1,4,-1
 894 1792 l 1,5,-1
 894 1600 l 1,6,-1
 318 192 l 1,7,-1
 894 192 l 1,8,-1
 894 0 l 1,9,-1
 62 0 l 1,0,-1
EndSplineSet
EndChar

StartChar: bracketleft
Encoding: 91 91 62
Width: 768
Flags: W
LayerCount: 2
Fore
SplineSet
128 -64 m 1,0,-1
 128 1856 l 1,1,-1
 640 1856 l 1,2,-1
 640 1728 l 1,3,-1
 384 1728 l 1,4,-1
 384 64 l 1,5,-1
 640 64 l 1,6,-1
 640 -64 l 1,7,-1
 128 -64 l 1,0,-1
EndSplineSet
EndChar

StartChar: backslash
Encoding: 92 92 63
Width: 576
Flags: W
LayerCount: 2
Fore
SplineSet
256 0 m 1,0,-1
 64 1792 l 1,1,-1
 320 1792 l 1,2,-1
 512 0 l 1,3,-1
 256 0 l 1,0,-1
EndSplineSet
EndChar

StartChar: bracketright
Encoding: 93 93 64
Width: 768
Flags: W
LayerCount: 2
Fore
SplineSet
128 -64 m 1,0,-1
 128 64 l 1,1,-1
 384 64 l 1,2,-1
 384 1728 l 1,3,-1
 128 1728 l 1,4,-1
 128 1856 l 1,5,-1
 640 1856 l 1,6,-1
 640 -64 l 1,7,-1
 128 -64 l 1,0,-1
EndSplineSet
EndChar

StartChar: asciicircum
Encoding: 94 94 65
Width: 896
Flags: W
LayerCount: 2
Fore
SplineSet
64 896 m 1,0,-1
 320 1536 l 1,1,-1
 576 1536 l 1,2,-1
 832 896 l 1,3,-1
 576 896 l 1,4,-1
 447 1344 l 1,5,-1
 320 896 l 1,6,-1
 64 896 l 1,0,-1
EndSplineSet
EndChar

StartChar: underscore
Encoding: 95 95 66
Width: 768
Flags: W
LayerCount: 2
Fore
SplineSet
0 0 m 1,0,-1
 0 192 l 1,1,-1
 768 192 l 1,2,-1
 768 0 l 1,3,-1
 0 0 l 1,0,-1
EndSplineSet
EndChar

StartChar: grave
Encoding: 96 96 67
Width: 640
Flags: W
LayerCount: 2
Fore
SplineSet
384 1408 m 1,0,-1
 128 1792 l 1,1,-1
 384 1792 l 1,2,-1
 512 1408 l 1,3,-1
 384 1408 l 1,0,-1
EndSplineSet
EndChar

StartChar: a
Encoding: 97 97 68
Width: 955
Flags: W
LayerCount: 2
Fore
SplineSet
468 192 m 0,0,1
 495 192 495 192 520.5 208 c 128,-1,2
 546 224 546 224 559 239 c 128,-1,3
 572 254 572 254 591 279 c 0,4,5
 594 284 594 284 596 286 c 1,6,-1
 596 640 l 1,7,8
 580 629 580 629 543 606 c 128,-1,9
 506 583 506 583 484 568.5 c 128,-1,10
 462 554 462 554 431 528.5 c 128,-1,11
 400 503 400 503 383 479.5 c 128,-1,12
 366 456 366 456 353 422 c 128,-1,13
 340 388 340 388 340 351 c 0,14,15
 340 192 340 192 468 192 c 0,0,1
340 -18 m 0,16,17
 233 -18 233 -18 158.5 74.5 c 128,-1,18
 84 167 84 167 84 283 c 0,19,20
 84 376 84 376 115.5 452 c 128,-1,21
 147 528 147 528 182 573.5 c 128,-1,22
 217 619 217 619 299 667.5 c 128,-1,23
 381 716 381 716 423 734 c 128,-1,24
 465 752 465 752 569 793 c 0,25,26
 587 800 587 800 596 804 c 1,27,-1
 596 896 l 2,28,29
 596 993 596 993 569 1046.5 c 128,-1,30
 542 1100 542 1100 468 1100 c 0,31,32
 402 1100 402 1100 373.5 1054.5 c 128,-1,33
 345 1009 345 1009 341 929 c 0,34,35
 340 918 340 918 340 896 c 1,36,-1
 84 896 l 1,37,38
 86 1080 86 1080 187 1189 c 128,-1,39
 288 1298 288 1298 468 1298 c 0,40,41
 647 1298 647 1298 749.5 1187.5 c 128,-1,42
 852 1077 852 1077 852 896 c 2,43,-1
 852 320 l 2,44,45
 852 120 852 120 885 0 c 1,46,-1
 630 0 l 1,47,-1
 596 192 l 1,48,49
 576 152 576 152 563.5 130 c 128,-1,50
 551 108 551 108 527 75.5 c 128,-1,51
 503 43 503 43 479 25.5 c 128,-1,52
 455 8 455 8 419 -5 c 128,-1,53
 383 -18 383 -18 340 -18 c 0,16,17
EndSplineSet
EndChar

StartChar: b
Encoding: 98 98 69
Width: 1042
Flags: W
LayerCount: 2
Fore
SplineSet
565 192 m 0,0,1
 606 192 606 192 633.5 222 c 128,-1,2
 661 252 661 252 673.5 307.5 c 128,-1,3
 686 363 686 363 690.5 418 c 128,-1,4
 695 473 695 473 695 546 c 0,5,6
 695 600 695 600 694.5 689 c 128,-1,7
 694 778 694 778 694 823 c 128,-1,8
 694 868 694 868 692 901.5 c 128,-1,9
 690 935 690 935 682 972 c 128,-1,10
 674 1009 674 1009 660.5 1033 c 128,-1,11
 647 1057 647 1057 623 1072.5 c 128,-1,12
 599 1088 599 1088 565 1088 c 0,13,14
 459 1088 459 1088 373 1037 c 1,15,-1
 373 232 l 1,16,17
 472 192 472 192 565 192 c 0,0,1
629 -18 m 0,18,19
 551 -18 551 -18 491 19 c 128,-1,20
 431 56 431 56 373 116 c 1,21,-1
 373 0 l 1,22,-1
 117 0 l 1,23,-1
 117 1791 l 1,24,-1
 373 1791 l 1,25,-1
 373 1153 l 1,26,27
 409 1191 409 1191 427 1208 c 128,-1,28
 445 1225 445 1225 479.5 1251 c 128,-1,29
 514 1277 514 1277 551 1287.5 c 128,-1,30
 588 1298 588 1298 633 1298 c 0,31,32
 698 1298 698 1298 749 1274.5 c 128,-1,33
 800 1251 800 1251 833 1218 c 128,-1,34
 866 1185 866 1185 889 1123 c 128,-1,35
 912 1061 912 1061 923.5 1011 c 128,-1,36
 935 961 935 961 941 876 c 128,-1,37
 947 791 947 791 948 738.5 c 128,-1,38
 949 686 949 686 949 594 c 2,39,-1
 949 577 l 2,40,41
 949 493 949 493 940.5 415 c 128,-1,42
 932 337 932 337 909.5 256 c 128,-1,43
 887 175 887 175 852.5 116 c 128,-1,44
 818 57 818 57 760.5 19.5 c 128,-1,45
 703 -18 703 -18 629 -18 c 0,18,19
EndSplineSet
EndChar

StartChar: c
Encoding: 99 99 70
Width: 863
Flags: W
LayerCount: 2
Fore
SplineSet
434 -18 m 0,0,1
 341 -18 341 -18 272.5 13 c 128,-1,2
 204 44 204 44 163 94 c 128,-1,3
 122 144 122 144 97 221.5 c 128,-1,4
 72 299 72 299 62.5 376.5 c 128,-1,5
 53 454 53 454 51 557 c 1,6,7
 48 640 48 640 51 724 c 1,8,9
 53 826 53 826 62.5 904 c 128,-1,10
 72 982 72 982 97.5 1059.5 c 128,-1,11
 123 1137 123 1137 163.5 1186.5 c 128,-1,12
 204 1236 204 1236 272.5 1267 c 128,-1,13
 341 1298 341 1298 434 1298 c 0,14,15
 636 1298 636 1298 724 1189 c 128,-1,16
 812 1080 812 1080 818 866 c 1,17,-1
 818 832 l 1,18,-1
 562 832 l 1,19,-1
 562 868 l 1,20,21
 561 916 561 916 555.5 952 c 128,-1,22
 550 988 550 988 537.5 1024 c 128,-1,23
 525 1060 525 1060 498.5 1079.5 c 128,-1,24
 472 1099 472 1099 434 1099 c 128,-1,25
 396 1099 396 1099 370 1076.5 c 128,-1,26
 344 1054 344 1054 330.5 1012 c 128,-1,27
 317 970 317 970 311 925.5 c 128,-1,28
 305 881 305 881 304 823 c 0,29,30
 300 699 300 699 304 449 c 1,31,32
 306 394 306 394 312 352.5 c 128,-1,33
 318 311 318 311 331.5 272.5 c 128,-1,34
 345 234 345 234 371 213 c 128,-1,35
 397 192 397 192 434 192 c 0,36,37
 468 192 468 192 492.5 205 c 128,-1,38
 517 218 517 218 530 237 c 128,-1,39
 543 256 543 256 550.5 288 c 128,-1,40
 558 320 558 320 560 347.5 c 128,-1,41
 562 375 562 375 562 417 c 2,42,-1
 562 448 l 1,43,-1
 818 448 l 1,44,-1
 818 415 l 1,45,46
 815 314 815 314 793 236.5 c 128,-1,47
 771 159 771 159 726.5 101 c 128,-1,48
 682 43 682 43 608.5 12.5 c 128,-1,49
 535 -18 535 -18 434 -18 c 0,0,1
EndSplineSet
EndChar

StartChar: d
Encoding: 100 100 71
Width: 1050
Flags: W
LayerCount: 2
Fore
SplineSet
478 192 m 0,0,1
 571 192 571 192 670 232 c 1,2,-1
 670 1037 l 1,3,4
 584 1088 584 1088 478 1088 c 0,5,6
 440 1088 440 1088 414 1069.5 c 128,-1,7
 388 1051 388 1051 375 1015.5 c 128,-1,8
 362 980 362 980 356 942.5 c 128,-1,9
 350 905 350 905 349 854 c 0,10,11
 345 630 345 630 349 499 c 0,12,13
 350 435 350 435 356 385 c 128,-1,14
 362 335 362 335 375.5 288.5 c 128,-1,15
 389 242 389 242 415 217 c 128,-1,16
 441 192 441 192 478 192 c 0,0,1
414 -18 m 0,17,18
 329 -18 329 -18 265.5 30 c 128,-1,19
 202 78 202 78 167.5 160 c 128,-1,20
 133 242 133 242 116 330.5 c 128,-1,21
 99 419 99 419 95 521 c 0,22,23
 93 568 93 568 95 751 c 1,24,25
 97 817 97 817 101 870.5 c 128,-1,26
 105 924 105 924 114.5 982 c 128,-1,27
 124 1040 124 1040 138.5 1084.5 c 128,-1,28
 153 1129 153 1129 177 1170.5 c 128,-1,29
 201 1212 201 1212 233 1239 c 128,-1,30
 265 1266 265 1266 310 1282 c 128,-1,31
 355 1298 355 1298 410 1298 c 0,32,33
 453 1298 453 1298 490.5 1286.5 c 128,-1,34
 528 1275 528 1275 562 1250.5 c 128,-1,35
 596 1226 596 1226 616.5 1207 c 128,-1,36
 637 1188 637 1188 670 1153 c 1,37,-1
 670 1791 l 1,38,-1
 926 1791 l 1,39,-1
 926 0 l 1,40,-1
 670 0 l 1,41,-1
 670 116 l 1,42,43
 612 56 612 56 552 19 c 128,-1,44
 492 -18 492 -18 414 -18 c 0,17,18
EndSplineSet
EndChar

StartChar: e
Encoding: 101 101 72
Width: 933
Flags: W
LayerCount: 2
Fore
SplineSet
476 -18 m 0,0,1
 383 -18 383 -18 314.5 14 c 128,-1,2
 246 46 246 46 205.5 97.5 c 128,-1,3
 165 149 165 149 140 229.5 c 128,-1,4
 115 310 115 310 105.5 390.5 c 128,-1,5
 96 471 96 471 94 578 c 1,6,7
 91 662 91 662 94 746 c 0,8,9
 97 846 97 846 107.5 923.5 c 128,-1,10
 118 1001 118 1001 144 1074 c 128,-1,11
 170 1147 170 1147 211.5 1194 c 128,-1,12
 253 1241 253 1241 320.5 1269.5 c 128,-1,13
 388 1298 388 1298 478 1298 c 0,14,15
 560 1298 560 1298 622.5 1276.5 c 128,-1,16
 685 1255 685 1255 726.5 1211.5 c 128,-1,17
 768 1168 768 1168 795.5 1115 c 128,-1,18
 823 1062 823 1062 837 986.5 c 128,-1,19
 851 911 851 911 856.5 838 c 128,-1,20
 862 765 862 765 862 670 c 2,21,-1
 862 640 l 1,22,-1
 350 640 l 1,23,-1
 350 576 l 2,24,25
 350 563 350 563 350 535 c 1,26,27
 348 498 348 498 349.5 458.5 c 128,-1,28
 351 419 351 419 353 381 c 128,-1,29
 355 343 355 343 364 308.5 c 128,-1,30
 373 274 373 274 386 248 c 128,-1,31
 399 222 399 222 422.5 207 c 128,-1,32
 446 192 446 192 478 192 c 0,33,34
 518 192 518 192 544 207.5 c 128,-1,35
 570 223 570 223 582.5 254 c 128,-1,36
 595 285 595 285 600 316 c 128,-1,37
 605 347 605 347 606 394 c 1,38,-1
 606 448 l 1,39,-1
 860 448 l 1,40,-1
 860 397 l 1,41,42
 851 192 851 192 759 87 c 128,-1,43
 667 -18 667 -18 476 -18 c 0,0,1
350 768 m 1,44,-1
 604 768 l 1,45,-1
 604 845 l 1,46,47
 603 896 603 896 598 934 c 128,-1,48
 593 972 593 972 580.5 1010 c 128,-1,49
 568 1048 568 1048 542 1068 c 128,-1,50
 516 1088 516 1088 478 1088 c 0,51,52
 439 1088 439 1088 412.5 1067 c 128,-1,53
 386 1046 386 1046 373.5 1006.5 c 128,-1,54
 361 967 361 967 356 929 c 128,-1,55
 351 891 351 891 350 838 c 1,56,-1
 350 768 l 1,44,-1
EndSplineSet
EndChar

StartChar: f
Encoding: 102 102 73
Width: 634
Flags: W
LayerCount: 2
Fore
SplineSet
184 0 m 1,0,-1
 184 1088 l 1,1,-1
 56 1088 l 1,2,-1
 56 1280 l 1,3,-1
 184 1280 l 1,4,-1
 184 1329 l 2,5,6
 184 1410 184 1410 190 1466.5 c 128,-1,7
 196 1523 196 1523 214.5 1575.5 c 128,-1,8
 233 1628 233 1628 264.5 1659.5 c 128,-1,9
 296 1691 296 1691 348.5 1709.5 c 128,-1,10
 401 1728 401 1728 474 1728 c 0,11,12
 536 1728 536 1728 632 1716 c 1,13,-1
 632 1526 l 1,14,15
 622 1527 622 1527 591 1531.5 c 128,-1,16
 560 1536 560 1536 546 1536 c 0,17,18
 482 1536 482 1536 461 1495.5 c 128,-1,19
 440 1455 440 1455 440 1376 c 2,20,-1
 440 1280 l 1,21,-1
 632 1280 l 1,22,-1
 632 1088 l 1,23,-1
 440 1088 l 1,24,-1
 440 0 l 1,25,-1
 184 0 l 1,0,-1
EndSplineSet
EndChar

StartChar: g
Encoding: 103 103 74
Width: 925
Flags: W
LayerCount: 2
Fore
SplineSet
458 560 m 128,-1,1
 618 560 618 560 618 832 c 0,2,3
 618 887 618 887 611 933.5 c 128,-1,4
 604 980 604 980 587 1024.5 c 128,-1,5
 570 1069 570 1069 537 1094.5 c 128,-1,6
 504 1120 504 1120 458 1120 c 0,7,8
 411 1120 411 1120 378 1094.5 c 128,-1,9
 345 1069 345 1069 328.5 1024.5 c 128,-1,10
 312 980 312 980 305 933.5 c 128,-1,11
 298 887 298 887 298 832 c 0,12,0
 298 560 298 560 458 560 c 128,-1,1
522 -194 m 0,13,14
 549 -194 549 -194 570.5 -193 c 128,-1,15
 592 -192 592 -192 620 -189 c 128,-1,16
 648 -186 648 -186 668.5 -179.5 c 128,-1,17
 689 -173 689 -173 707.5 -163 c 128,-1,18
 726 -153 726 -153 736 -136.5 c 128,-1,19
 746 -120 746 -120 746 -99 c 0,20,21
 746 8 746 8 541 32 c 2,22,-1
 330 57 l 1,23,24
 291 29 291 29 263.5 -24 c 128,-1,25
 236 -77 236 -77 236 -135 c 0,26,27
 236 -151 236 -151 247 -162.5 c 128,-1,28
 258 -174 258 -174 279.5 -180 c 128,-1,29
 301 -186 301 -186 323.5 -190 c 128,-1,30
 346 -194 346 -194 377 -195 c 128,-1,31
 408 -196 408 -196 430 -196 c 128,-1,32
 452 -196 452 -196 481.5 -195 c 128,-1,33
 511 -194 511 -194 522 -194 c 0,13,14
522 -383 m 0,34,35
 474 -383 474 -383 444 -382.5 c 128,-1,36
 414 -382 414 -382 362 -380 c 128,-1,37
 310 -378 310 -378 275 -372.5 c 128,-1,38
 240 -367 240 -367 195 -358.5 c 128,-1,39
 150 -350 150 -350 120.5 -336 c 128,-1,40
 91 -322 91 -322 64 -303 c 128,-1,41
 37 -284 37 -284 23.5 -256.5 c 128,-1,42
 10 -229 10 -229 10 -195 c 0,43,44
 10 -95 10 -95 63.5 -24 c 128,-1,45
 117 47 117 47 202 89 c 1,46,47
 150 103 150 103 112 131.5 c 128,-1,48
 74 160 74 160 74 201 c 0,49,50
 74 218 74 218 78 237 c 128,-1,51
 82 256 82 256 87 271.5 c 128,-1,52
 92 287 92 287 103 307 c 128,-1,53
 114 327 114 327 120.5 338.5 c 128,-1,54
 127 350 127 350 142 370.5 c 128,-1,55
 157 391 157 391 162.5 398.5 c 128,-1,56
 168 406 168 406 184 425.5 c 128,-1,57
 200 445 200 445 202 448 c 1,58,59
 74 600 74 600 74 832 c 0,60,61
 74 965 74 965 116 1069 c 128,-1,62
 158 1173 158 1173 246.5 1235.5 c 128,-1,63
 335 1298 335 1298 458 1298 c 0,64,65
 529 1298 529 1298 582 1278 c 128,-1,66
 635 1258 635 1258 668.5 1227.5 c 128,-1,67
 702 1197 702 1197 734 1147 c 1,68,69
 810 1288 810 1288 950 1297 c 0,70,71
 953 1297 953 1297 956 1297 c 128,-1,72
 959 1297 959 1297 963.5 1297 c 128,-1,73
 968 1297 968 1297 970 1297 c 1,74,-1
 970 1088 l 1,75,76
 965 1088 965 1088 954 1088 c 0,77,78
 911 1088 911 1088 889 1087 c 128,-1,79
 867 1086 867 1086 840 1078.5 c 128,-1,80
 813 1071 813 1071 797 1055 c 1,81,82
 815 1016 815 1016 828.5 951.5 c 128,-1,83
 842 887 842 887 842 832 c 0,84,85
 842 698 842 698 801.5 595 c 128,-1,86
 761 492 761 492 672.5 430 c 128,-1,87
 584 368 584 368 458 368 c 1,88,-1
 329 383 l 1,89,90
 327 378 327 378 319 365.5 c 128,-1,91
 311 353 311 353 306.5 345 c 128,-1,92
 302 337 302 337 298 324.5 c 128,-1,93
 294 312 294 312 294 301 c 0,94,95
 294 275 294 275 319 257 c 128,-1,96
 344 239 344 239 388 230.5 c 128,-1,97
 432 222 432 222 472.5 218 c 128,-1,98
 513 214 513 214 563 211.5 c 128,-1,99
 613 209 613 209 632 206 c 0,100,101
 689 198 689 198 733.5 187.5 c 128,-1,102
 778 177 778 177 824.5 157 c 128,-1,103
 871 137 871 137 901 109 c 128,-1,104
 931 81 931 81 950.5 37 c 128,-1,105
 970 -7 970 -7 970 -64 c 0,106,107
 970 -134 970 -134 945.5 -189 c 128,-1,108
 921 -244 921 -244 880 -280 c 128,-1,109
 839 -316 839 -316 781 -339.5 c 128,-1,110
 723 -363 723 -363 659 -373 c 128,-1,111
 595 -383 595 -383 522 -383 c 0,34,35
EndSplineSet
EndChar

StartChar: h
Encoding: 104 104 75
Width: 992
Flags: W
LayerCount: 2
Fore
SplineSet
117 0 m 1,0,-1
 117 1792 l 1,1,-1
 373 1792 l 1,2,-1
 373 1142 l 1,3,4
 430 1194 430 1194 466 1221.5 c 128,-1,5
 502 1249 502 1249 565.5 1273.5 c 128,-1,6
 629 1298 629 1298 701 1298 c 0,7,8
 783 1298 783 1298 834 1238 c 128,-1,9
 885 1178 885 1178 885 1091 c 2,10,-1
 885 0 l 1,11,-1
 629 0 l 1,12,-1
 629 960 l 2,13,14
 629 1026 629 1026 612.5 1057 c 128,-1,15
 596 1088 596 1088 541 1088 c 0,16,17
 463 1088 463 1088 373 1013 c 1,18,-1
 373 0 l 1,19,-1
 117 0 l 1,0,-1
EndSplineSet
EndChar

StartChar: i
Encoding: 105 105 76
Width: 512
Flags: W
LayerCount: 2
Fore
SplineSet
128 1472 m 1,0,-1
 128 1728 l 1,1,-1
 384 1728 l 1,2,-1
 384 1472 l 1,3,-1
 128 1472 l 1,0,-1
128 0 m 1,4,-1
 128 1280 l 1,5,-1
 384 1280 l 1,6,-1
 384 0 l 1,7,-1
 128 0 l 1,4,-1
EndSplineSet
EndChar

StartChar: j
Encoding: 106 106 77
Width: 507
Flags: W
LayerCount: 2
Fore
SplineSet
150 1472 m 1,0,-1
 150 1728 l 1,1,-1
 406 1728 l 1,2,-1
 406 1472 l 1,3,-1
 150 1472 l 1,0,-1
86 -320 m 0,4,5
 2 -320 2 -320 -42 -303 c 1,6,-1
 -42 -121 l 1,7,8
 -7 -128 -7 -128 22 -128 c 0,9,10
 150 -128 150 -128 150 21 c 2,11,-1
 150 1280 l 1,12,-1
 406 1280 l 1,13,-1
 406 -7 l 2,14,15
 406 -155 406 -155 320.5 -237.5 c 128,-1,16
 235 -320 235 -320 86 -320 c 0,4,5
EndSplineSet
EndChar

StartChar: k
Encoding: 107 107 78
Width: 961
Flags: W
LayerCount: 2
Fore
SplineSet
117 0 m 1,0,-1
 117 1792 l 1,1,-1
 373 1792 l 1,2,-1
 373 807 l 1,3,-1
 693 1280 l 1,4,-1
 949 1280 l 1,5,-1
 662 833 l 1,6,-1
 949 0 l 1,7,-1
 693 0 l 1,8,-1
 501 619 l 1,9,-1
 373 448 l 1,10,-1
 373 0 l 1,11,-1
 117 0 l 1,0,-1
EndSplineSet
EndChar

StartChar: l
Encoding: 108 108 79
Width: 485
Flags: W
LayerCount: 2
Fore
SplineSet
118 0 m 1,0,-1
 118 1792 l 1,1,-1
 374 1792 l 1,2,-1
 374 0 l 1,3,-1
 118 0 l 1,0,-1
EndSplineSet
EndChar

StartChar: m
Encoding: 109 109 80
Width: 1504
Flags: W
LayerCount: 2
Fore
SplineSet
117 0 m 1,0,-1
 117 1280 l 1,1,-1
 373 1280 l 1,2,-1
 373 1135 l 1,3,4
 510 1298 510 1298 692 1298 c 0,5,6
 784 1298 784 1298 827 1257.5 c 128,-1,7
 870 1217 870 1217 885 1129 c 1,8,9
 948 1212 948 1212 1021 1255 c 128,-1,10
 1094 1298 1094 1298 1205 1298 c 0,11,12
 1237 1298 1237 1298 1262.5 1291.5 c 128,-1,13
 1288 1285 1288 1285 1307 1276 c 128,-1,14
 1326 1267 1326 1267 1340.5 1248.5 c 128,-1,15
 1355 1230 1355 1230 1364.5 1214.5 c 128,-1,16
 1374 1199 1374 1199 1380.5 1170 c 128,-1,17
 1387 1141 1387 1141 1390 1122 c 128,-1,18
 1393 1103 1393 1103 1395 1066 c 128,-1,19
 1397 1029 1397 1029 1397 1008 c 128,-1,20
 1397 987 1397 987 1397 945 c 0,21,22
 1397 936 1397 936 1397 931 c 2,23,-1
 1397 0 l 1,24,-1
 1141 0 l 1,25,-1
 1141 934 l 2,26,27
 1141 939 1141 939 1141 950 c 0,28,29
 1141 983 1141 983 1140 1001 c 128,-1,30
 1139 1019 1139 1019 1133.5 1042.5 c 128,-1,31
 1128 1066 1128 1066 1114 1077 c 128,-1,32
 1100 1088 1100 1088 1077 1088 c 0,33,34
 1038 1088 1038 1088 999 1072.5 c 128,-1,35
 960 1057 960 1057 938.5 1042.5 c 128,-1,36
 917 1028 917 1028 885 1002 c 1,37,-1
 885 0 l 1,38,-1
 629 0 l 1,39,-1
 629 929 l 2,40,41
 629 935 629 935 629 947 c 0,42,43
 629 975 629 975 629 989 c 128,-1,44
 629 1003 629 1003 625.5 1025.5 c 128,-1,45
 622 1048 622 1048 616 1059 c 128,-1,46
 610 1070 610 1070 597 1079 c 128,-1,47
 584 1088 584 1088 565 1088 c 0,48,49
 471 1088 471 1088 373 1007 c 1,50,-1
 373 0 l 1,51,-1
 117 0 l 1,0,-1
EndSplineSet
EndChar

StartChar: n
Encoding: 110 110 81
Width: 992
Flags: W
LayerCount: 2
Fore
SplineSet
117 0 m 1,0,-1
 117 1280 l 1,1,-1
 373 1280 l 1,2,-1
 373 1142 l 1,3,4
 430 1194 430 1194 466 1221.5 c 128,-1,5
 502 1249 502 1249 565.5 1273.5 c 128,-1,6
 629 1298 629 1298 701 1298 c 0,7,8
 783 1298 783 1298 834 1238 c 128,-1,9
 885 1178 885 1178 885 1091 c 2,10,-1
 885 0 l 1,11,-1
 629 0 l 1,12,-1
 629 960 l 2,13,14
 629 1027 629 1027 610 1057.5 c 128,-1,15
 591 1088 591 1088 533 1088 c 0,16,17
 500 1088 500 1088 467.5 1074.5 c 128,-1,18
 435 1061 435 1061 419 1049.5 c 128,-1,19
 403 1038 403 1038 373 1013 c 1,20,-1
 373 0 l 1,21,-1
 117 0 l 1,0,-1
EndSplineSet
EndChar

StartChar: o
Encoding: 111 111 82
Width: 954
Flags: W
LayerCount: 2
Fore
SplineSet
477 -18 m 128,-1,1
 271 -18 271 -18 182 102 c 128,-1,2
 93 222 93 222 93 448 c 2,3,-1
 93 832 l 2,4,5
 93 1058 93 1058 182 1178 c 128,-1,6
 271 1298 271 1298 477 1298 c 128,-1,7
 683 1298 683 1298 772 1178 c 128,-1,8
 861 1058 861 1058 861 832 c 2,9,-1
 861 448 l 2,10,11
 861 222 861 222 772 102 c 128,-1,0
 683 -18 683 -18 477 -18 c 128,-1,1
477 192 m 128,-1,13
 504 192 504 192 524.5 200 c 128,-1,14
 545 208 545 208 558.5 219.5 c 128,-1,15
 572 231 572 231 581 253.5 c 128,-1,16
 590 276 590 276 595 293 c 128,-1,17
 600 310 600 310 602 342 c 128,-1,18
 604 374 604 374 604.5 392.5 c 128,-1,19
 605 411 605 411 605 448 c 2,20,-1
 605 832 l 2,21,22
 605 869 605 869 604.5 887.5 c 128,-1,23
 604 906 604 906 602 938 c 128,-1,24
 600 970 600 970 595 987 c 128,-1,25
 590 1004 590 1004 581 1026.5 c 128,-1,26
 572 1049 572 1049 558.5 1060.5 c 128,-1,27
 545 1072 545 1072 524.5 1080 c 128,-1,28
 504 1088 504 1088 477 1088 c 128,-1,29
 450 1088 450 1088 429.5 1080 c 128,-1,30
 409 1072 409 1072 395.5 1060.5 c 128,-1,31
 382 1049 382 1049 373 1026.5 c 128,-1,32
 364 1004 364 1004 359 987 c 128,-1,33
 354 970 354 970 352 938 c 128,-1,34
 350 906 350 906 349.5 887.5 c 128,-1,35
 349 869 349 869 349 832 c 2,36,-1
 349 448 l 2,37,38
 349 411 349 411 349.5 392.5 c 128,-1,39
 350 374 350 374 352 342 c 128,-1,40
 354 310 354 310 359 293 c 128,-1,41
 364 276 364 276 373 253.5 c 128,-1,42
 382 231 382 231 395.5 219.5 c 128,-1,43
 409 208 409 208 429.5 200 c 128,-1,12
 450 192 450 192 477 192 c 128,-1,13
EndSplineSet
EndChar

StartChar: p
Encoding: 112 112 83
Width: 1042
Flags: W
LayerCount: 2
Fore
SplineSet
565 192 m 0,0,1
 606 192 606 192 633.5 222 c 128,-1,2
 661 252 661 252 673.5 307.5 c 128,-1,3
 686 363 686 363 690.5 417.5 c 128,-1,4
 695 472 695 472 695 545 c 2,5,-1
 693 714 l 2,6,7
 693 759 693 759 692.5 786.5 c 128,-1,8
 692 814 692 814 689 859.5 c 128,-1,9
 686 905 686 905 680.5 934 c 128,-1,10
 675 963 675 963 664 998 c 128,-1,11
 653 1033 653 1033 637.5 1053 c 128,-1,12
 622 1073 622 1073 597.5 1087 c 128,-1,13
 573 1101 573 1101 542 1101 c 0,14,15
 527 1101 527 1101 513.5 1099 c 128,-1,16
 500 1097 500 1097 485.5 1092.5 c 128,-1,17
 471 1088 471 1088 461.5 1084.5 c 128,-1,18
 452 1081 452 1081 437 1073 c 128,-1,19
 422 1065 422 1065 415.5 1061.5 c 128,-1,20
 409 1058 409 1058 393 1048 c 128,-1,21
 377 1038 377 1038 373 1036 c 1,22,-1
 373 244 l 1,23,24
 461 192 461 192 565 192 c 0,0,1
117 -384 m 1,25,-1
 117 1280 l 1,26,-1
 373 1280 l 1,27,-1
 373 1152 l 1,28,29
 404 1185 404 1185 416 1197 c 128,-1,30
 428 1209 428 1209 457.5 1234 c 128,-1,31
 487 1259 487 1259 508.5 1269 c 128,-1,32
 530 1279 530 1279 563.5 1288.5 c 128,-1,33
 597 1298 597 1298 633 1298 c 0,34,35
 698 1298 698 1298 749 1274.5 c 128,-1,36
 800 1251 800 1251 833 1218 c 128,-1,37
 866 1185 866 1185 889 1123.5 c 128,-1,38
 912 1062 912 1062 923.5 1012 c 128,-1,39
 935 962 935 962 941 877 c 128,-1,40
 947 792 947 792 948 739.5 c 128,-1,41
 949 687 949 687 949 595 c 2,42,-1
 949 576 l 2,43,44
 949 492 949 492 940.5 414 c 128,-1,45
 932 336 932 336 909.5 255.5 c 128,-1,46
 887 175 887 175 852.5 116 c 128,-1,47
 818 57 818 57 760.5 19.5 c 128,-1,48
 703 -18 703 -18 629 -18 c 0,49,50
 499 -18 499 -18 373 115 c 1,51,-1
 373 -384 l 1,52,-1
 117 -384 l 1,25,-1
EndSplineSet
EndChar

StartChar: q
Encoding: 113 113 84
Width: 1012
Flags: W
LayerCount: 2
Fore
SplineSet
476 192 m 0,0,1
 577 192 577 192 668 244 c 1,2,-1
 668 1036 l 1,3,4
 664 1038 664 1038 648 1048 c 128,-1,5
 632 1058 632 1058 625.5 1061.5 c 128,-1,6
 619 1065 619 1065 604 1073 c 128,-1,7
 589 1081 589 1081 579.5 1084.5 c 128,-1,8
 570 1088 570 1088 555.5 1092.5 c 128,-1,9
 541 1097 541 1097 527.5 1099 c 128,-1,10
 514 1101 514 1101 499 1101 c 0,11,12
 467 1101 467 1101 442.5 1086.5 c 128,-1,13
 418 1072 418 1072 402 1052 c 128,-1,14
 386 1032 386 1032 374.5 995 c 128,-1,15
 363 958 363 958 358 929.5 c 128,-1,16
 353 901 353 901 350 853.5 c 128,-1,17
 347 806 347 806 346.5 780 c 128,-1,18
 346 754 346 754 346 707 c 0,19,20
 346 705 346 705 346 704 c 0,21,22
 346 687 346 687 346 649 c 128,-1,23
 346 611 346 611 346 576 c 128,-1,24
 346 541 346 541 346 510 c 0,25,26
 347 443 347 443 352.5 392.5 c 128,-1,27
 358 342 358 342 371.5 293.5 c 128,-1,28
 385 245 385 245 411.5 218.5 c 128,-1,29
 438 192 438 192 476 192 c 0,0,1
668 -384 m 1,30,-1
 668 115 l 1,31,32
 611 56 611 56 550.5 19 c 128,-1,33
 490 -18 490 -18 412 -18 c 0,34,35
 338 -18 338 -18 280.5 19.5 c 128,-1,36
 223 57 223 57 188.5 116 c 128,-1,37
 154 175 154 175 131.5 255.5 c 128,-1,38
 109 336 109 336 100.5 414 c 128,-1,39
 92 492 92 492 92 576 c 2,40,-1
 92 771 l 2,41,42
 92 858 92 858 100 930 c 128,-1,43
 108 1002 108 1002 129 1072 c 128,-1,44
 150 1142 150 1142 184.5 1190.5 c 128,-1,45
 219 1239 219 1239 276 1268.5 c 128,-1,46
 333 1298 333 1298 408 1298 c 0,47,48
 451 1298 451 1298 488.5 1286.5 c 128,-1,49
 526 1275 526 1275 560.5 1250 c 128,-1,50
 595 1225 595 1225 614.5 1206.5 c 128,-1,51
 634 1188 634 1188 668 1152 c 1,52,-1
 668 1280 l 1,53,-1
 924 1280 l 1,54,-1
 924 -384 l 1,55,-1
 668 -384 l 1,30,-1
EndSplineSet
EndChar

StartChar: r
Encoding: 114 114 85
Width: 693
Flags: W
LayerCount: 2
Fore
SplineSet
117 0 m 1,0,-1
 117 1280 l 1,1,-1
 373 1280 l 1,2,-1
 373 1109 l 1,3,4
 412 1185 412 1185 486.5 1241.5 c 128,-1,5
 561 1298 561 1298 652 1298 c 0,6,7
 655 1298 655 1298 693 1294 c 1,8,-1
 693 1011 l 1,9,10
 622 1039 622 1039 551 1039 c 0,11,12
 471 1039 471 1039 422 991 c 128,-1,13
 373 943 373 943 373 864 c 2,14,-1
 373 0 l 1,15,-1
 117 0 l 1,0,-1
EndSplineSet
EndChar

StartChar: s
Encoding: 115 115 86
Width: 876
Flags: W
LayerCount: 2
Fore
SplineSet
453 -18 m 0,0,1
 295 -18 295 -18 199.5 76 c 128,-1,2
 104 170 104 170 69 320 c 1,3,-1
 261 384 l 1,4,5
 330 192 330 192 453 192 c 0,6,7
 514 192 514 192 547.5 225.5 c 128,-1,8
 581 259 581 259 581 320 c 0,9,10
 581 409 581 409 517 468 c 1,11,-1
 261 660 l 1,12,13
 218 689 218 689 189 714.5 c 128,-1,14
 160 740 160 740 130 777 c 128,-1,15
 100 814 100 814 84.5 860 c 128,-1,16
 69 906 69 906 69 960 c 0,17,18
 69 1124 69 1124 173.5 1211 c 128,-1,19
 278 1298 278 1298 453 1298 c 0,20,21
 536 1298 536 1298 603 1271.5 c 128,-1,22
 670 1245 670 1245 715.5 1197 c 128,-1,23
 761 1149 761 1149 790.5 1090.5 c 128,-1,24
 820 1032 820 1032 837 960 c 1,25,-1
 645 896 l 1,26,27
 631 934 631 934 617 961.5 c 128,-1,28
 603 989 603 989 579.5 1021 c 128,-1,29
 556 1053 556 1053 524 1070.5 c 128,-1,30
 492 1088 492 1088 453 1088 c 0,31,32
 392 1088 392 1088 358.5 1054.5 c 128,-1,33
 325 1021 325 1021 325 960 c 0,34,35
 325 900 325 900 389 852 c 2,36,-1
 645 660 l 1,37,38
 688 626 688 626 718.5 594.5 c 128,-1,39
 749 563 749 563 778 521.5 c 128,-1,40
 807 480 807 480 822 429 c 128,-1,41
 837 378 837 378 837 320 c 0,42,43
 837 156 837 156 732.5 69 c 128,-1,44
 628 -18 628 -18 453 -18 c 0,0,1
EndSplineSet
EndChar

StartChar: t
Encoding: 116 116 87
Width: 700
Flags: W
LayerCount: 2
Fore
SplineSet
472 -18 m 0,0,1
 321 -18 321 -18 252.5 59 c 128,-1,2
 184 136 184 136 182 292 c 1,3,-1
 182 1088 l 1,4,-1
 54 1088 l 1,5,-1
 54 1280 l 1,6,-1
 182 1280 l 1,7,-1
 182 1728 l 1,8,-1
 438 1728 l 1,9,-1
 438 1280 l 1,10,-1
 630 1280 l 1,11,-1
 630 1088 l 1,12,-1
 438 1088 l 1,13,-1
 438 341 l 2,14,15
 438 264 438 264 459 228 c 128,-1,16
 480 192 480 192 544 192 c 0,17,18
 572 192 572 192 630 202 c 1,19,-1
 630 -6 l 1,20,21
 534 -18 534 -18 472 -18 c 0,0,1
EndSplineSet
EndChar

StartChar: u
Encoding: 117 117 88
Width: 987
Flags: W
LayerCount: 2
Fore
SplineSet
300 -18 m 0,0,1
 216 -18 216 -18 165 41.5 c 128,-1,2
 114 101 114 101 114 189 c 2,3,-1
 114 1280 l 1,4,-1
 370 1280 l 1,5,-1
 370 267 l 2,6,7
 370 227 370 227 394.5 202 c 128,-1,8
 419 177 419 177 458 177 c 0,9,10
 479 177 479 177 499 182 c 128,-1,11
 519 187 519 187 538.5 199.5 c 128,-1,12
 558 212 558 212 569 219.5 c 128,-1,13
 580 227 580 227 600.5 245 c 128,-1,14
 621 263 621 263 626 267 c 1,15,-1
 626 1280 l 1,16,-1
 882 1280 l 1,17,-1
 882 0 l 1,18,-1
 626 0 l 1,19,-1
 626 138 l 1,20,21
 588 105 588 105 570.5 90 c 128,-1,22
 553 75 553 75 517 49.5 c 128,-1,23
 481 24 481 24 453.5 12.5 c 128,-1,24
 426 1 426 1 385 -8.5 c 128,-1,25
 344 -18 344 -18 300 -18 c 0,0,1
EndSplineSet
EndChar

StartChar: v
Encoding: 118 118 89
Width: 872
Flags: W
LayerCount: 2
Fore
SplineSet
308 0 m 1,0,-1
 20 1280 l 1,1,-1
 266 1280 l 1,2,-1
 444 319 l 1,3,-1
 606 1280 l 1,4,-1
 852 1280 l 1,5,-1
 566 0 l 1,6,-1
 308 0 l 1,0,-1
EndSplineSet
EndChar

StartChar: w
Encoding: 119 119 90
Width: 1281
Flags: W
LayerCount: 2
Fore
SplineSet
257 0 m 1,0,-1
 20 1280 l 1,1,-1
 247 1280 l 1,2,-1
 389 308 l 1,3,-1
 523 1280 l 1,4,-1
 757 1280 l 1,5,-1
 893 318 l 1,6,-1
 1033 1280 l 1,7,-1
 1261 1280 l 1,8,-1
 1013 0 l 1,9,-1
 777 0 l 1,10,-1
 641 882 l 1,11,-1
 503 0 l 1,12,-1
 257 0 l 1,0,-1
EndSplineSet
EndChar

StartChar: x
Encoding: 120 120 91
Width: 866
Flags: W
LayerCount: 2
Fore
SplineSet
17 0 m 1,0,-1
 273 640 l 1,1,-1
 273 666 l 1,2,-1
 17 1280 l 1,3,-1
 264 1280 l 1,4,-1
 435 791 l 1,5,-1
 606 1280 l 1,6,-1
 849 1280 l 1,7,-1
 593 666 l 1,8,-1
 593 640 l 1,9,-1
 849 0 l 1,10,-1
 593 0 l 1,11,-1
 441 493 l 1,12,-1
 273 0 l 1,13,-1
 17 0 l 1,0,-1
EndSplineSet
EndChar

StartChar: y
Encoding: 121 121 92
Width: 872
Flags: W
LayerCount: 2
Fore
SplineSet
84 -320 m 1,0,-1
 84 -128 l 1,1,2
 160 -128 160 -128 205.5 -118 c 128,-1,3
 251 -108 251 -108 274 -82.5 c 128,-1,4
 297 -57 297 -57 303.5 -26.5 c 128,-1,5
 310 4 310 4 310 58 c 1,6,-1
 20 1280 l 1,7,-1
 276 1280 l 1,8,9
 425 457 425 457 437 384 c 1,10,11
 458 519 458 519 484.5 668.5 c 128,-1,12
 511 818 511 818 544.5 998.5 c 128,-1,13
 578 1179 578 1179 596 1280 c 1,14,-1
 852 1280 l 1,15,-1
 532 -64 l 1,16,17
 500 -203 500 -203 397 -261.5 c 128,-1,18
 294 -320 294 -320 110 -320 c 2,19,-1
 84 -320 l 1,0,-1
EndSplineSet
EndChar

StartChar: z
Encoding: 122 122 93
Width: 818
Flags: W
LayerCount: 2
Fore
SplineSet
71 0 m 1,0,-1
 71 192 l 1,1,-1
 519 1088 l 1,2,-1
 135 1088 l 1,3,-1
 135 1280 l 1,4,-1
 775 1280 l 1,5,-1
 775 1088 l 1,6,-1
 327 192 l 1,7,-1
 775 192 l 1,8,-1
 775 0 l 1,9,-1
 71 0 l 1,0,-1
EndSplineSet
EndChar

StartChar: braceleft
Encoding: 123 123 94
Width: 704
Flags: W
LayerCount: 2
Fore
SplineSet
640 -64 m 1,0,1
 508 -64 508 -64 419 -27 c 128,-1,2
 330 10 330 10 281 87 c 128,-1,3
 232 164 232 164 212 265 c 128,-1,4
 192 366 192 366 192 512 c 0,5,6
 192 525 192 525 192.5 554.5 c 128,-1,7
 193 584 193 584 192.5 595.5 c 128,-1,8
 192 607 192 607 191 632 c 128,-1,9
 190 657 190 657 188 667 c 128,-1,10
 186 677 186 677 181.5 695 c 128,-1,11
 177 713 177 713 170.5 721 c 128,-1,12
 164 729 164 729 154.5 740.5 c 128,-1,13
 145 752 145 752 132 756.5 c 128,-1,14
 119 761 119 761 102 764.5 c 128,-1,15
 85 768 85 768 64 768 c 1,16,-1
 64 1024 l 1,17,18
 88 1024 88 1024 107 1031 c 128,-1,19
 126 1038 126 1038 139 1054.5 c 128,-1,20
 152 1071 152 1071 162 1087 c 128,-1,21
 172 1103 172 1103 177.5 1132.5 c 128,-1,22
 183 1162 183 1162 186.5 1182 c 128,-1,23
 190 1202 190 1202 191 1238.5 c 128,-1,24
 192 1275 192 1275 192.5 1294.5 c 128,-1,25
 193 1314 193 1314 192.5 1353.5 c 128,-1,26
 192 1393 192 1393 192 1408 c 0,27,28
 192 1539 192 1539 213.5 1622.5 c 128,-1,29
 235 1706 235 1706 288.5 1759.5 c 128,-1,30
 342 1813 342 1813 425.5 1834.5 c 128,-1,31
 509 1856 509 1856 640 1856 c 1,32,-1
 640 1664 l 1,33,34
 601 1664 601 1664 572 1659 c 128,-1,35
 543 1654 543 1654 522.5 1646 c 128,-1,36
 502 1638 502 1638 488 1621 c 128,-1,37
 474 1604 474 1604 466 1587 c 128,-1,38
 458 1570 458 1570 454 1539.5 c 128,-1,39
 450 1509 450 1509 449 1481.5 c 128,-1,40
 448 1454 448 1454 448 1408 c 0,41,42
 448 986 448 986 256 896 c 1,43,44
 351 855 351 855 399.5 756.5 c 128,-1,45
 448 658 448 658 448 512 c 0,46,47
 448 509 448 509 448 503 c 0,48,49
 448 447 448 447 448.5 419 c 128,-1,50
 449 391 449 391 452.5 343.5 c 128,-1,51
 456 296 456 296 463 271.5 c 128,-1,52
 470 247 470 247 484 215 c 128,-1,53
 498 183 498 183 518 167 c 128,-1,54
 538 151 538 151 569 139.5 c 128,-1,55
 600 128 600 128 640 128 c 1,56,-1
 640 -64 l 1,0,1
EndSplineSet
EndChar

StartChar: bar
Encoding: 124 124 95
Width: 384
Flags: W
LayerCount: 2
Fore
SplineSet
128 -128 m 1,0,-1
 128 1920 l 1,1,-1
 320 1920 l 1,2,-1
 320 -128 l 1,3,-1
 128 -128 l 1,0,-1
EndSplineSet
EndChar

StartChar: braceright
Encoding: 125 125 96
Width: 704
Flags: W
LayerCount: 2
Fore
SplineSet
64 -64 m 1,0,-1
 64 128 l 1,1,2
 92 128 92 128 116 132.5 c 128,-1,3
 140 137 140 137 158 148.5 c 128,-1,4
 176 160 176 160 190 171.5 c 128,-1,5
 204 183 204 183 214.5 204.5 c 128,-1,6
 225 226 225 226 232 242 c 128,-1,7
 239 258 239 258 243.5 287.5 c 128,-1,8
 248 317 248 317 250.5 336 c 128,-1,9
 253 355 253 355 254.5 391 c 128,-1,10
 256 427 256 427 256 446.5 c 128,-1,11
 256 466 256 466 256 506 c 0,12,13
 256 510 256 510 256 512 c 0,14,15
 256 657 256 657 304.5 756.5 c 128,-1,16
 353 856 353 856 448 896 c 1,17,18
 256 982 256 982 256 1408 c 0,19,20
 256 1444 256 1444 255.5 1466.5 c 128,-1,21
 255 1489 255 1489 253 1515.5 c 128,-1,22
 251 1542 251 1542 247 1557.5 c 128,-1,23
 243 1573 243 1573 236.5 1591 c 128,-1,24
 230 1609 230 1609 220 1619 c 128,-1,25
 210 1629 210 1629 196 1639 c 128,-1,26
 182 1649 182 1649 162.5 1653.5 c 128,-1,27
 143 1658 143 1658 119 1661 c 128,-1,28
 95 1664 95 1664 64 1664 c 1,29,-1
 64 1856 l 1,30,31
 237 1856 237 1856 332.5 1814 c 128,-1,32
 428 1772 428 1772 470 1676.5 c 128,-1,33
 512 1581 512 1581 512 1408 c 0,34,35
 512 1392 512 1392 511.5 1353.5 c 128,-1,36
 511 1315 511 1315 511 1295 c 128,-1,37
 511 1275 511 1275 512.5 1238.5 c 128,-1,38
 514 1202 514 1202 517 1181.5 c 128,-1,39
 520 1161 520 1161 526 1132.5 c 128,-1,40
 532 1104 532 1104 541.5 1087.5 c 128,-1,41
 551 1071 551 1071 564.5 1054.5 c 128,-1,42
 578 1038 578 1038 597 1031 c 128,-1,43
 616 1024 616 1024 640 1024 c 1,44,-1
 640 768 l 1,45,46
 613 768 613 768 592 762.5 c 128,-1,47
 571 757 571 757 557.5 747 c 128,-1,48
 544 737 544 737 534.5 722.5 c 128,-1,49
 525 708 525 708 520.5 689.5 c 128,-1,50
 516 671 516 671 514 648.5 c 128,-1,51
 512 626 512 626 512 601 c 128,-1,52
 512 576 512 576 512 549 c 0,53,54
 512 525 512 525 512 512 c 0,55,56
 512 395 512 395 500 309 c 128,-1,57
 488 223 488 223 458 150 c 128,-1,58
 428 77 428 77 377.5 31.5 c 128,-1,59
 327 -14 327 -14 249 -39 c 128,-1,60
 171 -64 171 -64 64 -64 c 1,0,-1
EndSplineSet
EndChar

StartChar: asciitilde
Encoding: 126 126 97
Width: 960
Flags: W
LayerCount: 2
Fore
SplineSet
613 812 m 0,0,1
 565 812 565 812 514.5 834 c 128,-1,2
 464 856 464 856 417 877.5 c 128,-1,3
 370 899 370 899 329 899 c 0,4,5
 281 899 281 899 281 832 c 1,6,-1
 127 832 l 1,7,8
 127 948 127 948 184.5 1026.5 c 128,-1,9
 242 1105 242 1105 347 1105 c 0,10,11
 405 1105 405 1105 492 1062 c 128,-1,12
 579 1019 579 1019 628 1019 c 0,13,14
 679 1019 679 1019 679 1088 c 1,15,-1
 833 1088 l 1,16,17
 833 969 833 969 776.5 890.5 c 128,-1,18
 720 812 720 812 613 812 c 0,0,1
EndSplineSet
EndChar

StartChar: exclamdown
Encoding: 161 161 99
Width: 384
Flags: W
LayerCount: 2
Fore
SplineSet
64 1280 m 1,0,-1
 64 1536 l 1,1,-1
 320 1536 l 1,2,-1
 320 1280 l 1,3,-1
 64 1280 l 1,0,-1
64 0 m 1,4,-1
 128 1152 l 1,5,-1
 256 1152 l 1,6,-1
 256 0 l 1,7,-1
 64 0 l 1,4,-1
EndSplineSet
EndChar

StartChar: cent
Encoding: 162 162 100
Width: 1027
Flags: W
LayerCount: 2
Fore
SplineSet
479 206 m 1,0,-1
 479 1071 l 1,1,2
 456 1060 456 1060 438.5 1040.5 c 128,-1,3
 421 1021 421 1021 411 990.5 c 128,-1,4
 401 960 401 960 394.5 934 c 128,-1,5
 388 908 388 908 386 863 c 128,-1,6
 384 818 384 818 383.5 792.5 c 128,-1,7
 383 767 383 767 384 713.5 c 128,-1,8
 385 660 385 660 385 640 c 0,9,10
 385 616 385 616 384 567 c 128,-1,11
 383 518 383 518 383 488 c 128,-1,12
 383 458 383 458 384.5 414.5 c 128,-1,13
 386 371 386 371 392 342.5 c 128,-1,14
 398 314 398 314 408 284 c 128,-1,15
 418 254 418 254 436 235 c 128,-1,16
 454 216 454 216 479 206 c 1,0,-1
479 -128 m 1,17,-1
 479 -15 l 1,18,19
 391 -8 391 -8 328 21 c 128,-1,20
 265 50 265 50 227 94 c 128,-1,21
 189 138 189 138 166.5 208 c 128,-1,22
 144 278 144 278 136.5 353 c 128,-1,23
 129 428 129 428 129 532 c 2,24,-1
 129 733 l 2,25,26
 129 833 129 833 137.5 910 c 128,-1,27
 146 987 146 987 169.5 1057.5 c 128,-1,28
 193 1128 193 1128 231.5 1175.5 c 128,-1,29
 270 1223 270 1223 332 1254.5 c 128,-1,30
 394 1286 394 1286 479 1294 c 1,31,-1
 479 1408 l 1,32,-1
 557 1408 l 1,33,-1
 557 1294 l 1,34,35
 735 1274 735 1274 816 1157 c 128,-1,36
 897 1040 897 1040 897 831 c 1,37,-1
 641 832 l 1,38,39
 641 933 641 933 625 991 c 128,-1,40
 609 1049 609 1049 557 1073 c 1,41,-1
 557 207 l 1,42,43
 581 219 581 219 597.5 239.5 c 128,-1,44
 614 260 614 260 622.5 282 c 128,-1,45
 631 304 631 304 635 340 c 128,-1,46
 639 376 639 376 640 402 c 128,-1,47
 641 428 641 428 641 473 c 1,48,-1
 897 473 l 1,49,50
 897 468 897 468 897.5 453 c 128,-1,51
 898 438 898 438 898 430 c 0,52,53
 898 239 898 239 811.5 122 c 128,-1,54
 725 5 725 5 557 -14 c 1,55,-1
 557 -128 l 1,56,-1
 479 -128 l 1,17,-1
EndSplineSet
EndChar

StartChar: sterling
Encoding: 163 163 101
Width: 896
Flags: W
LayerCount: 2
Fore
SplineSet
0 0 m 1,0,-1
 0 128 l 1,1,-1
 128 191 l 1,2,-1
 128 768 l 1,3,-1
 0 768 l 1,4,-1
 0 960 l 1,5,-1
 128 960 l 1,6,-1
 128 1152 l 2,7,8
 128 1235 128 1235 131 1298 c 128,-1,9
 134 1361 134 1361 143.5 1433 c 128,-1,10
 153 1505 153 1505 169.5 1557 c 128,-1,11
 186 1609 186 1609 215 1659 c 128,-1,12
 244 1709 244 1709 284 1740.5 c 128,-1,13
 324 1772 324 1772 381.5 1791 c 128,-1,14
 439 1810 439 1810 512 1810 c 0,15,16
 677 1810 677 1810 753.5 1706 c 128,-1,17
 830 1602 830 1602 832 1422 c 1,18,-1
 832 1344 l 1,19,-1
 640 1344 l 1,20,21
 640 1397 640 1397 636 1435 c 128,-1,22
 632 1473 632 1473 620 1514.5 c 128,-1,23
 608 1556 608 1556 581 1578 c 128,-1,24
 554 1600 554 1600 512 1600 c 0,25,26
 479 1600 479 1600 455 1582.5 c 128,-1,27
 431 1565 431 1565 418.5 1540 c 128,-1,28
 406 1515 406 1515 398 1475 c 128,-1,29
 390 1435 390 1435 387.5 1404 c 128,-1,30
 385 1373 385 1373 384 1330 c 1,31,-1
 384 960 l 1,32,-1
 640 960 l 1,33,-1
 640 768 l 1,34,-1
 384 768 l 1,35,-1
 384 192 l 1,36,-1
 832 192 l 1,37,-1
 832 0 l 1,38,-1
 0 0 l 1,0,-1
EndSplineSet
EndChar

StartChar: currency
Encoding: 164 164 102
Width: 1024
Flags: W
LayerCount: 2
Fore
SplineSet
512 682 m 128,-1,1
 603 682 603 682 653.5 741 c 128,-1,2
 704 800 704 800 704 896 c 128,-1,3
 704 992 704 992 653.5 1051 c 128,-1,4
 603 1110 603 1110 512 1110 c 0,5,6
 420 1110 420 1110 370 1051.5 c 128,-1,7
 320 993 320 993 320 897 c 128,-1,8
 320 801 320 801 370.5 741.5 c 128,-1,0
 421 682 421 682 512 682 c 128,-1,1
195 489 m 1,9,-1
 105 579 l 1,10,-1
 191 665 l 1,11,12
 128 761 128 761 128 897 c 0,13,14
 128 1030 128 1030 191 1127 c 1,15,-1
 105 1213 l 1,16,-1
 195 1303 l 1,17,-1
 281 1217 l 1,18,19
 378 1280 378 1280 512 1280 c 128,-1,20
 646 1280 646 1280 743 1217 c 1,21,-1
 829 1303 l 1,22,-1
 919 1213 l 1,23,-1
 832 1126 l 1,24,25
 896 1028 896 1028 896 897 c 0,26,27
 896 765 896 765 832 665 c 1,28,-1
 919 579 l 1,29,-1
 829 489 l 1,30,-1
 743 575 l 1,31,32
 646 512 646 512 512 512 c 128,-1,33
 378 512 378 512 281 575 c 1,34,-1
 195 489 l 1,9,-1
EndSplineSet
EndChar

StartChar: yen
Encoding: 165 165 103
Width: 1024
Flags: W
LayerCount: 2
Fore
SplineSet
384 0 m 1,0,-1
 384 256 l 1,1,-1
 192 256 l 1,2,-1
 192 424 l 1,3,-1
 384 424 l 1,4,-1
 384 553 l 1,5,-1
 192 553 l 1,6,-1
 192 719 l 1,7,-1
 341 719 l 1,8,-1
 48 1792 l 1,9,-1
 308 1792 l 1,10,-1
 512 848 l 1,11,-1
 714 1792 l 1,12,-1
 974 1792 l 1,13,-1
 679 719 l 1,14,-1
 832 719 l 1,15,-1
 832 553 l 1,16,-1
 640 553 l 1,17,-1
 640 424 l 1,18,-1
 832 424 l 1,19,-1
 832 256 l 1,20,-1
 640 256 l 1,21,-1
 640 0 l 1,22,-1
 384 0 l 1,0,-1
EndSplineSet
EndChar

StartChar: brokenbar
Encoding: 166 166 104
Width: 395
Flags: W
LayerCount: 2
Fore
SplineSet
94 889 m 1,0,-1
 94 1518 l 1,1,-1
 297 1518 l 1,2,-1
 297 889 l 1,3,-1
 94 889 l 1,0,-1
94 -14 m 1,4,-1
 94 614 l 1,5,-1
 297 614 l 1,6,-1
 297 -14 l 1,7,-1
 94 -14 l 1,4,-1
EndSplineSet
EndChar

StartChar: section
Encoding: 167 167 105
Width: 960
Flags: W
LayerCount: 2
Fore
SplineSet
512 754 m 1,0,1
 608 799 608 799 608 882 c 0,2,3
 608 906 608 906 598 929 c 128,-1,4
 588 952 588 952 564.5 976 c 128,-1,5
 541 1000 541 1000 528 1012 c 128,-1,6
 515 1024 515 1024 482.5 1048.5 c 128,-1,7
 450 1073 450 1073 448 1074 c 1,8,9
 352 1017 352 1017 352 925 c 0,10,11
 352 891 352 891 371 862 c 128,-1,12
 390 833 390 833 416 817 c 2,13,-1
 512 754 l 1,0,1
480 -17 m 0,14,15
 398 -17 398 -17 331 10 c 128,-1,16
 264 37 264 37 218.5 85 c 128,-1,17
 173 133 173 133 143 191.5 c 128,-1,18
 113 250 113 250 96 321 c 1,19,-1
 288 385 l 1,20,21
 357 193 357 193 480 193 c 0,22,23
 541 193 541 193 574.5 226.5 c 128,-1,24
 608 260 608 260 608 321 c 0,25,26
 608 370 608 370 590.5 411 c 128,-1,27
 573 452 573 452 544 469 c 2,28,-1
 288 625 l 2,29,30
 228 661 228 661 189.5 696 c 128,-1,31
 151 731 151 731 123.5 790 c 128,-1,32
 96 849 96 849 96 925 c 0,33,34
 96 1035 96 1035 145.5 1111 c 128,-1,35
 195 1187 195 1187 282 1226 c 1,36,37
 239 1251 239 1251 213 1269.5 c 128,-1,38
 187 1288 187 1288 156.5 1318 c 128,-1,39
 126 1348 126 1348 111 1386.5 c 128,-1,40
 96 1425 96 1425 96 1472 c 0,41,42
 96 1636 96 1636 200.5 1723 c 128,-1,43
 305 1810 305 1810 480 1810 c 0,44,45
 563 1810 563 1810 629.5 1783.5 c 128,-1,46
 696 1757 696 1757 742 1709 c 128,-1,47
 788 1661 788 1661 817.5 1602 c 128,-1,48
 847 1543 847 1543 864 1472 c 1,49,-1
 672 1408 l 1,50,51
 658 1446 658 1446 644 1473.5 c 128,-1,52
 630 1501 630 1501 606.5 1533 c 128,-1,53
 583 1565 583 1565 551 1582.5 c 128,-1,54
 519 1600 519 1600 480 1600 c 0,55,56
 419 1600 419 1600 385.5 1566.5 c 128,-1,57
 352 1533 352 1533 352 1472 c 0,58,59
 352 1412 352 1412 416 1364 c 1,60,61
 577 1275 577 1275 600 1261 c 0,62,63
 775 1153 775 1153 831 1032 c 0,64,65
 864 963 864 963 864 882 c 0,66,67
 864 687 864 687 706 596 c 1,68,69
 779 537 779 537 821.5 473 c 128,-1,70
 864 409 864 409 864 321 c 0,71,72
 864 157 864 157 759.5 70 c 128,-1,73
 655 -17 655 -17 480 -17 c 0,14,15
EndSplineSet
EndChar

StartChar: dieresis
Encoding: 168 168 106
Width: 896
Flags: W
LayerCount: 2
Fore
SplineSet
512 1536 m 1,0,-1
 512 1792 l 1,1,-1
 768 1792 l 1,2,-1
 768 1536 l 1,3,-1
 512 1536 l 1,0,-1
128 1536 m 1,4,-1
 128 1792 l 1,5,-1
 384 1792 l 1,6,-1
 384 1536 l 1,7,-1
 128 1536 l 1,4,-1
EndSplineSet
EndChar

StartChar: copyright
Encoding: 169 169 107
Width: 1528
Flags: W
LayerCount: 2
Fore
SplineSet
764 -14 m 0,0,1
 614 -14 614 -14 484.5 41 c 128,-1,2
 355 96 355 96 264.5 191 c 128,-1,3
 174 286 174 286 122 418 c 128,-1,4
 70 550 70 550 70 700 c 0,5,6
 70 902 70 902 158 1065 c 128,-1,7
 246 1228 246 1228 405 1321.5 c 128,-1,8
 564 1415 564 1415 764 1415 c 0,9,10
 914 1415 914 1415 1043.5 1360 c 128,-1,11
 1173 1305 1173 1305 1263.5 1210 c 128,-1,12
 1354 1115 1354 1115 1406 982.5 c 128,-1,13
 1458 850 1458 850 1458 700 c 0,14,15
 1458 499 1458 499 1369.5 336 c 128,-1,16
 1281 173 1281 173 1122 79.5 c 128,-1,17
 963 -14 963 -14 764 -14 c 0,0,1
764 133 m 128,-1,19
 916 133 916 133 1036 208.5 c 128,-1,20
 1156 284 1156 284 1221 412 c 128,-1,21
 1286 540 1286 540 1286 696 c 0,22,23
 1286 813 1286 813 1248 917 c 128,-1,24
 1210 1021 1210 1021 1142.5 1096.5 c 128,-1,25
 1075 1172 1075 1172 977 1216 c 128,-1,26
 879 1260 879 1260 764 1260 c 0,27,28
 611 1260 611 1260 490.5 1184.5 c 128,-1,29
 370 1109 370 1109 306 981 c 128,-1,30
 242 853 242 853 242 696 c 0,31,32
 242 541 242 541 307 412.5 c 128,-1,33
 372 284 372 284 492 208.5 c 128,-1,18
 612 133 612 133 764 133 c 128,-1,19
768 217 m 0,34,35
 710 217 710 217 664.5 231.5 c 128,-1,36
 619 246 619 246 588.5 268.5 c 128,-1,37
 558 291 558 291 536.5 330 c 128,-1,38
 515 369 515 369 503 407 c 128,-1,39
 491 445 491 445 484.5 502.5 c 128,-1,40
 478 560 478 560 476.5 607 c 128,-1,41
 475 654 475 654 475 723 c 0,42,43
 475 810 475 810 481 872 c 128,-1,44
 487 934 487 934 505 995.5 c 128,-1,45
 523 1057 523 1057 555 1095 c 128,-1,46
 587 1133 587 1133 642 1156.5 c 128,-1,47
 697 1180 697 1180 774 1180 c 0,48,49
 1055 1180 1055 1180 1055 840 c 1,50,-1
 872 840 l 1,51,52
 872 881 872 881 869 910 c 128,-1,53
 866 939 866 939 857 971 c 128,-1,54
 848 1003 848 1003 827.5 1019.5 c 128,-1,55
 807 1036 807 1036 776 1036 c 0,56,57
 753 1036 753 1036 734.5 1031 c 128,-1,58
 716 1026 716 1026 703 1014 c 128,-1,59
 690 1002 690 1002 681 989.5 c 128,-1,60
 672 977 672 977 666.5 955.5 c 128,-1,61
 661 934 661 934 658 917 c 128,-1,62
 655 900 655 900 654.5 871 c 128,-1,63
 654 842 654 842 654 823.5 c 128,-1,64
 654 805 654 805 654.5 772 c 128,-1,65
 655 739 655 739 655 721 c 128,-1,66
 655 703 655 703 654.5 671 c 128,-1,67
 654 639 654 639 653.5 617 c 128,-1,68
 653 595 653 595 653.5 564.5 c 128,-1,69
 654 534 654 534 656.5 512.5 c 128,-1,70
 659 491 659 491 664 466 c 128,-1,71
 669 441 669 441 677.5 424.5 c 128,-1,72
 686 408 686 408 698 393.5 c 128,-1,73
 710 379 710 379 728 372 c 128,-1,74
 746 365 746 365 768 365 c 0,75,76
 803 365 803 365 826 383 c 128,-1,77
 849 401 849 401 858.5 435.5 c 128,-1,78
 868 470 868 470 871 501 c 128,-1,79
 874 532 874 532 874 578 c 1,80,-1
 1053 578 l 1,81,-1
 1053 562 l 2,82,83
 1053 406 1053 406 982.5 311.5 c 128,-1,84
 912 217 912 217 768 217 c 0,34,35
EndSplineSet
EndChar

StartChar: ordfeminine
Encoding: 170 170 108
Width: 842
Flags: W
LayerCount: 2
Fore
SplineSet
374 144 m 0,0,1
 410 144 410 144 440 166 c 128,-1,2
 470 188 470 188 485 219 c 1,3,-1
 485 408 l 1,4,5
 390 357 390 357 361 332 c 1,6,7
 303 285 303 285 303 228 c 0,8,9
 303 189 303 189 321.5 166.5 c 128,-1,10
 340 144 340 144 374 144 c 0,0,1
301 -10 m 0,11,12
 218 -10 218 -10 163 45 c 128,-1,13
 108 100 108 100 108 183 c 0,14,15
 108 251 108 251 134.5 300.5 c 128,-1,16
 161 350 161 350 224.5 385 c 128,-1,17
 288 420 288 420 325.5 434.5 c 128,-1,18
 363 449 363 449 450 475 c 0,19,20
 474 482 474 482 485 486 c 1,21,-1
 485 580 l 2,22,23
 485 719 485 719 409 719 c 0,24,25
 319 719 319 719 319 568 c 1,26,-1
 141 568 l 1,27,28
 143 702 143 702 214 782.5 c 128,-1,29
 285 863 285 863 413 863 c 0,30,31
 492 863 492 863 545 840.5 c 128,-1,32
 598 818 598 818 626.5 771.5 c 128,-1,33
 655 725 655 725 666.5 666 c 128,-1,34
 678 607 678 607 678 521 c 2,35,-1
 678 0 l 1,36,-1
 501 0 l 1,37,-1
 501 111 l 1,38,39
 472 58 472 58 418.5 24 c 128,-1,40
 365 -10 365 -10 301 -10 c 0,11,12
EndSplineSet
EndChar

StartChar: guillemotleft
Encoding: 171 171 109
Width: 1024
Flags: W
LayerCount: 2
Fore
SplineSet
960 64 m 1,0,-1
 512 576 l 1,1,-1
 512 704 l 1,2,-1
 960 1216 l 1,3,-1
 960 896 l 1,4,-1
 704 641 l 1,5,-1
 960 384 l 1,6,-1
 960 64 l 1,0,-1
512 64 m 1,7,-1
 64 576 l 1,8,-1
 64 704 l 1,9,-1
 512 1216 l 1,10,-1
 512 896 l 1,11,-1
 256 641 l 1,12,-1
 512 384 l 1,13,-1
 512 64 l 1,7,-1
EndSplineSet
EndChar

StartChar: logicalnot
Encoding: 172 172 110
Width: 768
Flags: W
LayerCount: 2
Fore
SplineSet
512 256 m 1,0,-1
 512 448 l 1,1,-1
 128 448 l 1,2,-1
 128 640 l 1,3,-1
 640 640 l 1,4,-1
 640 256 l 1,5,-1
 512 256 l 1,0,-1
EndSplineSet
EndChar

StartChar: uni00AD
Encoding: 173 173 111
Width: 768
Flags: W
LayerCount: 2
Fore
SplineSet
128 448 m 1,0,-1
 128 640 l 1,1,-1
 640 640 l 1,2,-1
 640 448 l 1,3,-1
 128 448 l 1,0,-1
EndSplineSet
EndChar

StartChar: registered
Encoding: 174 174 112
Width: 1528
Flags: W
LayerCount: 2
Fore
SplineSet
764 -14 m 0,0,1
 614 -14 614 -14 484.5 41 c 128,-1,2
 355 96 355 96 264.5 191 c 128,-1,3
 174 286 174 286 122 418 c 128,-1,4
 70 550 70 550 70 700 c 0,5,6
 70 902 70 902 158 1065 c 128,-1,7
 246 1228 246 1228 405 1321.5 c 128,-1,8
 564 1415 564 1415 764 1415 c 0,9,10
 914 1415 914 1415 1043.5 1360 c 128,-1,11
 1173 1305 1173 1305 1263.5 1210 c 128,-1,12
 1354 1115 1354 1115 1406 982.5 c 128,-1,13
 1458 850 1458 850 1458 700 c 0,14,15
 1458 499 1458 499 1369.5 336 c 128,-1,16
 1281 173 1281 173 1122 79.5 c 128,-1,17
 963 -14 963 -14 764 -14 c 0,0,1
764 133 m 128,-1,19
 916 133 916 133 1036 208.5 c 128,-1,20
 1156 284 1156 284 1221 412 c 128,-1,21
 1286 540 1286 540 1286 696 c 0,22,23
 1286 813 1286 813 1248 917 c 128,-1,24
 1210 1021 1210 1021 1142.5 1096.5 c 128,-1,25
 1075 1172 1075 1172 977 1216 c 128,-1,26
 879 1260 879 1260 764 1260 c 0,27,28
 611 1260 611 1260 490.5 1184.5 c 128,-1,29
 370 1109 370 1109 306 981 c 128,-1,30
 242 853 242 853 242 696 c 0,31,32
 242 541 242 541 307 412.5 c 128,-1,33
 372 284 372 284 492 208.5 c 128,-1,18
 612 133 612 133 764 133 c 128,-1,19
672 729 m 1,34,-1
 705 729 l 2,35,36
 798 729 798 729 832 764.5 c 128,-1,37
 866 800 866 800 866 897 c 0,38,39
 866 972 866 972 837.5 1010.5 c 128,-1,40
 809 1049 809 1049 743 1049 c 2,41,-1
 672 1049 l 1,42,-1
 672 729 l 1,34,-1
516 248 m 1,43,-1
 516 1167 l 1,44,-1
 756 1167 l 2,45,46
 1026 1167 1026 1167 1026 893 c 0,47,48
 1026 738 1026 738 901 670 c 1,49,-1
 1049 248 l 1,50,-1
 881 248 l 1,51,-1
 754 633 l 1,52,-1
 672 633 l 1,53,-1
 672 248 l 1,54,-1
 516 248 l 1,43,-1
EndSplineSet
EndChar

StartChar: macron
Encoding: 175 175 113
Width: 640
Flags: W
LayerCount: 2
Fore
SplineSet
123 1407 m 1,0,-1
 123 1559 l 1,1,-1
 557 1559 l 1,2,-1
 557 1407 l 1,3,-1
 123 1407 l 1,0,-1
EndSplineSet
EndChar

StartChar: degree
Encoding: 176 176 114
Width: 1024
Flags: W
LayerCount: 2
Fore
SplineSet
512 1042 m 128,-1,1
 332 1042 332 1042 230 1145 c 128,-1,2
 128 1248 128 1248 128 1427 c 0,3,4
 128 1605 128 1605 230 1707.5 c 128,-1,5
 332 1810 332 1810 512 1810 c 128,-1,6
 692 1810 692 1810 794 1707.5 c 128,-1,7
 896 1605 896 1605 896 1427 c 0,8,9
 896 1248 896 1248 794 1145 c 128,-1,0
 692 1042 692 1042 512 1042 c 128,-1,1
512 1212 m 128,-1,11
 603 1212 603 1212 653.5 1271 c 128,-1,12
 704 1330 704 1330 704 1426 c 128,-1,13
 704 1522 704 1522 653.5 1581 c 128,-1,14
 603 1640 603 1640 512 1640 c 0,15,16
 420 1640 420 1640 370 1581.5 c 128,-1,17
 320 1523 320 1523 320 1427 c 128,-1,18
 320 1331 320 1331 370.5 1271.5 c 128,-1,10
 421 1212 421 1212 512 1212 c 128,-1,11
EndSplineSet
EndChar

StartChar: plusminus
Encoding: 177 177 115
Width: 832
Flags: W
LayerCount: 2
Fore
SplineSet
128 0 m 1,0,-1
 128 192 l 1,1,-1
 704 192 l 1,2,-1
 704 0 l 1,3,-1
 128 0 l 1,0,-1
320 384 m 1,4,-1
 320 576 l 1,5,-1
 128 576 l 1,6,-1
 128 768 l 1,7,-1
 320 768 l 1,8,-1
 320 960 l 1,9,-1
 512 960 l 1,10,-1
 512 768 l 1,11,-1
 704 768 l 1,12,-1
 704 576 l 1,13,-1
 512 576 l 1,14,-1
 512 384 l 1,15,-1
 320 384 l 1,4,-1
EndSplineSet
EndChar

StartChar: acute
Encoding: 180 180 116
Width: 640
Flags: W
LayerCount: 2
Fore
SplineSet
128 1408 m 1,0,-1
 256 1792 l 1,1,-1
 512 1792 l 1,2,-1
 256 1408 l 1,3,-1
 128 1408 l 1,0,-1
EndSplineSet
EndChar

StartChar: paragraph
Encoding: 182 182 117
Width: 952
Flags: W
LayerCount: 2
Fore
SplineSet
382 0 m 1,0,-1
 382 876 l 1,1,2
 218 876 218 876 117 962 c 128,-1,3
 16 1048 16 1048 16 1204 c 0,4,5
 16 1373 16 1373 123 1454.5 c 128,-1,6
 230 1536 230 1536 423 1536 c 2,7,-1
 896 1536 l 1,8,-1
 896 0 l 1,9,-1
 718 0 l 1,10,-1
 718 876 l 1,11,-1
 579 876 l 1,12,-1
 579 0 l 1,13,-1
 382 0 l 1,0,-1
EndSplineSet
EndChar

StartChar: periodcentered
Encoding: 183 183 118
Width: 384
Flags: W
LayerCount: 2
Fore
SplineSet
64 706 m 1,0,-1
 64 962 l 1,1,-1
 320 962 l 1,2,-1
 320 706 l 1,3,-1
 64 706 l 1,0,-1
EndSplineSet
EndChar

StartChar: cedilla
Encoding: 184 184 119
Width: 576
Flags: W
LayerCount: 2
Fore
SplineSet
64 -512 m 1,0,-1
 64 -384 l 1,1,2
 79 -384 79 -384 115.5 -385 c 128,-1,3
 152 -386 152 -386 172 -386 c 0,4,5
 240 -386 240 -386 280 -372.5 c 128,-1,6
 320 -359 320 -359 320 -320 c 0,7,8
 320 -306 320 -306 312.5 -293 c 128,-1,9
 305 -280 305 -280 290.5 -268.5 c 128,-1,10
 276 -257 276 -257 261.5 -248 c 128,-1,11
 247 -239 247 -239 225 -229.5 c 128,-1,12
 203 -220 203 -220 190 -214.5 c 128,-1,13
 177 -209 177 -209 155 -201.5 c 128,-1,14
 133 -194 133 -194 128 -192 c 1,15,-1
 128 0 l 1,16,-1
 256 0 l 1,17,-1
 256 -128 l 1,18,19
 303 -141 303 -141 337.5 -154 c 128,-1,20
 372 -167 372 -167 417 -190 c 128,-1,21
 462 -213 462 -213 487 -246 c 128,-1,22
 512 -279 512 -279 512 -320 c 0,23,24
 512 -358 512 -358 501 -387.5 c 128,-1,25
 490 -417 490 -417 472.5 -437 c 128,-1,26
 455 -457 455 -457 426.5 -471 c 128,-1,27
 398 -485 398 -485 370 -493 c 128,-1,28
 342 -501 342 -501 301 -505.5 c 128,-1,29
 260 -510 260 -510 227.5 -511 c 128,-1,30
 195 -512 195 -512 149 -512 c 2,31,-1
 64 -512 l 1,0,-1
EndSplineSet
EndChar

StartChar: ordmasculine
Encoding: 186 186 120
Width: 899
Flags: W
LayerCount: 2
Fore
SplineSet
450 -14 m 0,0,1
 261 -14 261 -14 180 94 c 128,-1,2
 99 202 99 202 99 410 c 2,3,-1
 99 729 l 2,4,5
 99 937 99 937 180 1045 c 128,-1,6
 261 1153 261 1153 450 1153 c 0,7,8
 630 1153 630 1153 715 1040 c 128,-1,9
 800 927 800 927 800 729 c 2,10,-1
 800 410 l 2,11,12
 800 212 800 212 715 99 c 128,-1,13
 630 -14 630 -14 450 -14 c 0,0,1
445 186 m 0,14,15
 464 186 464 186 480.5 189 c 128,-1,16
 497 192 497 192 509 200.5 c 128,-1,17
 521 209 521 209 530.5 216.5 c 128,-1,18
 540 224 540 224 547 240 c 128,-1,19
 554 256 554 256 558.5 266 c 128,-1,20
 563 276 563 276 566 298.5 c 128,-1,21
 569 321 569 321 571 332 c 128,-1,22
 573 343 573 343 573.5 370.5 c 128,-1,23
 574 398 574 398 574 409 c 128,-1,24
 574 420 574 420 574 451 c 2,25,-1
 574 688 l 2,26,27
 574 692 574 692 574 700 c 0,28,29
 574 730 574 730 574 744.5 c 128,-1,30
 574 759 574 759 573 785.5 c 128,-1,31
 572 812 572 812 569.5 825.5 c 128,-1,32
 567 839 567 839 562.5 860 c 128,-1,33
 558 881 558 881 552 892 c 128,-1,34
 546 903 546 903 536 916.5 c 128,-1,35
 526 930 526 930 513.5 936.5 c 128,-1,36
 501 943 501 943 483.5 947.5 c 128,-1,37
 466 952 466 952 445 952 c 0,38,39
 418 952 418 952 397 944 c 128,-1,40
 376 936 376 936 362 924.5 c 128,-1,41
 348 913 348 913 338 891 c 128,-1,42
 328 869 328 869 323 850.5 c 128,-1,43
 318 832 318 832 315.5 800.5 c 128,-1,44
 313 769 313 769 312.5 747 c 128,-1,45
 312 725 312 725 312 688 c 2,46,-1
 312 451 l 2,47,48
 312 408 312 408 313 382.5 c 128,-1,49
 314 357 314 357 317.5 321.5 c 128,-1,50
 321 286 321 286 330 265.5 c 128,-1,51
 339 245 339 245 353 224.5 c 128,-1,52
 367 204 367 204 390 195 c 128,-1,53
 413 186 413 186 445 186 c 0,14,15
EndSplineSet
EndChar

StartChar: guillemotright
Encoding: 187 187 121
Width: 1024
Flags: W
LayerCount: 2
Fore
SplineSet
512 64 m 1,0,-1
 512 384 l 1,1,-1
 768 641 l 1,2,-1
 512 896 l 1,3,-1
 512 1216 l 1,4,-1
 960 704 l 1,5,-1
 960 576 l 1,6,-1
 512 64 l 1,0,-1
64 64 m 1,7,-1
 64 384 l 1,8,-1
 320 641 l 1,9,-1
 64 896 l 1,10,-1
 64 1216 l 1,11,-1
 512 704 l 1,12,-1
 512 576 l 1,13,-1
 64 64 l 1,7,-1
EndSplineSet
EndChar

StartChar: onequarter
Encoding: 188 188 122
Width: 1687
Flags: W
LayerCount: 2
Fore
SplineSet
1173 383 m 1,0,-1
 1301 383 l 1,1,-1
 1301 639 l 1,2,-1
 1173 383 l 1,0,-1
1301 -1 m 1,3,-1
 1301 255 l 1,4,-1
 981 255 l 1,5,-1
 981 383 l 1,6,-1
 1321 959 l 1,7,-1
 1493 959 l 1,8,-1
 1493 383 l 1,9,-1
 1621 383 l 1,10,-1
 1621 255 l 1,11,-1
 1493 255 l 1,12,-1
 1493 -1 l 1,13,-1
 1301 -1 l 1,3,-1
409 0 m 1,14,-1
 984 1792 l 1,15,-1
 1241 1792 l 1,16,-1
 665 0 l 1,17,-1
 409 0 l 1,14,-1
197 744 m 1,18,-1
 197 1320 l 1,19,-1
 69 1320 l 1,20,-1
 69 1448 l 1,21,22
 237 1531 237 1531 325 1640 c 1,23,-1
 389 1640 l 1,24,-1
 389 744 l 1,25,-1
 197 744 l 1,18,-1
EndSplineSet
EndChar

StartChar: onehalf
Encoding: 189 189 123
Width: 1713
Flags: W
LayerCount: 2
Fore
SplineSet
1130 3 m 1,0,-1
 1130 131 l 1,1,-1
 1322 387 l 2,2,3
 1329 396 1329 396 1349.5 422.5 c 128,-1,4
 1370 449 1370 449 1379.5 461.5 c 128,-1,5
 1389 474 1389 474 1405.5 500 c 128,-1,6
 1422 526 1422 526 1429.5 545 c 128,-1,7
 1437 564 1437 564 1443.5 590.5 c 128,-1,8
 1450 617 1450 617 1450 643 c 0,9,10
 1450 664 1450 664 1449.5 675 c 128,-1,11
 1449 686 1449 686 1447.5 704 c 128,-1,12
 1446 722 1446 722 1442 731.5 c 128,-1,13
 1438 741 1438 741 1431 751.5 c 128,-1,14
 1424 762 1424 762 1413 766.5 c 128,-1,15
 1402 771 1402 771 1386 771 c 128,-1,16
 1370 771 1370 771 1359 766.5 c 128,-1,17
 1348 762 1348 762 1341 751.5 c 128,-1,18
 1334 741 1334 741 1330 731.5 c 128,-1,19
 1326 722 1326 722 1324.5 704 c 128,-1,20
 1323 686 1323 686 1322.5 675 c 128,-1,21
 1322 664 1322 664 1322 643 c 1,22,-1
 1130 643 l 1,23,24
 1130 764 1130 764 1196.5 831.5 c 128,-1,25
 1263 899 1263 899 1386 899 c 128,-1,26
 1509 899 1509 899 1575.5 831.5 c 128,-1,27
 1642 764 1642 764 1642 643 c 0,28,29
 1642 572 1642 572 1604.5 494.5 c 128,-1,30
 1567 417 1567 417 1523 364 c 128,-1,31
 1479 311 1479 311 1413.5 238.5 c 128,-1,32
 1348 166 1348 166 1322 131 c 1,33,-1
 1642 131 l 1,34,-1
 1642 3 l 1,35,-1
 1130 3 l 1,0,-1
434 0 m 1,36,-1
 1009 1792 l 1,37,-1
 1266 1792 l 1,38,-1
 690 0 l 1,39,-1
 434 0 l 1,36,-1
194 744 m 1,40,-1
 194 1320 l 1,41,-1
 66 1320 l 1,42,-1
 66 1448 l 1,43,44
 234 1531 234 1531 322 1640 c 1,45,-1
 386 1640 l 1,46,-1
 386 744 l 1,47,-1
 194 744 l 1,40,-1
EndSplineSet
EndChar

StartChar: threequarters
Encoding: 190 190 124
Width: 1803
Flags: W
LayerCount: 2
Fore
SplineSet
1291 386 m 1,0,-1
 1419 386 l 1,1,-1
 1419 642 l 1,2,-1
 1291 386 l 1,0,-1
1419 2 m 1,3,-1
 1419 258 l 1,4,-1
 1099 258 l 1,5,-1
 1099 386 l 1,6,-1
 1439 962 l 1,7,-1
 1611 962 l 1,8,-1
 1611 386 l 1,9,-1
 1739 386 l 1,10,-1
 1739 258 l 1,11,-1
 1611 258 l 1,12,-1
 1611 2 l 1,13,-1
 1419 2 l 1,3,-1
519 0 m 1,14,-1
 1094 1792 l 1,15,-1
 1351 1792 l 1,16,-1
 775 0 l 1,17,-1
 519 0 l 1,14,-1
327 764 m 128,-1,19
 204 764 204 764 137.5 831 c 128,-1,20
 71 898 71 898 71 1020 c 1,21,-1
 263 1020 l 1,22,23
 263 999 263 999 263.5 988 c 128,-1,24
 264 977 264 977 265.5 959 c 128,-1,25
 267 941 267 941 271 931.5 c 128,-1,26
 275 922 275 922 282 911.5 c 128,-1,27
 289 901 289 901 300 896.5 c 128,-1,28
 311 892 311 892 327 892 c 128,-1,29
 343 892 343 892 354 896.5 c 128,-1,30
 365 901 365 901 372 911.5 c 128,-1,31
 379 922 379 922 383 931.5 c 128,-1,32
 387 941 387 941 388.5 959 c 128,-1,33
 390 977 390 977 390.5 988 c 128,-1,34
 391 999 391 999 391 1020 c 0,35,36
 391 1091 391 1091 363 1119.5 c 128,-1,37
 335 1148 335 1148 263 1148 c 1,38,-1
 263 1276 l 1,39,40
 336 1276 336 1276 363.5 1304 c 128,-1,41
 391 1332 391 1332 391 1404 c 0,42,43
 391 1425 391 1425 390.5 1436 c 128,-1,44
 390 1447 390 1447 388.5 1465 c 128,-1,45
 387 1483 387 1483 383 1492.5 c 128,-1,46
 379 1502 379 1502 372 1512.5 c 128,-1,47
 365 1523 365 1523 354 1527.5 c 128,-1,48
 343 1532 343 1532 327 1532 c 128,-1,49
 311 1532 311 1532 300 1527.5 c 128,-1,50
 289 1523 289 1523 282 1512.5 c 128,-1,51
 275 1502 275 1502 271 1492.5 c 128,-1,52
 267 1483 267 1483 265.5 1465 c 128,-1,53
 264 1447 264 1447 263.5 1436 c 128,-1,54
 263 1425 263 1425 263 1404 c 1,55,-1
 71 1404 l 1,56,57
 71 1525 71 1525 137.5 1592.5 c 128,-1,58
 204 1660 204 1660 327 1660 c 128,-1,59
 450 1660 450 1660 516.5 1592.5 c 128,-1,60
 583 1525 583 1525 583 1404 c 0,61,62
 583 1313 583 1313 531.5 1264 c 128,-1,63
 480 1215 480 1215 391 1212 c 1,64,65
 481 1206 481 1206 532 1159 c 128,-1,66
 583 1112 583 1112 583 1020 c 0,67,68
 583 899 583 899 516.5 831.5 c 128,-1,18
 450 764 450 764 327 764 c 128,-1,19
EndSplineSet
EndChar

StartChar: questiondown
Encoding: 191 191 125
Width: 891
Flags: W
LayerCount: 2
Fore
SplineSet
343 1106 m 1,0,-1
 343 1329 l 1,1,-1
 564 1329 l 1,2,-1
 564 1106 l 1,3,-1
 343 1106 l 1,0,-1
430 -5 m 0,4,5
 80 -5 80 -5 80 346 c 0,6,7
 80 387 80 387 90.5 430 c 128,-1,8
 101 473 101 473 113.5 505.5 c 128,-1,9
 126 538 126 538 154 580.5 c 128,-1,10
 182 623 182 623 197.5 645 c 128,-1,11
 213 667 213 667 251 708.5 c 128,-1,12
 289 750 289 750 299.5 761.5 c 128,-1,13
 310 773 310 773 349 812 c 1,14,-1
 349 1029 l 1,15,-1
 565 1029 l 1,16,-1
 565 760 l 1,17,18
 553 745 553 745 510 694.5 c 128,-1,19
 467 644 467 644 441.5 610 c 128,-1,20
 416 576 416 576 383.5 525.5 c 128,-1,21
 351 475 351 475 334.5 425 c 128,-1,22
 318 375 318 375 318 328 c 0,23,24
 318 202 318 202 430 202 c 0,25,26
 472 202 472 202 501 219.5 c 128,-1,27
 530 237 530 237 544.5 269 c 128,-1,28
 559 301 559 301 565 337.5 c 128,-1,29
 571 374 571 374 571 421 c 1,30,-1
 790 421 l 1,31,-1
 790 396 l 2,32,33
 790 210 790 210 698.5 102.5 c 128,-1,34
 607 -5 607 -5 430 -5 c 0,4,5
EndSplineSet
EndChar

StartChar: AE
Encoding: 198 198 132
Width: 1408
Flags: W
LayerCount: 2
Fore
SplineSet
393 640 m 1,0,-1
 640 640 l 1,1,-1
 640 1298 l 1,2,-1
 393 640 l 1,0,-1
-126 0 m 1,3,-1
 638 1792 l 1,4,-1
 1344 1792 l 1,5,-1
 1344 1600 l 1,6,-1
 896 1600 l 1,7,-1
 896 1024 l 1,8,-1
 1216 1024 l 1,9,-1
 1216 832 l 1,10,-1
 896 832 l 1,11,-1
 896 192 l 1,12,-1
 1344 192 l 1,13,-1
 1344 0 l 1,14,-1
 640 0 l 1,15,-1
 640 448 l 1,16,-1
 320 448 l 1,17,-1
 129 0 l 1,18,-1
 -126 0 l 1,3,-1
EndSplineSet
EndChar

StartChar: Eth
Encoding: 208 208 142
Width: 1152
Flags: W
LayerCount: 2
Fore
SplineSet
128 0 m 1,0,-1
 128 852 l 1,1,-1
 34 852 l 1,2,-1
 34 1004 l 1,3,-1
 128 1004 l 1,4,-1
 128 1792 l 1,5,-1
 512 1792 l 2,6,7
 793 1792 793 1792 908.5 1677 c 128,-1,8
 1024 1562 1024 1562 1024 1280 c 2,9,-1
 1024 576 l 2,10,11
 1024 281 1024 281 906.5 140.5 c 128,-1,12
 789 0 789 0 510 0 c 2,13,-1
 128 0 l 1,0,-1
384 192 m 1,14,-1
 512 192 l 2,15,16
 575 192 575 192 620 203.5 c 128,-1,17
 665 215 665 215 693 245.5 c 128,-1,18
 721 276 721 276 737 303.5 c 128,-1,19
 753 331 753 331 759.5 389 c 128,-1,20
 766 447 766 447 767 484.5 c 128,-1,21
 768 522 768 522 768 601 c 0,22,23
 768 627 768 627 768 640 c 2,24,-1
 768 1216 l 2,25,26
 768 1265 768 1265 767.5 1294 c 128,-1,27
 767 1323 767 1323 764.5 1362.5 c 128,-1,28
 762 1402 762 1402 757 1425 c 128,-1,29
 752 1448 752 1448 743 1476.5 c 128,-1,30
 734 1505 734 1505 720.5 1521 c 128,-1,31
 707 1537 707 1537 687.5 1554.5 c 128,-1,32
 668 1572 668 1572 642.5 1580.5 c 128,-1,33
 617 1589 617 1589 583 1594.5 c 128,-1,34
 549 1600 549 1600 507 1600 c 2,35,-1
 384 1600 l 1,36,-1
 384 1004 l 1,37,-1
 528 1004 l 1,38,-1
 528 852 l 1,39,-1
 384 852 l 1,40,-1
 384 192 l 1,14,-1
EndSplineSet
EndChar

StartChar: multiply
Encoding: 215 215 149
Width: 768
Flags: W
LayerCount: 2
Fore
SplineSet
192 320 m 1,0,-1
 64 448 l 1,1,-1
 256 640 l 1,2,-1
 64 832 l 1,3,-1
 192 960 l 1,4,-1
 384 768 l 1,5,-1
 576 960 l 1,6,-1
 704 832 l 1,7,-1
 512 640 l 1,8,-1
 704 448 l 1,9,-1
 576 320 l 1,10,-1
 384 512 l 1,11,-1
 192 320 l 1,0,-1
EndSplineSet
EndChar

StartChar: Oslash
Encoding: 216 216 150
Width: 1180
Flags: W
LayerCount: 2
Fore
SplineSet
590 192 m 0,0,1
 725 192 725 192 776.5 273 c 128,-1,2
 828 354 828 354 828 512 c 2,3,-1
 828 1290 l 2,4,5
 828 1417 828 1417 799 1484 c 1,6,-1
 463 219 l 1,7,8
 512 192 512 192 590 192 c 0,0,1
387 301 m 1,9,-1
 723 1571 l 1,10,11
 671 1600 671 1600 590 1600 c 0,12,13
 454 1600 454 1600 403 1523 c 128,-1,14
 352 1446 352 1446 352 1290 c 2,15,-1
 352 512 l 2,16,17
 352 374 352 374 387 301 c 1,9,-1
364 -156 m 1,18,-1
 274 -128 l 1,19,-1
 319 43 l 1,20,21
 96 169 96 169 96 576 c 2,22,-1
 96 1226 l 2,23,24
 96 1367 96 1367 122 1472 c 128,-1,25
 148 1577 148 1577 205 1654.5 c 128,-1,26
 262 1732 262 1732 358.5 1771 c 128,-1,27
 455 1810 455 1810 590 1810 c 0,28,29
 700 1810 700 1810 779 1785 c 1,30,-1
 821 1944 l 1,31,-1
 914 1920 l 1,32,-1
 868 1746 l 1,33,34
 1084 1619 1084 1619 1084 1226 c 2,35,-1
 1084 576 l 2,36,37
 1084 437 1084 437 1057.5 330.5 c 128,-1,38
 1031 224 1031 224 974 144.5 c 128,-1,39
 917 65 917 65 820.5 23.5 c 128,-1,40
 724 -18 724 -18 590 -18 c 0,41,42
 486 -18 486 -18 407 6 c 1,43,-1
 364 -156 l 1,18,-1
EndSplineSet
EndChar

StartChar: Thorn
Encoding: 222 222 156
Width: 952
Flags: W
LayerCount: 2
Fore
SplineSet
324 581 m 1,0,-1
 369 581 l 2,1,2
 524 581 524 581 596.5 646.5 c 128,-1,3
 669 712 669 712 669 888 c 0,4,5
 669 1052 669 1052 605.5 1120 c 128,-1,6
 542 1188 542 1188 401 1188 c 2,7,-1
 324 1188 l 1,8,-1
 324 581 l 1,0,-1
72 0 m 1,9,-1
 72 1792 l 1,10,-1
 324 1792 l 1,11,-1
 324 1411 l 1,12,-1
 504 1411 l 2,13,14
 720 1411 720 1411 825.5 1273.5 c 128,-1,15
 931 1136 931 1136 931 886 c 0,16,17
 931 622 931 622 812.5 493 c 128,-1,18
 694 364 694 364 457 364 c 2,19,-1
 326 364 l 1,20,-1
 326 0 l 1,21,-1
 72 0 l 1,9,-1
EndSplineSet
EndChar

StartChar: germandbls
Encoding: 223 223 157
Width: 1152
Flags: W
LayerCount: 2
Fore
SplineSet
512 -18 m 1,0,-1
 512 192 l 1,1,2
 591 192 591 192 641.5 210.5 c 128,-1,3
 692 229 692 229 720 271.5 c 128,-1,4
 748 314 748 314 758 370 c 128,-1,5
 768 426 768 426 768 512 c 0,6,7
 768 653 768 653 703.5 732.5 c 128,-1,8
 639 812 639 812 512 812 c 1,9,-1
 512 1024 l 1,10,11
 568 1024 568 1024 608 1051 c 128,-1,12
 648 1078 648 1078 670 1125.5 c 128,-1,13
 692 1173 692 1173 701.5 1226.5 c 128,-1,14
 711 1280 711 1280 711 1344 c 0,15,16
 711 1404 711 1404 704.5 1446 c 128,-1,17
 698 1488 698 1488 681 1525 c 128,-1,18
 664 1562 664 1562 630 1581 c 128,-1,19
 596 1600 596 1600 544 1600 c 0,20,21
 495 1600 495 1600 462.5 1582.5 c 128,-1,22
 430 1565 430 1565 413.5 1530 c 128,-1,23
 397 1495 397 1495 390.5 1455 c 128,-1,24
 384 1415 384 1415 384 1359 c 2,25,-1
 384 0 l 1,26,-1
 128 0 l 1,27,-1
 128 1354 l 2,28,29
 128 1561 128 1561 226.5 1685.5 c 128,-1,30
 325 1810 325 1810 512 1810 c 0,31,32
 735 1810 735 1810 847.5 1690 c 128,-1,33
 960 1570 960 1570 960 1344 c 0,34,35
 960 1191 960 1191 906 1095.5 c 128,-1,36
 852 1000 852 1000 741 939 c 1,37,38
 873 903 873 903 948.5 791 c 128,-1,39
 1024 679 1024 679 1024 512 c 0,40,41
 1024 247 1024 247 899 114.5 c 128,-1,42
 774 -18 774 -18 512 -18 c 1,0,-1
EndSplineSet
EndChar

StartChar: ae
Encoding: 230 230 164
Width: 1465
Flags: W
LayerCount: 2
Fore
SplineSet
864 764 m 1,0,-1
 981 764 l 1,1,2
 1021 770 1021 770 1043 776.5 c 128,-1,3
 1065 783 1065 783 1084.5 797.5 c 128,-1,4
 1104 812 1104 812 1112 837.5 c 128,-1,5
 1120 863 1120 863 1120 904 c 0,6,7
 1120 983 1120 983 1089 1035.5 c 128,-1,8
 1058 1088 1058 1088 992 1088 c 0,9,10
 965 1088 965 1088 944.5 1076.5 c 128,-1,11
 924 1065 924 1065 910.5 1049.5 c 128,-1,12
 897 1034 897 1034 887.5 1005.5 c 128,-1,13
 878 977 878 977 873.5 954.5 c 128,-1,14
 869 932 869 932 867 894 c 128,-1,15
 865 856 865 856 864.5 835 c 128,-1,16
 864 814 864 814 864 775 c 0,17,18
 864 768 864 768 864 764 c 1,0,-1
481 192 m 0,19,20
 565 192 565 192 652 291 c 1,21,22
 613 433 613 433 609 580 c 1,23,24
 553 565 553 565 514.5 550.5 c 128,-1,25
 476 536 476 536 435.5 510 c 128,-1,26
 395 484 395 484 374 444 c 128,-1,27
 353 404 353 404 353 351 c 0,28,29
 353 192 353 192 481 192 c 0,19,20
353 -18 m 0,30,31
 246 -18 246 -18 171.5 74.5 c 128,-1,32
 97 167 97 167 97 283 c 0,33,34
 97 348 97 348 112.5 403 c 128,-1,35
 128 458 128 458 152 497.5 c 128,-1,36
 176 537 176 537 217 570.5 c 128,-1,37
 258 604 258 604 296.5 625.5 c 128,-1,38
 335 647 335 647 393.5 667 c 128,-1,39
 452 687 452 687 497 698.5 c 128,-1,40
 542 710 542 710 609 725 c 1,41,-1
 609 896 l 2,42,43
 609 993 609 993 582 1046.5 c 128,-1,44
 555 1100 555 1100 481 1100 c 0,45,46
 431 1100 431 1100 401.5 1071 c 128,-1,47
 372 1042 372 1042 362.5 1000 c 128,-1,48
 353 958 353 958 353 896 c 1,49,-1
 97 896 l 1,50,51
 99 1080 99 1080 200.5 1189 c 128,-1,52
 302 1298 302 1298 481 1298 c 0,53,54
 576 1298 576 1298 644.5 1258 c 128,-1,55
 713 1218 713 1218 737 1146 c 1,56,57
 775 1213 775 1213 839.5 1255.5 c 128,-1,58
 904 1298 904 1298 992 1298 c 0,59,60
 1169 1298 1169 1298 1261.5 1185 c 128,-1,61
 1354 1072 1354 1072 1354 880 c 0,62,63
 1354 841 1354 841 1346.5 809 c 128,-1,64
 1339 777 1339 777 1326.5 753.5 c 128,-1,65
 1314 730 1314 730 1293 711.5 c 128,-1,66
 1272 693 1272 693 1251 680.5 c 128,-1,67
 1230 668 1230 668 1199 658.5 c 128,-1,68
 1168 649 1168 649 1141 644 c 128,-1,69
 1114 639 1114 639 1075.5 635 c 128,-1,70
 1037 631 1037 631 1008 629 c 128,-1,71
 979 627 979 627 936 624.5 c 128,-1,72
 893 622 893 622 864 619 c 1,73,-1
 864 576 l 2,74,75
 864 562 864 562 864 533 c 1,76,77
 862 496 862 496 863.5 456 c 128,-1,78
 865 416 865 416 867 377 c 128,-1,79
 869 338 869 338 878 303.5 c 128,-1,80
 887 269 887 269 900 242.5 c 128,-1,81
 913 216 913 216 936.5 200.5 c 128,-1,82
 960 185 960 185 992 185 c 0,83,84
 1016 185 1016 185 1035 193.5 c 128,-1,85
 1054 202 1054 202 1066 214 c 128,-1,86
 1078 226 1078 226 1086.5 248.5 c 128,-1,87
 1095 271 1095 271 1099 288.5 c 128,-1,88
 1103 306 1103 306 1105 337.5 c 128,-1,89
 1107 369 1107 369 1107.5 387 c 128,-1,90
 1108 405 1108 405 1108 439 c 0,91,92
 1108 442 1108 442 1108 444 c 128,-1,93
 1108 446 1108 446 1108 448 c 1,94,-1
 1363 448 l 1,95,96
 1363 220 1363 220 1275.5 101 c 128,-1,97
 1188 -18 1188 -18 991 -18 c 0,98,99
 767 -18 767 -18 684 179 c 1,100,101
 652 133 652 133 625 102.5 c 128,-1,102
 598 72 598 72 558.5 42 c 128,-1,103
 519 12 519 12 467.5 -3 c 128,-1,104
 416 -18 416 -18 353 -18 c 0,30,31
EndSplineSet
EndChar

StartChar: eth
Encoding: 240 240 174
Width: 1152
Flags: W
LayerCount: 2
Fore
SplineSet
576 192 m 0,0,1
 631 192 631 192 670 219 c 128,-1,2
 709 246 709 246 729.5 294 c 128,-1,3
 750 342 750 342 759 395.5 c 128,-1,4
 768 449 768 449 768 512 c 2,5,-1
 768 978 l 1,6,7
 693 1088 693 1088 576 1088 c 0,8,9
 384 1088 384 1088 384 704 c 0,10,11
 384 702 384 702 384 698 c 0,12,13
 384 625 384 625 385 585 c 128,-1,14
 386 545 386 545 391 474.5 c 128,-1,15
 396 404 396 404 408.5 363.5 c 128,-1,16
 421 323 421 323 441 278.5 c 128,-1,17
 461 234 461 234 495.5 213 c 128,-1,18
 530 192 530 192 576 192 c 0,0,1
576 -18 m 0,19,20
 470 -18 470 -18 390 16 c 128,-1,21
 310 50 310 50 261 107.5 c 128,-1,22
 212 165 212 165 182 251 c 128,-1,23
 152 337 152 337 140.5 430 c 128,-1,24
 129 523 129 523 129 640 c 0,25,26
 129 741 129 741 139 830 c 128,-1,27
 149 919 149 919 176 1007 c 128,-1,28
 203 1095 203 1095 245 1157.5 c 128,-1,29
 287 1220 287 1220 355.5 1259 c 128,-1,30
 424 1298 424 1298 512 1298 c 0,31,32
 602 1298 602 1298 674 1257 c 128,-1,33
 746 1216 746 1216 768 1152 c 1,34,35
 768 1345 768 1345 699 1446 c 1,36,-1
 256 1344 l 1,37,-1
 256 1472 l 1,38,-1
 576 1546 l 1,39,40
 504 1578 504 1578 413.5 1589 c 128,-1,41
 323 1600 323 1600 192 1600 c 1,42,-1
 192 1810 l 1,43,44
 434 1810 434 1810 599 1766 c 128,-1,45
 764 1722 764 1722 860 1611 c 1,46,-1
 1088 1664 l 1,47,-1
 1088 1536 l 1,48,-1
 932 1500 l 1,49,50
 1024 1311 1024 1311 1024 960 c 2,51,-1
 1024 576 l 2,52,53
 1024 452 1024 452 997.5 346.5 c 128,-1,54
 971 241 971 241 918.5 158.5 c 128,-1,55
 866 76 866 76 778 29 c 128,-1,56
 690 -18 690 -18 576 -18 c 0,19,20
EndSplineSet
EndChar

StartChar: divide
Encoding: 247 247 181
Width: 640
Flags: W
LayerCount: 2
Fore
SplineSet
192 879 m 1,0,-1
 192 1135 l 1,1,-1
 448 1135 l 1,2,-1
 448 879 l 1,3,-1
 192 879 l 1,0,-1
0 576 m 1,4,-1
 0 768 l 1,5,-1
 640 768 l 1,6,-1
 640 576 l 1,7,-1
 0 576 l 1,4,-1
192 233 m 1,8,-1
 192 489 l 1,9,-1
 448 489 l 1,10,-1
 448 233 l 1,11,-1
 192 233 l 1,8,-1
EndSplineSet
EndChar

StartChar: oslash
Encoding: 248 248 182
Width: 1024
Flags: W
LayerCount: 2
Fore
SplineSet
384 346 m 1,0,-1
 622 1015 l 1,1,2
 594 1088 594 1088 512 1088 c 0,3,4
 485 1088 485 1088 464.5 1080 c 128,-1,5
 444 1072 444 1072 430.5 1060.5 c 128,-1,6
 417 1049 417 1049 408 1026.5 c 128,-1,7
 399 1004 399 1004 394 987 c 128,-1,8
 389 970 389 970 387 938 c 128,-1,9
 385 906 385 906 384.5 887.5 c 128,-1,10
 384 869 384 869 384 832 c 2,11,-1
 384 346 l 1,0,-1
512 192 m 0,12,13
 539 192 539 192 559.5 200 c 128,-1,14
 580 208 580 208 593.5 219.5 c 128,-1,15
 607 231 607 231 616 253.5 c 128,-1,16
 625 276 625 276 630 293 c 128,-1,17
 635 310 635 310 637 342 c 128,-1,18
 639 374 639 374 639.5 392.5 c 128,-1,19
 640 411 640 411 640 448 c 2,20,-1
 640 803 l 1,21,-1
 431 220 l 1,22,23
 464 192 464 192 512 192 c 0,12,13
272 -222 m 1,24,-1
 196 -196 l 1,25,-1
 280 43 l 1,26,27
 128 141 128 141 128 448 c 2,28,-1
 128 832 l 2,29,30
 128 942 128 942 148 1025 c 128,-1,31
 168 1108 168 1108 212 1170.5 c 128,-1,32
 256 1233 256 1233 331.5 1265.5 c 128,-1,33
 407 1298 407 1298 512 1298 c 0,34,35
 619 1298 619 1298 707 1258 c 1,36,-1
 789 1491 l 1,37,-1
 876 1462 l 1,38,-1
 784 1205 l 1,39,40
 896 1093 896 1093 896 832 c 2,41,-1
 896 448 l 2,42,43
 896 222 896 222 807 102 c 128,-1,44
 718 -18 718 -18 512 -18 c 0,45,46
 418 -18 418 -18 354 6 c 1,47,-1
 272 -222 l 1,24,-1
EndSplineSet
EndChar

StartChar: thorn
Encoding: 254 254 188
Width: 1056
Flags: W
LayerCount: 2
Fore
SplineSet
576 192 m 0,0,1
 617 192 617 192 644.5 222 c 128,-1,2
 672 252 672 252 684.5 307.5 c 128,-1,3
 697 363 697 363 701.5 418 c 128,-1,4
 706 473 706 473 706 546 c 2,5,-1
 706 823 l 2,6,7
 706 868 706 868 703.5 901.5 c 128,-1,8
 701 935 701 935 693.5 972 c 128,-1,9
 686 1009 686 1009 672 1033 c 128,-1,10
 658 1057 658 1057 634 1072.5 c 128,-1,11
 610 1088 610 1088 576 1088 c 0,12,13
 470 1088 470 1088 384 1037 c 1,14,-1
 384 232 l 1,15,16
 483 192 483 192 576 192 c 0,0,1
128 -410 m 1,17,-1
 128 1791 l 1,18,-1
 384 1791 l 1,19,-1
 384 1153 l 1,20,21
 420 1191 420 1191 438 1208 c 128,-1,22
 456 1225 456 1225 490.5 1251 c 128,-1,23
 525 1277 525 1277 562 1287.5 c 128,-1,24
 599 1298 599 1298 644 1298 c 0,25,26
 709 1298 709 1298 760 1274.5 c 128,-1,27
 811 1251 811 1251 844 1218 c 128,-1,28
 877 1185 877 1185 900 1123.5 c 128,-1,29
 923 1062 923 1062 934.5 1012 c 128,-1,30
 946 962 946 962 952 877 c 128,-1,31
 958 792 958 792 959 739.5 c 128,-1,32
 960 687 960 687 960 594 c 0,33,34
 960 507 960 507 952 427.5 c 128,-1,35
 944 348 944 348 922.5 264 c 128,-1,36
 901 180 901 180 866.5 119.5 c 128,-1,37
 832 59 832 59 773.5 20.5 c 128,-1,38
 715 -18 715 -18 640 -18 c 0,39,40
 562 -18 562 -18 502 19 c 128,-1,41
 442 56 442 56 384 116 c 1,42,-1
 384 -410 l 1,43,-1
 128 -410 l 1,17,-1
EndSplineSet
EndChar

StartChar: Cdotaccent
Encoding: 266 266 200
Width: 1107
Flags: W
LayerCount: 2
Fore
SplineSet
452 1912 m 1,0,-1
 452 2168 l 1,1,-1
 708 2168 l 1,2,-1
 708 1912 l 1,3,-1
 452 1912 l 1,0,-1
588 -18 m 0,4,5
 475 -18 475 -18 389 14 c 128,-1,6
 303 46 303 46 248 102.5 c 128,-1,7
 193 159 193 159 158.5 243.5 c 128,-1,8
 124 328 124 328 110 424 c 128,-1,9
 96 520 96 520 96 641 c 2,10,-1
 96 1152 l 2,11,12
 96 1273 96 1273 110 1369 c 128,-1,13
 124 1465 124 1465 158.5 1549.5 c 128,-1,14
 193 1634 193 1634 248 1690 c 128,-1,15
 303 1746 303 1746 389 1778 c 128,-1,16
 475 1810 475 1810 588 1810 c 0,17,18
 713 1810 713 1810 804 1773 c 128,-1,19
 895 1736 895 1736 949.5 1664 c 128,-1,20
 1004 1592 1004 1592 1031.5 1497 c 128,-1,21
 1059 1402 1059 1402 1064 1275 c 0,22,23
 1065 1256 1065 1256 1065 1216 c 1,24,-1
 809 1216 l 1,25,-1
 809 1273 l 1,26,27
 808 1326 808 1326 805 1363.5 c 128,-1,28
 802 1401 802 1401 794 1441 c 128,-1,29
 786 1481 786 1481 770.5 1507.5 c 128,-1,30
 755 1534 755 1534 731.5 1556.5 c 128,-1,31
 708 1579 708 1579 672 1589.5 c 128,-1,32
 636 1600 636 1600 588 1600 c 0,33,34
 526 1600 526 1600 481.5 1580 c 128,-1,35
 437 1560 437 1560 412 1528.5 c 128,-1,36
 387 1497 387 1497 373.5 1444 c 128,-1,37
 360 1391 360 1391 356 1340.5 c 128,-1,38
 352 1290 352 1290 352 1216 c 2,39,-1
 352 576 l 2,40,41
 352 512 352 512 357.5 460 c 128,-1,42
 363 408 363 408 379 356.5 c 128,-1,43
 395 305 395 305 420.5 270 c 128,-1,44
 446 235 446 235 488.5 213.5 c 128,-1,45
 531 192 531 192 588 192 c 128,-1,46
 645 192 645 192 686 214 c 128,-1,47
 727 236 727 236 750.5 270 c 128,-1,48
 774 304 774 304 787.5 357 c 128,-1,49
 801 410 801 410 805 460 c 128,-1,50
 809 510 809 510 809 576 c 2,51,-1
 809 640 l 1,52,-1
 1065 640 l 1,53,-1
 1065 576 l 2,54,55
 1065 437 1065 437 1040.5 332 c 128,-1,56
 1016 227 1016 227 961.5 146.5 c 128,-1,57
 907 66 907 66 813.5 24 c 128,-1,58
 720 -18 720 -18 588 -18 c 0,4,5
EndSplineSet
EndChar

StartChar: cdotaccent
Encoding: 267 267 201
Width: 901
Flags: W
LayerCount: 2
Fore
SplineSet
349 1400 m 1,0,-1
 349 1656 l 1,1,-1
 605 1656 l 1,2,-1
 605 1400 l 1,3,-1
 349 1400 l 1,0,-1
434 -18 m 0,4,5
 341 -18 341 -18 272.5 13 c 128,-1,6
 204 44 204 44 163 94 c 128,-1,7
 122 144 122 144 97 221.5 c 128,-1,8
 72 299 72 299 62.5 376.5 c 128,-1,9
 53 454 53 454 51 557 c 1,10,11
 48 640 48 640 51 724 c 1,12,13
 53 826 53 826 62.5 904 c 128,-1,14
 72 982 72 982 97.5 1059.5 c 128,-1,15
 123 1137 123 1137 163.5 1186.5 c 128,-1,16
 204 1236 204 1236 272.5 1267 c 128,-1,17
 341 1298 341 1298 434 1298 c 0,18,19
 636 1298 636 1298 724 1189 c 128,-1,20
 812 1080 812 1080 818 866 c 1,21,-1
 818 832 l 1,22,-1
 562 832 l 1,23,-1
 562 868 l 1,24,25
 561 916 561 916 555.5 952 c 128,-1,26
 550 988 550 988 537.5 1024 c 128,-1,27
 525 1060 525 1060 498.5 1079.5 c 128,-1,28
 472 1099 472 1099 434 1099 c 128,-1,29
 396 1099 396 1099 370 1076.5 c 128,-1,30
 344 1054 344 1054 330.5 1012 c 128,-1,31
 317 970 317 970 311 925.5 c 128,-1,32
 305 881 305 881 304 823 c 0,33,34
 300 699 300 699 304 449 c 1,35,36
 306 394 306 394 312 352.5 c 128,-1,37
 318 311 318 311 331.5 272.5 c 128,-1,38
 345 234 345 234 371 213 c 128,-1,39
 397 192 397 192 434 192 c 0,40,41
 468 192 468 192 492.5 205 c 128,-1,42
 517 218 517 218 530 237 c 128,-1,43
 543 256 543 256 550.5 288 c 128,-1,44
 558 320 558 320 560 347.5 c 128,-1,45
 562 375 562 375 562 417 c 2,46,-1
 562 448 l 1,47,-1
 818 448 l 1,48,-1
 818 415 l 1,49,50
 815 314 815 314 793 236.5 c 128,-1,51
 771 159 771 159 726.5 101 c 128,-1,52
 682 43 682 43 608.5 12.5 c 128,-1,53
 535 -18 535 -18 434 -18 c 0,4,5
EndSplineSet
EndChar

StartChar: dcroat
Encoding: 273 273 207
Width: 1056
Flags: W
LayerCount: 2
Fore
SplineSet
480 192 m 0,0,1
 573 192 573 192 672 232 c 1,2,-1
 672 1037 l 1,3,4
 586 1088 586 1088 480 1088 c 0,5,6
 456 1088 456 1088 436.5 1080.5 c 128,-1,7
 417 1073 417 1073 403.5 1057 c 128,-1,8
 390 1041 390 1041 380 1023.5 c 128,-1,9
 370 1006 370 1006 364.5 978.5 c 128,-1,10
 359 951 359 951 356 929 c 128,-1,11
 353 907 353 907 352 872.5 c 128,-1,12
 351 838 351 838 351 816 c 128,-1,13
 351 794 351 794 351.5 758 c 128,-1,14
 352 722 352 722 352 705 c 0,15,16
 352 684 352 684 351.5 642 c 128,-1,17
 351 600 351 600 350.5 569.5 c 128,-1,18
 350 539 350 539 350.5 495 c 128,-1,19
 351 451 351 451 354.5 418.5 c 128,-1,20
 358 386 358 386 363 349 c 128,-1,21
 368 312 368 312 378 286 c 128,-1,22
 388 260 388 260 401.5 237.5 c 128,-1,23
 415 215 415 215 435 203.5 c 128,-1,24
 455 192 455 192 480 192 c 0,0,1
416 -18 m 0,25,26
 342 -18 342 -18 284.5 19.5 c 128,-1,27
 227 57 227 57 192 116 c 128,-1,28
 157 175 157 175 135 256 c 128,-1,29
 113 337 113 337 104.5 415 c 128,-1,30
 96 493 96 493 96 577 c 0,31,32
 96 581 96 581 96 589 c 0,33,34
 96 685 96 685 97 735 c 128,-1,35
 98 785 98 785 103.5 873 c 128,-1,36
 109 961 109 961 120.5 1009.5 c 128,-1,37
 132 1058 132 1058 155 1121.5 c 128,-1,38
 178 1185 178 1185 211 1217.5 c 128,-1,39
 244 1250 244 1250 295 1274 c 128,-1,40
 346 1298 346 1298 412 1298 c 0,41,42
 455 1298 455 1298 492.5 1286.5 c 128,-1,43
 530 1275 530 1275 564 1250.5 c 128,-1,44
 598 1226 598 1226 618.5 1207 c 128,-1,45
 639 1188 639 1188 672 1153 c 1,46,-1
 672 1500 l 1,47,-1
 412 1500 l 1,48,-1
 412 1638 l 1,49,-1
 672 1638 l 1,50,-1
 672 1791 l 1,51,-1
 928 1791 l 1,52,-1
 928 1638 l 1,53,-1
 1056 1638 l 1,54,-1
 1056 1500 l 1,55,-1
 928 1500 l 1,56,-1
 928 0 l 1,57,-1
 672 0 l 1,58,-1
 672 116 l 1,59,60
 614 56 614 56 554 19 c 128,-1,61
 494 -18 494 -18 416 -18 c 0,25,26
EndSplineSet
EndChar

StartChar: Gdotaccent
Encoding: 288 288 220
Width: 1199
Flags: W
LayerCount: 2
Fore
SplineSet
480 1912 m 1,0,-1
 480 2168 l 1,1,-1
 736 2168 l 1,2,-1
 736 1912 l 1,3,-1
 480 1912 l 1,0,-1
608 -18 m 0,4,5
 485 -18 485 -18 394.5 17 c 128,-1,6
 304 52 304 52 247 112 c 128,-1,7
 190 172 190 172 156 265 c 128,-1,8
 122 358 122 358 109 461 c 128,-1,9
 96 564 96 564 96 698 c 2,10,-1
 96 1152 l 2,11,12
 96 1810 96 1810 618 1810 c 0,13,14
 743 1810 743 1810 835 1772.5 c 128,-1,15
 927 1735 927 1735 984 1663 c 128,-1,16
 1041 1591 1041 1591 1070 1494.5 c 128,-1,17
 1099 1398 1099 1398 1104 1271 c 0,18,19
 1105 1253 1105 1253 1105 1216 c 1,20,-1
 849 1216 l 1,21,-1
 849 1270 l 1,22,23
 848 1333 848 1333 842.5 1378.5 c 128,-1,24
 837 1424 837 1424 822.5 1468 c 128,-1,25
 808 1512 808 1512 783 1539.5 c 128,-1,26
 758 1567 758 1567 716.5 1583.5 c 128,-1,27
 675 1600 675 1600 618 1600 c 0,28,29
 540 1600 540 1600 486.5 1571.5 c 128,-1,30
 433 1543 433 1543 404.5 1488.5 c 128,-1,31
 376 1434 376 1434 364 1368.5 c 128,-1,32
 352 1303 352 1303 352 1216 c 2,33,-1
 352 640 l 2,34,35
 352 576 352 576 356 524.5 c 128,-1,36
 360 473 360 473 369.5 419.5 c 128,-1,37
 379 366 379 366 397.5 327 c 128,-1,38
 416 288 416 288 443.5 256.5 c 128,-1,39
 471 225 471 225 512.5 208.5 c 128,-1,40
 554 192 554 192 608 192 c 0,41,42
 672 192 672 192 719 217 c 128,-1,43
 766 242 766 242 793.5 281.5 c 128,-1,44
 821 321 821 321 837 382 c 128,-1,45
 853 443 853 443 858.5 503 c 128,-1,46
 864 563 864 563 864 640 c 2,47,-1
 864 704 l 1,48,-1
 608 704 l 1,49,-1
 608 894 l 1,50,-1
 1120 894 l 1,51,-1
 1120 0 l 1,52,-1
 928 0 l 1,53,-1
 864 192 l 1,54,55
 789 -18 789 -18 608 -18 c 0,4,5
EndSplineSet
EndChar

StartChar: gdotaccent
Encoding: 289 289 221
Width: 968
Flags: W
LayerCount: 2
Fore
SplineSet
370 1400 m 1,0,-1
 370 1656 l 1,1,-1
 626 1656 l 1,2,-1
 626 1400 l 1,3,-1
 370 1400 l 1,0,-1
458 560 m 128,-1,5
 618 560 618 560 618 832 c 0,6,7
 618 887 618 887 611 933.5 c 128,-1,8
 604 980 604 980 587 1024.5 c 128,-1,9
 570 1069 570 1069 537 1094.5 c 128,-1,10
 504 1120 504 1120 458 1120 c 0,11,12
 411 1120 411 1120 378 1094.5 c 128,-1,13
 345 1069 345 1069 328.5 1024.5 c 128,-1,14
 312 980 312 980 305 933.5 c 128,-1,15
 298 887 298 887 298 832 c 0,16,4
 298 560 298 560 458 560 c 128,-1,5
522 -194 m 0,17,18
 549 -194 549 -194 570.5 -193 c 128,-1,19
 592 -192 592 -192 620 -189 c 128,-1,20
 648 -186 648 -186 668.5 -179.5 c 128,-1,21
 689 -173 689 -173 707.5 -163 c 128,-1,22
 726 -153 726 -153 736 -136.5 c 128,-1,23
 746 -120 746 -120 746 -99 c 0,24,25
 746 8 746 8 541 32 c 2,26,-1
 330 57 l 1,27,28
 291 29 291 29 263.5 -24 c 128,-1,29
 236 -77 236 -77 236 -135 c 0,30,31
 236 -151 236 -151 247 -162.5 c 128,-1,32
 258 -174 258 -174 279.5 -180 c 128,-1,33
 301 -186 301 -186 323.5 -190 c 128,-1,34
 346 -194 346 -194 377 -195 c 128,-1,35
 408 -196 408 -196 430 -196 c 128,-1,36
 452 -196 452 -196 481.5 -195 c 128,-1,37
 511 -194 511 -194 522 -194 c 0,17,18
522 -383 m 0,38,39
 474 -383 474 -383 444 -382.5 c 128,-1,40
 414 -382 414 -382 362 -380 c 128,-1,41
 310 -378 310 -378 275 -372.5 c 128,-1,42
 240 -367 240 -367 195 -358.5 c 128,-1,43
 150 -350 150 -350 120.5 -336 c 128,-1,44
 91 -322 91 -322 64 -303 c 128,-1,45
 37 -284 37 -284 23.5 -256.5 c 128,-1,46
 10 -229 10 -229 10 -195 c 0,47,48
 10 -95 10 -95 63.5 -24 c 128,-1,49
 117 47 117 47 202 89 c 1,50,51
 150 103 150 103 112 131.5 c 128,-1,52
 74 160 74 160 74 201 c 0,53,54
 74 218 74 218 78 237 c 128,-1,55
 82 256 82 256 87 271.5 c 128,-1,56
 92 287 92 287 103 307 c 128,-1,57
 114 327 114 327 120.5 338.5 c 128,-1,58
 127 350 127 350 142 370.5 c 128,-1,59
 157 391 157 391 162.5 398.5 c 128,-1,60
 168 406 168 406 184 425.5 c 128,-1,61
 200 445 200 445 202 448 c 1,62,63
 74 600 74 600 74 832 c 0,64,65
 74 965 74 965 116 1069 c 128,-1,66
 158 1173 158 1173 246.5 1235.5 c 128,-1,67
 335 1298 335 1298 458 1298 c 0,68,69
 529 1298 529 1298 582 1278 c 128,-1,70
 635 1258 635 1258 668.5 1227.5 c 128,-1,71
 702 1197 702 1197 734 1147 c 1,72,73
 810 1288 810 1288 950 1297 c 0,74,75
 953 1297 953 1297 956 1297 c 128,-1,76
 959 1297 959 1297 963.5 1297 c 128,-1,77
 968 1297 968 1297 970 1297 c 1,78,-1
 970 1088 l 1,79,80
 965 1088 965 1088 954 1088 c 0,81,82
 911 1088 911 1088 889 1087 c 128,-1,83
 867 1086 867 1086 840 1078.5 c 128,-1,84
 813 1071 813 1071 797 1055 c 1,85,86
 815 1016 815 1016 828.5 951.5 c 128,-1,87
 842 887 842 887 842 832 c 0,88,89
 842 698 842 698 801.5 595 c 128,-1,90
 761 492 761 492 672.5 430 c 128,-1,91
 584 368 584 368 458 368 c 1,92,-1
 329 383 l 1,93,94
 327 378 327 378 319 365.5 c 128,-1,95
 311 353 311 353 306.5 345 c 128,-1,96
 302 337 302 337 298 324.5 c 128,-1,97
 294 312 294 312 294 301 c 0,98,99
 294 275 294 275 319 257 c 128,-1,100
 344 239 344 239 388 230.5 c 128,-1,101
 432 222 432 222 472.5 218 c 128,-1,102
 513 214 513 214 563 211.5 c 128,-1,103
 613 209 613 209 632 206 c 0,104,105
 689 198 689 198 733.5 187.5 c 128,-1,106
 778 177 778 177 824.5 157 c 128,-1,107
 871 137 871 137 901 109 c 128,-1,108
 931 81 931 81 950.5 37 c 128,-1,109
 970 -7 970 -7 970 -64 c 0,110,111
 970 -134 970 -134 945.5 -189 c 128,-1,112
 921 -244 921 -244 880 -280 c 128,-1,113
 839 -316 839 -316 781 -339.5 c 128,-1,114
 723 -363 723 -363 659 -373 c 128,-1,115
 595 -383 595 -383 522 -383 c 0,38,39
EndSplineSet
EndChar

StartChar: gcommaaccent
Encoding: 291 291 223
Width: 973
Flags: W
LayerCount: 2
Fore
SplineSet
481 560 m 128,-1,1
 641 560 641 560 641 832 c 0,2,3
 641 887 641 887 634 933.5 c 128,-1,4
 627 980 627 980 610 1024.5 c 128,-1,5
 593 1069 593 1069 560 1094.5 c 128,-1,6
 527 1120 527 1120 481 1120 c 0,7,8
 434 1120 434 1120 401 1094.5 c 128,-1,9
 368 1069 368 1069 351.5 1024.5 c 128,-1,10
 335 980 335 980 328 933.5 c 128,-1,11
 321 887 321 887 321 832 c 0,12,0
 321 560 321 560 481 560 c 128,-1,1
371 1377 m 1,13,14
 371 1407 371 1407 370 1457.5 c 128,-1,15
 369 1508 369 1508 368.5 1539.5 c 128,-1,16
 368 1571 368 1571 369 1616 c 128,-1,17
 370 1661 370 1661 374.5 1690.5 c 128,-1,18
 379 1720 379 1720 387 1754.5 c 128,-1,19
 395 1789 395 1789 409.5 1810.5 c 128,-1,20
 424 1832 424 1832 444.5 1851.5 c 128,-1,21
 465 1871 465 1871 495 1880 c 128,-1,22
 525 1889 525 1889 563 1889 c 1,23,-1
 627 1761 l 1,24,25
 558 1761 558 1761 528.5 1731 c 128,-1,26
 499 1701 499 1701 499 1633 c 1,27,-1
 627 1633 l 1,28,-1
 627 1377 l 1,29,-1
 371 1377 l 1,13,14
545 -194 m 0,30,31
 572 -194 572 -194 593.5 -193 c 128,-1,32
 615 -192 615 -192 643 -189 c 128,-1,33
 671 -186 671 -186 691.5 -179.5 c 128,-1,34
 712 -173 712 -173 730.5 -163 c 128,-1,35
 749 -153 749 -153 759 -136.5 c 128,-1,36
 769 -120 769 -120 769 -99 c 0,37,38
 769 -81 769 -81 765 -66 c 1,39,40
 751 10 751 10 564 32 c 2,41,-1
 353 57 l 1,42,43
 314 29 314 29 286.5 -24 c 128,-1,44
 259 -77 259 -77 259 -135 c 0,45,46
 259 -151 259 -151 270 -162.5 c 128,-1,47
 281 -174 281 -174 302.5 -180 c 128,-1,48
 324 -186 324 -186 346.5 -190 c 128,-1,49
 369 -194 369 -194 400 -195 c 128,-1,50
 431 -196 431 -196 453 -196 c 128,-1,51
 475 -196 475 -196 504.5 -195 c 128,-1,52
 534 -194 534 -194 545 -194 c 0,30,31
545 -383 m 0,53,54
 497 -383 497 -383 467 -382.5 c 128,-1,55
 437 -382 437 -382 385 -380 c 128,-1,56
 333 -378 333 -378 298 -372.5 c 128,-1,57
 263 -367 263 -367 218 -358.5 c 128,-1,58
 173 -350 173 -350 143.5 -336 c 128,-1,59
 114 -322 114 -322 87 -303 c 128,-1,60
 60 -284 60 -284 46.5 -256.5 c 128,-1,61
 33 -229 33 -229 33 -195 c 0,62,63
 33 -95 33 -95 86.5 -24 c 128,-1,64
 140 47 140 47 225 89 c 1,65,66
 173 103 173 103 135 131.5 c 128,-1,67
 97 160 97 160 97 201 c 0,68,69
 97 218 97 218 101 237 c 128,-1,70
 105 256 105 256 110 271.5 c 128,-1,71
 115 287 115 287 126 307 c 128,-1,72
 137 327 137 327 143.5 338.5 c 128,-1,73
 150 350 150 350 165 370.5 c 128,-1,74
 180 391 180 391 185.5 398.5 c 128,-1,75
 191 406 191 406 207 425.5 c 128,-1,76
 223 445 223 445 225 448 c 1,77,78
 97 600 97 600 97 832 c 0,79,80
 97 965 97 965 139 1069 c 128,-1,81
 181 1173 181 1173 269.5 1235.5 c 128,-1,82
 358 1298 358 1298 481 1298 c 0,83,84
 552 1298 552 1298 605 1278 c 128,-1,85
 658 1258 658 1258 691.5 1227.5 c 128,-1,86
 725 1197 725 1197 757 1147 c 1,87,88
 838 1298 838 1298 993 1298 c 1,89,-1
 993 1088 l 1,90,91
 897 1088 897 1088 833 1024 c 1,92,93
 865 930 865 930 865 832 c 0,94,95
 865 698 865 698 824.5 595 c 128,-1,96
 784 492 784 492 695.5 430 c 128,-1,97
 607 368 607 368 481 368 c 0,98,99
 444 368 444 368 400 375 c 1,100,-1
 352 375 l 1,101,102
 349 369 349 369 338.5 354.5 c 128,-1,103
 328 340 328 340 322.5 327.5 c 128,-1,104
 317 315 317 315 317 301 c 0,105,106
 317 267 317 267 354.5 246.5 c 128,-1,107
 392 226 392 226 451.5 216.5 c 128,-1,108
 511 207 511 207 583 199.5 c 128,-1,109
 655 192 655 192 727 176.5 c 128,-1,110
 799 161 799 161 858.5 136 c 128,-1,111
 918 111 918 111 955.5 60 c 128,-1,112
 993 9 993 9 993 -64 c 0,113,114
 993 -134 993 -134 968.5 -189 c 128,-1,115
 944 -244 944 -244 903 -280 c 128,-1,116
 862 -316 862 -316 804 -339.5 c 128,-1,117
 746 -363 746 -363 682 -373 c 128,-1,118
 618 -383 618 -383 545 -383 c 0,53,54
EndSplineSet
EndChar

StartChar: Hbar
Encoding: 294 294 226
Width: 1216
Flags: W
LayerCount: 2
Fore
SplineSet
384 1024 m 1,0,-1
 832 1024 l 1,1,-1
 832 1355 l 1,2,-1
 384 1355 l 1,3,-1
 384 1024 l 1,0,-1
128 0 m 1,4,-1
 128 1355 l 1,5,-1
 30 1355 l 1,6,-1
 30 1494 l 1,7,-1
 128 1494 l 1,8,-1
 128 1792 l 1,9,-1
 384 1792 l 1,10,-1
 384 1494 l 1,11,-1
 832 1494 l 1,12,-1
 832 1792 l 1,13,-1
 1088 1792 l 1,14,-1
 1088 1494 l 1,15,-1
 1186 1494 l 1,16,-1
 1186 1355 l 1,17,-1
 1088 1355 l 1,18,-1
 1088 0 l 1,19,-1
 832 0 l 1,20,-1
 832 832 l 1,21,-1
 384 832 l 1,22,-1
 384 0 l 1,23,-1
 128 0 l 1,4,-1
EndSplineSet
EndChar

StartChar: hbar
Encoding: 295 295 227
Width: 1024
Flags: W
LayerCount: 2
Fore
SplineSet
128 0 m 1,0,-1
 128 1450 l 1,1,-1
 -1 1450 l 1,2,-1
 -1 1602 l 1,3,-1
 128 1602 l 1,4,-1
 128 1792 l 1,5,-1
 384 1792 l 1,6,-1
 384 1602 l 1,7,-1
 551 1602 l 1,8,-1
 551 1450 l 1,9,-1
 384 1450 l 1,10,-1
 384 1142 l 1,11,12
 441 1194 441 1194 477 1221.5 c 128,-1,13
 513 1249 513 1249 576.5 1273.5 c 128,-1,14
 640 1298 640 1298 712 1298 c 0,15,16
 794 1298 794 1298 845 1238 c 128,-1,17
 896 1178 896 1178 896 1091 c 2,18,-1
 896 0 l 1,19,-1
 640 0 l 1,20,-1
 640 960 l 2,21,22
 640 1026 640 1026 623.5 1057 c 128,-1,23
 607 1088 607 1088 552 1088 c 0,24,25
 474 1088 474 1088 384 1013 c 1,26,-1
 384 0 l 1,27,-1
 128 0 l 1,0,-1
EndSplineSet
EndChar

StartChar: Idotaccent
Encoding: 304 304 236
Width: 542
Flags: W
LayerCount: 2
Fore
SplineSet
140 1912 m 1,0,-1
 140 2168 l 1,1,-1
 396 2168 l 1,2,-1
 396 1912 l 1,3,-1
 140 1912 l 1,0,-1
140 0 m 1,4,-1
 140 1792 l 1,5,-1
 396 1792 l 1,6,-1
 396 0 l 1,7,-1
 140 0 l 1,4,-1
EndSplineSet
EndChar

StartChar: dotlessi
Encoding: 305 305 237
Width: 512
Flags: W
LayerCount: 2
Fore
SplineSet
128 0 m 1,0,-1
 128 1280 l 1,1,-1
 384 1280 l 1,2,-1
 384 0 l 1,3,-1
 128 0 l 1,0,-1
EndSplineSet
EndChar

StartChar: kgreenlandic
Encoding: 312 312 244
Width: 960
Flags: W
LayerCount: 2
Fore
SplineSet
128 0 m 1,0,-1
 128 1281 l 1,1,-1
 384 1281 l 1,2,-1
 384 737 l 1,3,-1
 704 1280 l 1,4,-1
 960 1280 l 1,5,-1
 673 793 l 1,6,-1
 960 0 l 1,7,-1
 704 0 l 1,8,-1
 502 619 l 1,9,-1
 384 438 l 1,10,-1
 384 0 l 1,11,-1
 128 0 l 1,0,-1
EndSplineSet
EndChar

StartChar: Lslash
Encoding: 321 321 253
Width: 945
Flags: W
LayerCount: 2
Fore
SplineSet
177 0 m 1,0,-1
 177 858 l 1,1,-1
 49 787 l 1,2,-1
 49 993 l 1,3,-1
 177 1064 l 1,4,-1
 177 1792 l 1,5,-1
 433 1792 l 1,6,-1
 433 1207 l 1,7,-1
 699 1355 l 1,8,-1
 699 1149 l 1,9,-1
 433 1001 l 1,10,-1
 433 192 l 1,11,-1
 881 192 l 1,12,-1
 881 0 l 1,13,-1
 177 0 l 1,0,-1
EndSplineSet
EndChar

StartChar: lslash
Encoding: 322 322 254
Width: 519
Flags: W
LayerCount: 2
Fore
SplineSet
142 0 m 1,0,-1
 142 1160 l 1,1,-1
 12 1100 l 1,2,-1
 12 1292 l 1,3,-1
 142 1352 l 1,4,-1
 142 1792 l 1,5,-1
 398 1792 l 1,6,-1
 398 1469 l 1,7,-1
 556 1542 l 1,8,-1
 556 1347 l 1,9,-1
 398 1277 l 1,10,-1
 398 0 l 1,11,-1
 142 0 l 1,0,-1
EndSplineSet
EndChar

StartChar: OE
Encoding: 338 338 267
Width: 1664
Flags: W
LayerCount: 2
Fore
SplineSet
640 192 m 128,-1,1
 777 192 777 192 836.5 275 c 128,-1,2
 896 358 896 358 896 512 c 2,3,-1
 896 1294 l 1,4,5
 894 1441 894 1441 834 1520.5 c 128,-1,6
 774 1600 774 1600 640 1600 c 0,7,8
 503 1600 503 1600 443.5 1517 c 128,-1,9
 384 1434 384 1434 384 1280 c 2,10,-1
 384 512 l 2,11,12
 384 358 384 358 443.5 275 c 128,-1,0
 503 192 503 192 640 192 c 128,-1,1
640 -18 m 0,13,14
 128 -18 128 -18 128 576 c 2,15,-1
 128 1216 l 2,16,17
 128 1810 128 1810 640 1810 c 0,18,19
 816 1810 816 1810 896 1664 c 1,20,-1
 896 1792 l 1,21,-1
 1600 1792 l 1,22,-1
 1600 1600 l 1,23,-1
 1152 1600 l 1,24,-1
 1152 1024 l 1,25,-1
 1472 1024 l 1,26,-1
 1472 832 l 1,27,-1
 1152 832 l 1,28,-1
 1152 192 l 1,29,-1
 1600 192 l 1,30,-1
 1600 0 l 1,31,-1
 896 0 l 1,32,-1
 896 128 l 1,33,34
 820 -18 820 -18 640 -18 c 0,13,14
EndSplineSet
EndChar

StartChar: oe
Encoding: 339 339 268
Width: 1536
Flags: W
LayerCount: 2
Fore
SplineSet
896 768 m 1,0,-1
 1152 768 l 1,1,2
 1152 772 1152 772 1152 780 c 0,3,4
 1152 818 1152 818 1151.5 839 c 128,-1,5
 1151 860 1151 860 1149 898 c 128,-1,6
 1147 936 1147 936 1142.5 957.5 c 128,-1,7
 1138 979 1138 979 1128.5 1007.5 c 128,-1,8
 1119 1036 1119 1036 1106 1051 c 128,-1,9
 1093 1066 1093 1066 1072 1077 c 128,-1,10
 1051 1088 1051 1088 1025 1088 c 0,11,12
 1001 1088 1001 1088 982 1080.5 c 128,-1,13
 963 1073 963 1073 950 1057 c 128,-1,14
 937 1041 937 1041 927.5 1024.5 c 128,-1,15
 918 1008 918 1008 912 980.5 c 128,-1,16
 906 953 906 953 902.5 933.5 c 128,-1,17
 899 914 899 914 898 880 c 128,-1,18
 897 846 897 846 896.5 828 c 128,-1,19
 896 810 896 810 896 777 c 0,20,21
 896 771 896 771 896 768 c 1,0,-1
512 192 m 128,-1,23
 539 192 539 192 559.5 200 c 128,-1,24
 580 208 580 208 593.5 219.5 c 128,-1,25
 607 231 607 231 616 253.5 c 128,-1,26
 625 276 625 276 630 293 c 128,-1,27
 635 310 635 310 637 342 c 128,-1,28
 639 374 639 374 639.5 392.5 c 128,-1,29
 640 411 640 411 640 448 c 2,30,-1
 640 832 l 2,31,32
 640 869 640 869 639.5 887.5 c 128,-1,33
 639 906 639 906 637 938 c 128,-1,34
 635 970 635 970 630 987 c 128,-1,35
 625 1004 625 1004 616 1026.5 c 128,-1,36
 607 1049 607 1049 593.5 1060.5 c 128,-1,37
 580 1072 580 1072 559.5 1080 c 128,-1,38
 539 1088 539 1088 512 1088 c 128,-1,39
 485 1088 485 1088 464.5 1080 c 128,-1,40
 444 1072 444 1072 430.5 1060.5 c 128,-1,41
 417 1049 417 1049 408 1026.5 c 128,-1,42
 399 1004 399 1004 394 987 c 128,-1,43
 389 970 389 970 387 938 c 128,-1,44
 385 906 385 906 384.5 887.5 c 128,-1,45
 384 869 384 869 384 832 c 2,46,-1
 384 448 l 2,47,48
 384 411 384 411 384.5 392.5 c 128,-1,49
 385 374 385 374 387 342 c 128,-1,50
 389 310 389 310 394 293 c 128,-1,51
 399 276 399 276 408 253.5 c 128,-1,52
 417 231 417 231 430.5 219.5 c 128,-1,53
 444 208 444 208 464.5 200 c 128,-1,22
 485 192 485 192 512 192 c 128,-1,23
512 -18 m 0,54,55
 306 -18 306 -18 217 102 c 128,-1,56
 128 222 128 222 128 448 c 2,57,-1
 128 832 l 2,58,59
 128 1058 128 1058 217 1178 c 128,-1,60
 306 1298 306 1298 512 1298 c 0,61,62
 688 1298 688 1298 768 1152 c 1,63,64
 842 1298 842 1298 1025 1298 c 0,65,66
 1106 1298 1106 1298 1168.5 1276.5 c 128,-1,67
 1231 1255 1231 1255 1272.5 1211.5 c 128,-1,68
 1314 1168 1314 1168 1341.5 1114.5 c 128,-1,69
 1369 1061 1369 1061 1383 985.5 c 128,-1,70
 1397 910 1397 910 1402.5 837 c 128,-1,71
 1408 764 1408 764 1408 670 c 2,72,-1
 1408 640 l 1,73,-1
 896 640 l 1,74,-1
 896 576 l 2,75,76
 896 563 896 563 896 535 c 1,77,78
 894 498 894 498 895.5 458.5 c 128,-1,79
 897 419 897 419 899 381 c 128,-1,80
 901 343 901 343 910 308.5 c 128,-1,81
 919 274 919 274 932 248 c 128,-1,82
 945 222 945 222 968.5 207 c 128,-1,83
 992 192 992 192 1024 192 c 0,84,85
 1051 192 1051 192 1072 200.5 c 128,-1,86
 1093 209 1093 209 1106.5 219.5 c 128,-1,87
 1120 230 1120 230 1129 253 c 128,-1,88
 1138 276 1138 276 1142.5 291.5 c 128,-1,89
 1147 307 1147 307 1149.5 341 c 128,-1,90
 1152 375 1152 375 1152 392 c 128,-1,91
 1152 409 1152 409 1152 448 c 1,92,-1
 1408 448 l 1,93,94
 1408 218 1408 218 1317.5 100 c 128,-1,95
 1227 -18 1227 -18 1024 -18 c 0,96,97
 844 -18 844 -18 768 128 c 1,98,99
 692 -18 692 -18 512 -18 c 0,54,55
EndSplineSet
EndChar

StartChar: Zdotaccent
Encoding: 379 379 303
Width: 951
Flags: W
LayerCount: 2
Fore
SplineSet
350 1912 m 1,0,-1
 350 2168 l 1,1,-1
 606 2168 l 1,2,-1
 606 1912 l 1,3,-1
 350 1912 l 1,0,-1
62 0 m 1,4,-1
 62 192 l 1,5,-1
 638 1600 l 1,6,-1
 126 1600 l 1,7,-1
 126 1792 l 1,8,-1
 894 1792 l 1,9,-1
 894 1600 l 1,10,-1
 318 192 l 1,11,-1
 894 192 l 1,12,-1
 894 0 l 1,13,-1
 62 0 l 1,4,-1
EndSplineSet
EndChar

StartChar: zdotaccent
Encoding: 380 380 304
Width: 782
Flags: W
LayerCount: 2
Fore
SplineSet
265 1400 m 1,0,-1
 265 1656 l 1,1,-1
 521 1656 l 1,2,-1
 521 1400 l 1,3,-1
 265 1400 l 1,0,-1
71 0 m 1,4,-1
 71 192 l 1,5,-1
 519 1088 l 1,6,-1
 135 1088 l 1,7,-1
 135 1280 l 1,8,-1
 775 1280 l 1,9,-1
 775 1088 l 1,10,-1
 327 192 l 1,11,-1
 775 192 l 1,12,-1
 775 0 l 1,13,-1
 71 0 l 1,4,-1
EndSplineSet
EndChar

StartChar: florin
Encoding: 402 402 307
Width: 704
Flags: W
LayerCount: 2
Fore
SplineSet
158 -256 m 0,0,1
 96 -256 96 -256 0 -244 c 1,2,-1
 0 -54 l 1,3,4
 60 -64 60 -64 86 -64 c 0,5,6
 150 -64 150 -64 171 -23.5 c 128,-1,7
 192 17 192 17 192 96 c 2,8,-1
 192 1088 l 1,9,-1
 56 1088 l 1,10,-1
 56 1280 l 1,11,-1
 192 1280 l 1,12,-1
 192 1344 l 2,13,14
 192 1422 192 1422 198.5 1477.5 c 128,-1,15
 205 1533 205 1533 223.5 1583 c 128,-1,16
 242 1633 242 1633 274 1663 c 128,-1,17
 306 1693 306 1693 357.5 1710.5 c 128,-1,18
 409 1728 409 1728 482 1728 c 0,19,20
 544 1728 544 1728 640 1716 c 1,21,-1
 640 1526 l 1,22,23
 630 1527 630 1527 599 1531.5 c 128,-1,24
 568 1536 568 1536 554 1536 c 0,25,26
 490 1536 490 1536 469 1495.5 c 128,-1,27
 448 1455 448 1455 448 1376 c 2,28,-1
 448 1280 l 1,29,-1
 632 1280 l 1,30,-1
 632 1088 l 1,31,-1
 448 1088 l 1,32,-1
 448 128 l 2,33,34
 448 49 448 49 441.5 -6.5 c 128,-1,35
 435 -62 435 -62 417 -112 c 128,-1,36
 399 -162 399 -162 367 -192 c 128,-1,37
 335 -222 335 -222 283 -239 c 128,-1,38
 231 -256 231 -256 158 -256 c 0,0,1
EndSplineSet
EndChar

StartChar: uni0237
Encoding: 567 567 350
Width: 576
Flags: W
LayerCount: 2
Fore
SplineSet
128 -320 m 0,0,1
 44 -320 44 -320 0 -303 c 1,2,-1
 0 -121 l 1,3,4
 35 -128 35 -128 64 -128 c 0,5,6
 192 -128 192 -128 192 21 c 2,7,-1
 192 1280 l 1,8,-1
 448 1280 l 1,9,-1
 448 -7 l 2,10,11
 448 -155 448 -155 362.5 -237.5 c 128,-1,12
 277 -320 277 -320 128 -320 c 0,0,1
EndSplineSet
EndChar

StartChar: circumflex
Encoding: 710 710 351
Width: 768
Flags: W
LayerCount: 2
Fore
SplineSet
64 1408 m 1,0,-1
 256 1792 l 1,1,-1
 512 1792 l 1,2,-1
 704 1408 l 1,3,-1
 512 1408 l 1,4,-1
 384 1664 l 1,5,-1
 256 1408 l 1,6,-1
 64 1408 l 1,0,-1
EndSplineSet
EndChar

StartChar: caron
Encoding: 711 711 352
Width: 768
Flags: W
LayerCount: 2
Fore
SplineSet
256 1408 m 1,0,-1
 64 1792 l 1,1,-1
 256 1792 l 1,2,-1
 384 1536 l 1,3,-1
 512 1792 l 1,4,-1
 704 1792 l 1,5,-1
 512 1408 l 1,6,-1
 256 1408 l 1,0,-1
EndSplineSet
EndChar

StartChar: breve
Encoding: 728 728 353
Width: 768
Flags: W
LayerCount: 2
Fore
SplineSet
384 1408 m 0,0,1
 205 1408 205 1408 134.5 1501 c 128,-1,2
 64 1594 64 1594 64 1792 c 1,3,-1
 256 1792 l 1,4,5
 256 1690 256 1690 280.5 1645 c 128,-1,6
 305 1600 305 1600 384 1600 c 128,-1,7
 463 1600 463 1600 487.5 1645.5 c 128,-1,8
 512 1691 512 1691 512 1792 c 1,9,-1
 704 1792 l 1,10,11
 704 1592 704 1592 634.5 1500 c 128,-1,12
 565 1408 565 1408 384 1408 c 0,0,1
EndSplineSet
EndChar

StartChar: dotaccent
Encoding: 729 729 354
Width: 384
Flags: W
LayerCount: 2
Fore
SplineSet
64 1446 m 1,0,-1
 64 1702 l 1,1,-1
 320 1702 l 1,2,-1
 320 1446 l 1,3,-1
 64 1446 l 1,0,-1
EndSplineSet
EndChar

StartChar: ring
Encoding: 730 730 355
Width: 640
Flags: W
LayerCount: 2
Fore
SplineSet
320 1408 m 128,-1,1
 203 1408 203 1408 133.5 1478 c 128,-1,2
 64 1548 64 1548 64 1664 c 128,-1,3
 64 1780 64 1780 133.5 1850 c 128,-1,4
 203 1920 203 1920 320 1920 c 128,-1,5
 437 1920 437 1920 506.5 1850 c 128,-1,6
 576 1780 576 1780 576 1664 c 128,-1,7
 576 1548 576 1548 506.5 1478 c 128,-1,0
 437 1408 437 1408 320 1408 c 128,-1,1
320 1536 m 128,-1,9
 380 1536 380 1536 414 1570.5 c 128,-1,10
 448 1605 448 1605 448 1664 c 128,-1,11
 448 1723 448 1723 414 1757.5 c 128,-1,12
 380 1792 380 1792 320 1792 c 128,-1,13
 260 1792 260 1792 226 1758 c 128,-1,14
 192 1724 192 1724 192 1664 c 128,-1,15
 192 1604 192 1604 226 1570 c 128,-1,8
 260 1536 260 1536 320 1536 c 128,-1,9
EndSplineSet
EndChar

StartChar: ogonek
Encoding: 731 731 356
Width: 537
Flags: W
LayerCount: 2
Fore
SplineSet
357 -513 m 2,0,1
 310 -513 310 -513 280.5 -512.5 c 128,-1,2
 251 -512 251 -512 211.5 -510 c 128,-1,3
 172 -508 172 -508 147.5 -504.5 c 128,-1,4
 123 -501 123 -501 93 -494 c 128,-1,5
 63 -487 63 -487 44.5 -477.5 c 128,-1,6
 26 -468 26 -468 7 -453.5 c 128,-1,7
 -12 -439 -12 -439 -22.5 -420.5 c 128,-1,8
 -33 -402 -33 -402 -39.5 -377 c 128,-1,9
 -46 -352 -46 -352 -46 -321 c 0,10,11
 -46 -213 -46 -213 35 -115.5 c 128,-1,12
 116 -18 116 -18 210 9 c 1,13,-1
 338 9 l 1,14,15
 332 1 332 1 285 -56 c 128,-1,16
 238 -113 238 -113 216 -144 c 128,-1,17
 194 -175 194 -175 170 -226 c 128,-1,18
 146 -277 146 -277 146 -317 c 0,19,20
 146 -391 146 -391 290 -391 c 0,21,22
 309 -391 309 -391 348.5 -388 c 128,-1,23
 388 -385 388 -385 402 -385 c 1,24,-1
 402 -513 l 1,25,-1
 357 -513 l 2,0,1
EndSplineSet
EndChar

StartChar: tilde
Encoding: 732 732 357
Width: 960
Flags: W
LayerCount: 2
Fore
SplineSet
613 1452 m 0,0,1
 565 1452 565 1452 514.5 1474 c 128,-1,2
 464 1496 464 1496 417 1517.5 c 128,-1,3
 370 1539 370 1539 329 1539 c 0,4,5
 281 1539 281 1539 281 1472 c 1,6,-1
 127 1472 l 1,7,8
 127 1588 127 1588 184.5 1666.5 c 128,-1,9
 242 1745 242 1745 347 1745 c 0,10,11
 405 1745 405 1745 492 1702 c 128,-1,12
 579 1659 579 1659 628 1659 c 0,13,14
 679 1659 679 1659 679 1728 c 1,15,-1
 833 1728 l 1,16,17
 833 1611 833 1611 775.5 1531.5 c 128,-1,18
 718 1452 718 1452 613 1452 c 0,0,1
EndSplineSet
EndChar

StartChar: hungarumlaut
Encoding: 733 733 358
Width: 640
Flags: W
LayerCount: 2
Fore
SplineSet
512 1408 m 1,0,-1
 640 1792 l 1,1,-1
 896 1792 l 1,2,-1
 640 1408 l 1,3,-1
 512 1408 l 1,0,-1
218 1408 m 1,4,-1
 306 1792 l 1,5,-1
 512 1792 l 1,6,-1
 346 1408 l 1,7,-1
 218 1408 l 1,4,-1
EndSplineSet
EndChar

StartChar: endash
Encoding: 8211 8211 381
Width: 384
Flags: W
LayerCount: 2
Fore
SplineSet
0 448 m 1,0,-1
 0 640 l 1,1,-1
 384 640 l 1,2,-1
 384 448 l 1,3,-1
 0 448 l 1,0,-1
EndSplineSet
EndChar

StartChar: emdash
Encoding: 8212 8212 382
Width: 384
Flags: W
LayerCount: 2
Fore
SplineSet
0 448 m 1,0,-1
 0 640 l 1,1,-1
 384 640 l 1,2,-1
 384 448 l 1,3,-1
 0 448 l 1,0,-1
EndSplineSet
EndChar

StartChar: quoteleft
Encoding: 8216 8216 383
Width: 512
Flags: W
LayerCount: 2
Fore
SplineSet
128 1280 m 1,0,1
 128 1312 128 1312 126.5 1375.5 c 128,-1,2
 125 1439 125 1439 125 1469 c 0,3,4
 125 1528 125 1528 128.5 1570.5 c 128,-1,5
 132 1613 132 1613 144 1657.5 c 128,-1,6
 156 1702 156 1702 177 1729.5 c 128,-1,7
 198 1757 198 1757 234 1774.5 c 128,-1,8
 270 1792 270 1792 320 1792 c 1,9,-1
 384 1664 l 1,10,11
 315 1664 315 1664 285.5 1634 c 128,-1,12
 256 1604 256 1604 256 1536 c 1,13,-1
 384 1536 l 1,14,-1
 384 1280 l 1,15,-1
 128 1280 l 1,0,1
EndSplineSet
EndChar

StartChar: quoteright
Encoding: 8217 8217 384
Width: 512
Flags: W
LayerCount: 2
Fore
SplineSet
192 1280 m 1,0,-1
 128 1408 l 1,1,2
 197 1408 197 1408 226.5 1438 c 128,-1,3
 256 1468 256 1468 256 1536 c 1,4,-1
 128 1536 l 1,5,-1
 128 1792 l 1,6,-1
 384 1792 l 1,7,8
 384 1648 384 1648 381 1550 c 0,9,10
 379 1496 379 1496 375 1459 c 128,-1,11
 371 1422 371 1422 359 1385.5 c 128,-1,12
 347 1349 347 1349 327 1327.5 c 128,-1,13
 307 1306 307 1306 273.5 1293 c 128,-1,14
 240 1280 240 1280 192 1280 c 1,0,-1
EndSplineSet
EndChar

StartChar: quotesinglbase
Encoding: 8218 8218 385
Width: 384
Flags: W
LayerCount: 2
Fore
SplineSet
126 -321 m 1,0,-1
 62 63 l 1,1,-1
 318 63 l 1,2,-1
 254 -321 l 1,3,-1
 126 -321 l 1,0,-1
EndSplineSet
EndChar

StartChar: quotedblleft
Encoding: 8220 8220 386
Width: 896
Flags: W
LayerCount: 2
Fore
SplineSet
512 1280 m 1,0,1
 512 1312 512 1312 510.5 1375.5 c 128,-1,2
 509 1439 509 1439 509 1469 c 0,3,4
 509 1528 509 1528 512.5 1570.5 c 128,-1,5
 516 1613 516 1613 528 1657.5 c 128,-1,6
 540 1702 540 1702 561 1729.5 c 128,-1,7
 582 1757 582 1757 618 1774.5 c 128,-1,8
 654 1792 654 1792 704 1792 c 1,9,-1
 768 1664 l 1,10,11
 699 1664 699 1664 669.5 1634 c 128,-1,12
 640 1604 640 1604 640 1536 c 1,13,-1
 768 1536 l 1,14,-1
 768 1280 l 1,15,-1
 512 1280 l 1,0,1
128 1280 m 1,16,17
 128 1312 128 1312 126.5 1375.5 c 128,-1,18
 125 1439 125 1439 125 1469 c 0,19,20
 125 1528 125 1528 128.5 1570.5 c 128,-1,21
 132 1613 132 1613 144 1657.5 c 128,-1,22
 156 1702 156 1702 177 1729.5 c 128,-1,23
 198 1757 198 1757 234 1774.5 c 128,-1,24
 270 1792 270 1792 320 1792 c 1,25,-1
 384 1664 l 1,26,27
 315 1664 315 1664 285.5 1634 c 128,-1,28
 256 1604 256 1604 256 1536 c 1,29,-1
 384 1536 l 1,30,-1
 384 1280 l 1,31,-1
 128 1280 l 1,16,17
EndSplineSet
EndChar

StartChar: quotedblright
Encoding: 8221 8221 387
Width: 896
Flags: W
LayerCount: 2
Fore
SplineSet
576 1280 m 1,0,-1
 512 1408 l 1,1,2
 581 1408 581 1408 610.5 1438 c 128,-1,3
 640 1468 640 1468 640 1536 c 1,4,-1
 512 1536 l 1,5,-1
 512 1792 l 1,6,-1
 768 1792 l 1,7,8
 768 1648 768 1648 765 1550 c 0,9,10
 763 1496 763 1496 759 1459 c 128,-1,11
 755 1422 755 1422 743 1385.5 c 128,-1,12
 731 1349 731 1349 711 1327.5 c 128,-1,13
 691 1306 691 1306 657.5 1293 c 128,-1,14
 624 1280 624 1280 576 1280 c 1,0,-1
192 1280 m 1,15,-1
 128 1408 l 1,16,17
 197 1408 197 1408 226.5 1438 c 128,-1,18
 256 1468 256 1468 256 1536 c 1,19,-1
 128 1536 l 1,20,-1
 128 1792 l 1,21,-1
 384 1792 l 1,22,23
 384 1648 384 1648 381 1550 c 0,24,25
 379 1496 379 1496 375 1459 c 128,-1,26
 371 1422 371 1422 359 1385.5 c 128,-1,27
 347 1349 347 1349 327 1327.5 c 128,-1,28
 307 1306 307 1306 273.5 1293 c 128,-1,29
 240 1280 240 1280 192 1280 c 1,15,-1
EndSplineSet
EndChar

StartChar: quotedblbase
Encoding: 8222 8222 388
Width: 704
Flags: W
LayerCount: 2
Fore
SplineSet
449 -320 m 1,0,-1
 385 64 l 1,1,-1
 641 64 l 1,2,-1
 577 -320 l 1,3,-1
 449 -320 l 1,0,-1
126 -320 m 1,4,-1
 62 64 l 1,5,-1
 318 64 l 1,6,-1
 254 -320 l 1,7,-1
 126 -320 l 1,4,-1
EndSplineSet
EndChar

StartChar: dagger
Encoding: 8224 8224 389
Width: 850
Flags: W
LayerCount: 2
Fore
SplineSet
300 0 m 1,0,-1
 300 990 l 1,1,-1
 100 990 l 1,2,-1
 100 1190 l 1,3,-1
 300 1190 l 1,4,-1
 300 1536 l 1,5,-1
 550 1536 l 1,6,-1
 550 1190 l 1,7,-1
 751 1190 l 1,8,-1
 751 990 l 1,9,-1
 550 990 l 1,10,-1
 550 0 l 1,11,-1
 300 0 l 1,0,-1
EndSplineSet
EndChar

StartChar: daggerdbl
Encoding: 8225 8225 390
Width: 850
Flags: W
LayerCount: 2
Fore
SplineSet
300 0 m 1,0,-1
 300 500 l 1,1,-1
 100 500 l 1,2,-1
 100 700 l 1,3,-1
 300 700 l 1,4,-1
 300 1050 l 1,5,-1
 100 1050 l 1,6,-1
 100 1250 l 1,7,-1
 300 1250 l 1,8,-1
 300 1536 l 1,9,-1
 550 1536 l 1,10,-1
 550 1250 l 1,11,-1
 751 1250 l 1,12,-1
 751 1050 l 1,13,-1
 550 1050 l 1,14,-1
 550 700 l 1,15,-1
 751 700 l 1,16,-1
 751 500 l 1,17,-1
 550 500 l 1,18,-1
 550 0 l 1,19,-1
 300 0 l 1,0,-1
EndSplineSet
EndChar

StartChar: bullet
Encoding: 8226 8226 391
Width: 960
Flags: W
LayerCount: 2
Fore
SplineSet
486 595 m 0,0,1
 363 595 363 595 292 678.5 c 128,-1,2
 221 762 221 762 221 891 c 0,3,4
 221 1021 221 1021 291.5 1104 c 128,-1,5
 362 1187 362 1187 486 1187 c 0,6,7
 609 1187 609 1187 680 1103.5 c 128,-1,8
 751 1020 751 1020 751 891 c 0,9,10
 751 761 751 761 680.5 678 c 128,-1,11
 610 595 610 595 486 595 c 0,0,1
EndSplineSet
EndChar

StartChar: guilsinglleft
Encoding: 8249 8249 392
Width: 582
Flags: W
LayerCount: 2
Fore
SplineSet
512 64 m 1,0,-1
 64 576 l 1,1,-1
 64 704 l 1,2,-1
 512 1216 l 1,3,-1
 512 896 l 1,4,-1
 256 641 l 1,5,-1
 512 384 l 1,6,-1
 512 64 l 1,0,-1
EndSplineSet
EndChar

StartChar: guilsinglright
Encoding: 8250 8250 393
Width: 577
Flags: W
LayerCount: 2
Fore
SplineSet
64 64 m 1,0,-1
 64 384 l 1,1,-1
 320 641 l 1,2,-1
 64 896 l 1,3,-1
 64 1216 l 1,4,-1
 512 704 l 1,5,-1
 512 576 l 1,6,-1
 64 64 l 1,0,-1
EndSplineSet
EndChar

StartChar: fraction
Encoding: 8260 8260 394
Width: 537
Flags: W
LayerCount: 2
Fore
SplineSet
18 383 m 1,0,-1
 301 1901 l 1,1,-1
 520 1901 l 1,2,-1
 238 383 l 1,3,-1
 18 383 l 1,0,-1
EndSplineSet
EndChar

StartChar: Euro
Encoding: 8364 8364 395
Width: 971
Flags: W
LayerCount: 2
Fore
SplineSet
494 -27 m 128,-1,1
 399 -27 399 -27 326 -1 c 128,-1,2
 253 25 253 25 206 70.5 c 128,-1,3
 159 116 159 116 128.5 184.5 c 128,-1,4
 98 253 98 253 84.5 331 c 128,-1,5
 71 409 71 409 68 508 c 1,6,-1
 0 508 l 1,7,-1
 0 674 l 1,8,-1
 68 674 l 1,9,-1
 68 827 l 1,10,-1
 0 827 l 1,11,-1
 0 993 l 1,12,-1
 70 993 l 1,13,14
 73 1092 73 1092 86 1170 c 128,-1,15
 99 1248 99 1248 128.5 1318.5 c 128,-1,16
 158 1389 158 1389 204 1435.5 c 128,-1,17
 250 1482 250 1482 321.5 1509 c 128,-1,18
 393 1536 393 1536 487 1536 c 0,19,20
 601 1536 601 1536 682.5 1499 c 128,-1,21
 764 1462 764 1462 811 1391.5 c 128,-1,22
 858 1321 858 1321 880 1229.5 c 128,-1,23
 902 1138 902 1138 903 1018 c 1,24,-1
 653 1018 l 1,25,26
 653 1309 653 1309 492 1309 c 0,27,28
 467 1309 467 1309 446.5 1305 c 128,-1,29
 426 1301 426 1301 410.5 1291.5 c 128,-1,30
 395 1282 395 1282 382.5 1272.5 c 128,-1,31
 370 1263 370 1263 361 1245.5 c 128,-1,32
 352 1228 352 1228 345.5 1214.5 c 128,-1,33
 339 1201 339 1201 335 1176 c 128,-1,34
 331 1151 331 1151 328.5 1135 c 128,-1,35
 326 1119 326 1119 324.5 1089.5 c 128,-1,36
 323 1060 323 1060 322.5 1043 c 128,-1,37
 322 1026 322 1026 322 993 c 1,38,-1
 518 993 l 1,39,-1
 518 827 l 1,40,-1
 322 827 l 1,41,-1
 322 674 l 1,42,-1
 518 674 l 1,43,-1
 518 508 l 1,44,-1
 324 508 l 1,45,46
 326 460 326 460 328.5 430 c 128,-1,47
 331 400 331 400 337.5 360.5 c 128,-1,48
 344 321 344 321 355.5 297 c 128,-1,49
 367 273 367 273 385.5 249.5 c 128,-1,50
 404 226 404 226 432.5 215.5 c 128,-1,51
 461 205 461 205 499 205 c 0,52,53
 542 205 542 205 573 226 c 128,-1,54
 604 247 604 247 620.5 278 c 128,-1,55
 637 309 637 309 647 357 c 128,-1,56
 657 405 657 405 659.5 446 c 128,-1,57
 662 487 662 487 662 541 c 1,58,-1
 909 541 l 1,59,60
 909 439 909 439 897.5 357 c 128,-1,61
 886 275 886 275 856.5 202 c 128,-1,62
 827 129 827 129 780.5 79.5 c 128,-1,63
 734 30 734 30 661.5 1.5 c 128,-1,0
 589 -27 589 -27 494 -27 c 128,-1,1
EndSplineSet
EndChar

StartChar: trademark
Encoding: 8482 8482 396
Width: 2204
Flags: W
LayerCount: 2
Fore
SplineSet
315 686 m 1,0,-1
 315 1364 l 1,1,-1
 152 1364 l 1,2,-1
 152 1518 l 1,3,-1
 649 1518 l 1,4,-1
 649 1364 l 1,5,-1
 485 1364 l 1,6,-1
 485 686 l 1,7,-1
 315 686 l 1,0,-1
741 686 m 1,8,-1
 741 1518 l 1,9,-1
 983 1518 l 1,10,-1
 1087 1065 l 1,11,-1
 1194 1518 l 1,12,-1
 1436 1518 l 1,13,-1
 1436 686 l 1,14,-1
 1276 686 l 1,15,-1
 1276 1241 l 1,16,-1
 1139 686 l 1,17,-1
 1036 686 l 1,18,-1
 899 1241 l 1,19,-1
 899 686 l 1,20,-1
 741 686 l 1,8,-1
EndSplineSet
EndChar

StartChar: product
Encoding: 8719 8719 397
Width: 1216
Flags: W
LayerCount: 2
Fore
SplineSet
128 0 m 1,0,-1
 128 1792 l 1,1,-1
 1088 1792 l 1,2,-1
 1088 0 l 1,3,-1
 832 0 l 1,4,-1
 832 1600 l 1,5,-1
 384 1600 l 1,6,-1
 384 0 l 1,7,-1
 128 0 l 1,0,-1
EndSplineSet
EndChar

StartChar: integral
Encoding: 8747 8747 398
Width: 704
Flags: W
LayerCount: 2
Fore
SplineSet
158 -256 m 0,0,1
 96 -256 96 -256 0 -244 c 1,2,-1
 0 -54 l 1,3,4
 60 -64 60 -64 86 -64 c 0,5,6
 150 -64 150 -64 171 -23.5 c 128,-1,7
 192 17 192 17 192 96 c 2,8,-1
 192 1344 l 2,9,10
 192 1422 192 1422 198.5 1477.5 c 128,-1,11
 205 1533 205 1533 223.5 1583 c 128,-1,12
 242 1633 242 1633 274 1663 c 128,-1,13
 306 1693 306 1693 357.5 1710.5 c 128,-1,14
 409 1728 409 1728 482 1728 c 0,15,16
 544 1728 544 1728 640 1716 c 1,17,-1
 640 1526 l 1,18,19
 630 1527 630 1527 599 1531.5 c 128,-1,20
 568 1536 568 1536 554 1536 c 0,21,22
 490 1536 490 1536 469 1495.5 c 128,-1,23
 448 1455 448 1455 448 1376 c 2,24,-1
 448 128 l 2,25,26
 448 49 448 49 441.5 -6.5 c 128,-1,27
 435 -62 435 -62 417 -112 c 128,-1,28
 399 -162 399 -162 367 -192 c 128,-1,29
 335 -222 335 -222 283 -239 c 128,-1,30
 231 -256 231 -256 158 -256 c 0,0,1
EndSplineSet
EndChar

StartChar: glyph399
Encoding: 65539 -1 399
Width: 1220
Flags: W
LayerCount: 2
Fore
SplineSet
174 0 m 1,0,-1
 174 1088 l 1,1,-1
 46 1088 l 1,2,-1
 46 1280 l 1,3,-1
 174 1280 l 1,4,-1
 174 1329 l 2,5,6
 174 1410 174 1410 180 1466.5 c 128,-1,7
 186 1523 186 1523 204.5 1575.5 c 128,-1,8
 223 1628 223 1628 254.5 1659.5 c 128,-1,9
 286 1691 286 1691 338.5 1709.5 c 128,-1,10
 391 1728 391 1728 464 1728 c 0,11,12
 526 1728 526 1728 622 1716 c 1,13,-1
 622 1526 l 1,14,15
 612 1527 612 1527 581 1531.5 c 128,-1,16
 550 1536 550 1536 536 1536 c 0,17,18
 472 1536 472 1536 451 1495.5 c 128,-1,19
 430 1455 430 1455 430 1376 c 2,20,-1
 430 1280 l 1,21,-1
 774 1280 l 1,22,-1
 774 1329 l 2,23,24
 774 1410 774 1410 780 1466.5 c 128,-1,25
 786 1523 786 1523 804.5 1575.5 c 128,-1,26
 823 1628 823 1628 854.5 1659.5 c 128,-1,27
 886 1691 886 1691 938.5 1709.5 c 128,-1,28
 991 1728 991 1728 1064 1728 c 0,29,30
 1126 1728 1126 1728 1222 1716 c 1,31,-1
 1222 1526 l 1,32,33
 1212 1527 1212 1527 1181 1531.5 c 128,-1,34
 1150 1536 1150 1536 1136 1536 c 0,35,36
 1072 1536 1072 1536 1051 1495.5 c 128,-1,37
 1030 1455 1030 1455 1030 1376 c 2,38,-1
 1030 1280 l 1,39,-1
 1222 1280 l 1,40,-1
 1222 1088 l 1,41,-1
 1030 1088 l 1,42,-1
 1030 0 l 1,43,-1
 774 0 l 1,44,-1
 774 1088 l 1,45,-1
 430 1088 l 1,46,-1
 430 0 l 1,47,-1
 174 0 l 1,0,-1
EndSplineSet
EndChar

StartChar: uniFB01
Encoding: 64257 64257 400
Width: 1186
Flags: W
LayerCount: 2
Fore
SplineSet
802 1472 m 1,0,-1
 802 1728 l 1,1,-1
 1058 1728 l 1,2,-1
 1058 1472 l 1,3,-1
 802 1472 l 1,0,-1
174 0 m 1,4,-1
 174 1088 l 1,5,-1
 46 1088 l 1,6,-1
 46 1280 l 1,7,-1
 174 1280 l 1,8,-1
 174 1329 l 2,9,10
 174 1410 174 1410 180 1466.5 c 128,-1,11
 186 1523 186 1523 204.5 1575.5 c 128,-1,12
 223 1628 223 1628 254.5 1659.5 c 128,-1,13
 286 1691 286 1691 338.5 1709.5 c 128,-1,14
 391 1728 391 1728 464 1728 c 0,15,16
 526 1728 526 1728 622 1716 c 1,17,-1
 622 1526 l 1,18,19
 612 1527 612 1527 581 1531.5 c 128,-1,20
 550 1536 550 1536 536 1536 c 0,21,22
 472 1536 472 1536 451 1495.5 c 128,-1,23
 430 1455 430 1455 430 1376 c 2,24,-1
 430 1280 l 1,25,-1
 1058 1280 l 1,26,-1
 1058 0 l 1,27,-1
 802 0 l 1,28,-1
 802 1088 l 1,29,-1
 430 1088 l 1,30,-1
 430 0 l 1,31,-1
 174 0 l 1,4,-1
EndSplineSet
EndChar

StartChar: uniFB02
Encoding: 64258 64258 401
Width: 1161
Flags: W
LayerCount: 2
Fore
SplineSet
174 0 m 1,0,-1
 174 1088 l 1,1,-1
 46 1088 l 1,2,-1
 46 1280 l 1,3,-1
 174 1280 l 1,4,-1
 174 1329 l 2,5,6
 174 1410 174 1410 180 1466.5 c 128,-1,7
 186 1523 186 1523 204.5 1575.5 c 128,-1,8
 223 1628 223 1628 254.5 1659.5 c 128,-1,9
 286 1691 286 1691 338.5 1709.5 c 128,-1,10
 391 1728 391 1728 464 1728 c 0,11,12
 573 1728 573 1728 670 1721.5 c 128,-1,13
 767 1715 767 1715 831.5 1707.5 c 128,-1,14
 896 1700 896 1700 1042 1681 c 1,15,-1
 1042 0 l 1,16,-1
 786 0 l 1,17,-1
 786 1522 l 1,18,19
 630 1536 630 1536 536 1536 c 0,20,21
 472 1536 472 1536 451 1495.5 c 128,-1,22
 430 1455 430 1455 430 1376 c 2,23,-1
 430 1280 l 1,24,-1
 622 1280 l 1,25,-1
 622 1088 l 1,26,-1
 430 1088 l 1,27,-1
 430 0 l 1,28,-1
 174 0 l 1,0,-1
EndSplineSet
EndChar

StartChar: uni030F
Encoding: 783 783 402
Width: 640
Flags: W
LayerCount: 2
Fore
SplineSet
558 1408 m 1,0,-1
 392 1792 l 1,1,-1
 598 1792 l 1,2,-1
 686 1408 l 1,3,-1
 558 1408 l 1,0,-1
264 1408 m 1,4,-1
 8 1792 l 1,5,-1
 264 1792 l 1,6,-1
 392 1408 l 1,7,-1
 264 1408 l 1,4,-1
EndSplineSet
EndChar

StartChar: minus
Encoding: 8722 8722 403
Width: 768
Flags: W
LayerCount: 2
Fore
SplineSet
0 548 m 1,0,-1
 0 699 l 1,1,-1
 750 699 l 1,2,-1
 750 548 l 1,3,-1
 0 548 l 1,0,-1
EndSplineSet
EndChar

StartChar: uni00B9
Encoding: 185 185 404
Width: 512
Flags: W
LayerCount: 2
Fore
SplineSet
192 640 m 1,0,-1
 192 1216 l 1,1,-1
 64 1216 l 1,2,-1
 64 1344 l 1,3,4
 232 1427 232 1427 320 1536 c 1,5,-1
 384 1536 l 1,6,-1
 384 640 l 1,7,-1
 192 640 l 1,0,-1
EndSplineSet
EndChar

StartChar: uni00B3
Encoding: 179 179 405
Width: 768
Flags: W
LayerCount: 2
Fore
SplineSet
384 640 m 128,-1,1
 261 640 261 640 194.5 707 c 128,-1,2
 128 774 128 774 128 896 c 1,3,-1
 320 896 l 1,4,5
 320 875 320 875 320.5 864 c 128,-1,6
 321 853 321 853 322.5 835 c 128,-1,7
 324 817 324 817 328 807.5 c 128,-1,8
 332 798 332 798 339 787.5 c 128,-1,9
 346 777 346 777 357 772.5 c 128,-1,10
 368 768 368 768 384 768 c 128,-1,11
 400 768 400 768 411 772.5 c 128,-1,12
 422 777 422 777 429 787.5 c 128,-1,13
 436 798 436 798 440 807.5 c 128,-1,14
 444 817 444 817 445.5 835 c 128,-1,15
 447 853 447 853 447.5 864 c 128,-1,16
 448 875 448 875 448 896 c 0,17,18
 448 967 448 967 420 995.5 c 128,-1,19
 392 1024 392 1024 320 1024 c 1,20,-1
 320 1152 l 1,21,22
 393 1152 393 1152 420.5 1180 c 128,-1,23
 448 1208 448 1208 448 1280 c 0,24,25
 448 1301 448 1301 447.5 1312 c 128,-1,26
 447 1323 447 1323 445.5 1341 c 128,-1,27
 444 1359 444 1359 440 1368.5 c 128,-1,28
 436 1378 436 1378 429 1388.5 c 128,-1,29
 422 1399 422 1399 411 1403.5 c 128,-1,30
 400 1408 400 1408 384 1408 c 128,-1,31
 368 1408 368 1408 357 1403.5 c 128,-1,32
 346 1399 346 1399 339 1388.5 c 128,-1,33
 332 1378 332 1378 328 1368.5 c 128,-1,34
 324 1359 324 1359 322.5 1341 c 128,-1,35
 321 1323 321 1323 320.5 1312 c 128,-1,36
 320 1301 320 1301 320 1280 c 1,37,-1
 128 1280 l 1,38,39
 128 1401 128 1401 194.5 1468.5 c 128,-1,40
 261 1536 261 1536 384 1536 c 128,-1,41
 507 1536 507 1536 573.5 1468.5 c 128,-1,42
 640 1401 640 1401 640 1280 c 0,43,44
 640 1189 640 1189 588.5 1140 c 128,-1,45
 537 1091 537 1091 448 1088 c 1,46,47
 538 1082 538 1082 589 1035 c 128,-1,48
 640 988 640 988 640 896 c 0,49,50
 640 775 640 775 573.5 707.5 c 128,-1,0
 507 640 507 640 384 640 c 128,-1,1
EndSplineSet
EndChar

StartChar: uni00B2
Encoding: 178 178 406
Width: 640
Flags: W
LayerCount: 2
Fore
SplineSet
64 576 m 1,0,-1
 64 704 l 1,1,-1
 256 960 l 2,2,3
 263 969 263 969 283.5 995.5 c 128,-1,4
 304 1022 304 1022 313.5 1034.5 c 128,-1,5
 323 1047 323 1047 339.5 1073 c 128,-1,6
 356 1099 356 1099 363.5 1118 c 128,-1,7
 371 1137 371 1137 377.5 1163.5 c 128,-1,8
 384 1190 384 1190 384 1216 c 0,9,10
 384 1237 384 1237 383.5 1248 c 128,-1,11
 383 1259 383 1259 381.5 1277 c 128,-1,12
 380 1295 380 1295 376 1304.5 c 128,-1,13
 372 1314 372 1314 365 1324.5 c 128,-1,14
 358 1335 358 1335 347 1339.5 c 128,-1,15
 336 1344 336 1344 320 1344 c 128,-1,16
 304 1344 304 1344 293 1339.5 c 128,-1,17
 282 1335 282 1335 275 1324.5 c 128,-1,18
 268 1314 268 1314 264 1304.5 c 128,-1,19
 260 1295 260 1295 258.5 1277 c 128,-1,20
 257 1259 257 1259 256.5 1248 c 128,-1,21
 256 1237 256 1237 256 1216 c 1,22,-1
 64 1216 l 1,23,24
 64 1337 64 1337 130.5 1404.5 c 128,-1,25
 197 1472 197 1472 320 1472 c 128,-1,26
 443 1472 443 1472 509.5 1404.5 c 128,-1,27
 576 1337 576 1337 576 1216 c 0,28,29
 576 1145 576 1145 538.5 1067.5 c 128,-1,30
 501 990 501 990 457 937 c 128,-1,31
 413 884 413 884 347.5 811.5 c 128,-1,32
 282 739 282 739 256 704 c 1,33,-1
 576 704 l 1,34,-1
 576 576 l 1,35,-1
 64 576 l 1,0,-1
EndSplineSet
EndChar

StartChar: glyph408
Encoding: 65540 -1 408
Width: 1362
Flags: W
LayerCount: 2
Fore
SplineSet
221 277 m 1,0,-1
 389 819 l 1,1,-1
 -70 1157 l 1,2,-1
 502 1168 l 1,3,-1
 680 1710 l 1,4,-1
 868 1168 l 1,5,-1
 1440 1168 l 1,6,-1
 979 819 l 1,7,-1
 1149 277 l 1,8,-1
 680 604 l 1,9,-1
 221 277 l 1,0,-1
EndSplineSet
EndChar

StartChar: uni0311
Encoding: 785 785 410
Width: 768
Flags: W
LayerCount: 2
Fore
SplineSet
64 1408 m 1,0,1
 64 1608 64 1608 133.5 1700 c 128,-1,2
 203 1792 203 1792 384 1792 c 0,3,4
 563 1792 563 1792 633.5 1699 c 128,-1,5
 704 1606 704 1606 704 1408 c 1,6,-1
 512 1408 l 1,7,8
 512 1510 512 1510 487.5 1555 c 128,-1,9
 463 1600 463 1600 384 1600 c 128,-1,10
 305 1600 305 1600 280.5 1554.5 c 128,-1,11
 256 1509 256 1509 256 1408 c 1,12,-1
 64 1408 l 1,0,1
EndSplineSet
EndChar

StartChar: uni0326
Encoding: 806 806 411
Width: 330
Flags: W
LayerCount: 2
Fore
SplineSet
101 -591 m 1,0,-1
 37 -463 l 1,1,2
 106 -463 106 -463 135.5 -433 c 128,-1,3
 165 -403 165 -403 165 -335 c 1,4,-1
 37 -335 l 1,5,-1
 37 -79 l 1,6,-1
 293 -79 l 1,7,8
 293 -224 293 -224 290 -321 c 0,9,10
 288 -375 288 -375 284 -412 c 128,-1,11
 280 -449 280 -449 268 -485.5 c 128,-1,12
 256 -522 256 -522 236 -543.5 c 128,-1,13
 216 -565 216 -565 182.5 -578 c 128,-1,14
 149 -591 149 -591 101 -591 c 1,0,-1
EndSplineSet
EndChar

StartChar: uni2074
Encoding: 8308 8308 412
Width: 768
Flags: W
LayerCount: 2
Fore
SplineSet
256 960 m 1,0,-1
 384 960 l 1,1,-1
 384 1216 l 1,2,-1
 256 960 l 1,0,-1
384 576 m 1,3,-1
 384 832 l 1,4,-1
 64 832 l 1,5,-1
 64 960 l 1,6,-1
 404 1536 l 1,7,-1
 576 1536 l 1,8,-1
 576 960 l 1,9,-1
 704 960 l 1,10,-1
 704 832 l 1,11,-1
 576 832 l 1,12,-1
 576 576 l 1,13,-1
 384 576 l 1,3,-1
EndSplineSet
EndChar

StartChar: glyph413
Encoding: 65542 -1 413
Width: 1718
Flags: W
LayerCount: 2
Fore
SplineSet
1334 1472 m 1,0,-1
 1334 1728 l 1,1,-1
 1590 1728 l 1,2,-1
 1590 1472 l 1,3,-1
 1334 1472 l 1,0,-1
174 0 m 1,4,-1
 174 1088 l 1,5,-1
 46 1088 l 1,6,-1
 46 1280 l 1,7,-1
 174 1280 l 1,8,-1
 174 1329 l 2,9,10
 174 1410 174 1410 180 1466.5 c 128,-1,11
 186 1523 186 1523 204.5 1575.5 c 128,-1,12
 223 1628 223 1628 254.5 1659.5 c 128,-1,13
 286 1691 286 1691 338.5 1709.5 c 128,-1,14
 391 1728 391 1728 464 1728 c 0,15,16
 526 1728 526 1728 622 1716 c 1,17,-1
 622 1526 l 1,18,19
 612 1527 612 1527 581 1531.5 c 128,-1,20
 550 1536 550 1536 536 1536 c 0,21,22
 472 1536 472 1536 451 1495.5 c 128,-1,23
 430 1455 430 1455 430 1376 c 2,24,-1
 430 1280 l 1,25,-1
 736 1280 l 1,26,-1
 736 1329 l 2,27,28
 736 1410 736 1410 742 1466.5 c 128,-1,29
 748 1523 748 1523 766.5 1575.5 c 128,-1,30
 785 1628 785 1628 816.5 1659.5 c 128,-1,31
 848 1691 848 1691 900.5 1709.5 c 128,-1,32
 953 1728 953 1728 1026 1728 c 0,33,34
 1088 1728 1088 1728 1184 1716 c 1,35,-1
 1184 1526 l 1,36,37
 1174 1527 1174 1527 1143 1531.5 c 128,-1,38
 1112 1536 1112 1536 1098 1536 c 0,39,40
 1034 1536 1034 1536 1013 1495.5 c 128,-1,41
 992 1455 992 1455 992 1376 c 2,42,-1
 992 1280 l 1,43,-1
 1590 1280 l 1,44,-1
 1590 0 l 1,45,-1
 1334 0 l 1,46,-1
 1334 1088 l 1,47,-1
 992 1088 l 1,48,-1
 992 0 l 1,49,-1
 736 0 l 1,50,-1
 736 1088 l 1,51,-1
 430 1088 l 1,52,-1
 430 0 l 1,53,-1
 174 0 l 1,4,-1
EndSplineSet
EndChar

StartChar: glyph414
Encoding: 65543 -1 414
Width: 1677
Flags: W
LayerCount: 2
Fore
SplineSet
174 0 m 1,0,-1
 174 1088 l 1,1,-1
 46 1088 l 1,2,-1
 46 1280 l 1,3,-1
 174 1280 l 1,4,-1
 174 1329 l 2,5,6
 174 1410 174 1410 180 1466.5 c 128,-1,7
 186 1523 186 1523 204.5 1575.5 c 128,-1,8
 223 1628 223 1628 254.5 1659.5 c 128,-1,9
 286 1691 286 1691 338.5 1709.5 c 128,-1,10
 391 1728 391 1728 464 1728 c 0,11,12
 526 1728 526 1728 622 1716 c 1,13,-1
 622 1526 l 1,14,15
 612 1527 612 1527 581 1531.5 c 128,-1,16
 550 1536 550 1536 536 1536 c 0,17,18
 472 1536 472 1536 451 1495.5 c 128,-1,19
 430 1455 430 1455 430 1376 c 2,20,-1
 430 1280 l 1,21,-1
 712 1280 l 1,22,-1
 712 1329 l 2,23,24
 712 1410 712 1410 718 1466.5 c 128,-1,25
 724 1523 724 1523 742.5 1575.5 c 128,-1,26
 761 1628 761 1628 792.5 1659.5 c 128,-1,27
 824 1691 824 1691 876.5 1709.5 c 128,-1,28
 929 1728 929 1728 1002 1728 c 0,29,30
 1107 1728 1107 1728 1200 1722 c 128,-1,31
 1293 1716 1293 1716 1355.5 1708 c 128,-1,32
 1418 1700 1418 1700 1558 1681 c 1,33,-1
 1558 0 l 1,34,-1
 1302 0 l 1,35,-1
 1302 1522 l 1,36,37
 1160 1536 1160 1536 1074 1536 c 0,38,39
 1010 1536 1010 1536 989 1495.5 c 128,-1,40
 968 1455 968 1455 968 1376 c 2,41,-1
 968 1280 l 1,42,-1
 1160 1280 l 1,43,-1
 1160 1088 l 1,44,-1
 968 1088 l 1,45,-1
 968 0 l 1,46,-1
 712 0 l 1,47,-1
 712 1088 l 1,48,-1
 430 1088 l 1,49,-1
 430 0 l 1,50,-1
 174 0 l 1,0,-1
EndSplineSet
EndChar

StartChar: uni00B5
Encoding: 181 181 417
Width: 987
Flags: W
LayerCount: 2
Fore
SplineSet
370 267 m 2,0,1
 370 227 370 227 394.5 202 c 128,-1,2
 419 177 419 177 458 177 c 0,3,4
 479 177 479 177 499 182 c 128,-1,5
 519 187 519 187 538.5 199.5 c 128,-1,6
 558 212 558 212 569 219.5 c 128,-1,7
 580 227 580 227 600.5 245 c 128,-1,8
 621 263 621 263 626 267 c 1,9,-1
 626 1280 l 1,10,-1
 882 1280 l 1,11,-1
 882 0 l 1,12,-1
 626 0 l 1,13,-1
 626 138 l 1,14,15
 590 75 590 75 529.5 38 c 128,-1,16
 469 1 469 1 370 0 c 1,17,-1
 370 -252 l 1,18,-1
 114 -253 l 1,19,-1
 114 1280 l 1,20,-1
 370 1280 l 1,21,-1
 370 267 l 2,0,1
EndSplineSet
EndChar

StartChar: uni2215
Encoding: 8725 8725 418
Width: 537
Flags: W
LayerCount: 2
Fore
SplineSet
18 383 m 1,0,-1
 301 1901 l 1,1,-1
 520 1901 l 1,2,-1
 238 383 l 1,3,-1
 18 383 l 1,0,-1
EndSplineSet
EndChar
